<svg width="629" height="610" viewBox="0 0 629 610" fill="none" xmlns="http://www.w3.org/2000/svg">
<path d="M536.279 299.639C658.96 370.468 658.96 485.307 536.277 556.137C413.596 626.967 214.691 626.968 92.0106 556.137C-30.6706 485.308 -30.6701 370.469 92.0116 299.64C214.693 228.809 413.599 228.809 536.279 299.639Z" fill="#2AAAC0"/>
<path d="M494.566 490.821C473.964 478.928 473.964 459.645 494.566 447.752C515.164 435.86 548.563 435.86 569.161 447.753C589.761 459.647 589.761 478.928 569.161 490.821C548.563 502.715 515.164 502.715 494.566 490.821Z" fill="#DADBD8"/>
<path d="M75.5725 492.472L21.3855 461.187C18.3298 459.423 18.3298 456.563 21.3855 454.8L336.571 272.827C339.625 271.063 344.577 271.063 347.633 272.827L401.823 304.111C404.877 305.875 404.877 308.735 401.823 310.497L86.6355 492.472C83.5803 494.236 78.6277 494.236 75.5725 492.472Z" fill="#DADBD8"/>
<path d="M270.348 436.715L316.931 409.78C321.732 407.008 324.133 403.375 324.133 399.741C324.133 396.107 324.153 393.261 324.153 393.261L275.821 366.008C273.26 364.529 271.184 360.935 271.184 357.976V300.544L189.821 347.56L189.817 404.993C189.817 407.949 191.893 411.545 194.455 413.024L235.569 436.716C245.173 442.26 260.743 442.259 270.348 436.715Z" fill="#200D8A"/>
<path d="M252.958 440.873C246.664 440.873 240.371 439.487 235.57 436.716L209.354 421.609V415.163L204.562 412.385L209.35 415.151L209.36 415.144L235.563 430.237C240.366 433.011 246.662 434.397 252.956 434.397C253.223 434.397 253.488 434.395 253.754 434.389V440.828C259.776 440.72 265.747 439.381 270.352 436.704L288.547 426.192L270.348 436.715C265.546 439.487 259.252 440.873 252.958 440.873ZM257.506 434.153C262.21 433.645 266.704 432.341 270.343 430.241L301.991 411.953L270.352 430.252C266.708 432.349 262.21 433.659 257.506 434.153ZM324.144 394.937C324.144 394.391 324.144 393.956 324.144 393.668C324.148 393.591 324.151 393.512 324.152 393.435C324.151 393.688 324.148 394.213 324.144 394.937Z" fill="#0B584B"/>
<path d="M198.404 408.477C197.439 407.496 196.632 406.243 196.103 404.931C196.633 406.24 197.441 407.495 198.404 408.477Z" fill="#0B584B"/>
<path d="M209.354 421.613L194.442 413.021C191.899 411.548 189.81 407.961 189.81 404.989V397.811L189.818 397.807V404.993C189.818 407.949 191.894 411.545 194.455 413.024L209.354 421.609V421.613Z" fill="#8F9192"/>
<path d="M209.353 421.609L194.455 413.024C191.893 411.545 189.817 407.949 189.817 404.993V397.807L195.429 394.567V401.76C195.429 402.779 195.676 403.873 196.103 404.931C196.632 406.243 197.439 407.496 198.404 408.477C198.92 409.004 199.481 409.453 200.067 409.792L204.561 412.385L209.353 415.163V421.609Z" fill="#09362E"/>
<path d="M195.431 401.76C195.431 404.717 197.505 408.313 200.067 409.792L235.563 430.237C245.167 435.783 260.737 435.784 270.343 430.241L316.949 403.309C326.555 397.767 326.556 388.779 316.952 383.235L281.433 362.773C278.872 361.295 276.796 357.699 276.796 354.743V309.865L195.431 356.883V401.76Z" fill="#200D8A"/>
<path d="M252.956 434.397C246.661 434.397 240.365 433.011 235.563 430.237L209.36 415.144L290.877 368.233V368.227L281.433 362.773C278.872 361.295 276.796 357.699 276.796 354.743C276.796 357.699 278.872 361.295 281.433 362.773L316.952 383.235C321.753 386.007 324.155 389.64 324.153 393.272C324.153 393.405 324.151 393.536 324.144 393.668C324.144 393.408 324.144 393.267 324.144 393.267C324.144 396.908 321.735 400.549 316.943 403.305L301.991 411.953L270.343 430.241C266.704 432.341 262.209 433.645 257.505 434.153C256.265 434.284 255.011 434.359 253.753 434.375V434.389C253.488 434.395 253.223 434.397 252.956 434.397Z" fill="#1306AB"/>
<path d="M209.349 415.151L204.561 412.385L202.707 411.312L209.36 415.144L209.349 415.151Z" fill="#07211E"/>
<path d="M198.424 408.497C198.418 408.491 198.411 408.484 198.404 408.477C197.442 407.495 196.634 406.24 196.103 404.931C196.066 404.835 196.028 404.739 195.992 404.643C196.52 406.065 197.383 407.44 198.424 408.497Z" fill="#07211E"/>
<path d="M204.561 412.385L200.067 409.792C199.481 409.453 198.92 409.004 198.404 408.477C198.411 408.484 198.417 408.491 198.424 408.497C198.935 409.016 199.488 409.457 200.067 409.792L202.707 411.312L204.561 412.385ZM196.103 404.931C195.676 403.873 195.429 402.779 195.429 401.76V394.567H195.431V401.76C195.431 402.687 195.633 403.675 195.992 404.643C196.028 404.739 196.065 404.835 196.103 404.931Z" fill="#061513"/>
<path d="M209.36 415.144L202.707 411.312L200.067 409.792C199.488 409.457 198.935 409.016 198.424 408.497C197.383 407.44 196.52 406.065 195.992 404.643C195.633 403.675 195.431 402.687 195.431 401.76V394.567L276.796 347.591V354.743C276.796 357.699 278.872 361.295 281.433 362.773L290.877 368.227V368.233L209.36 415.144Z" fill="#0A483E"/>
<path d="M324.144 393.267C324.144 393.267 324.144 396.104 324.144 399.745C324.144 403.385 321.735 407 316.943 409.785L270.352 436.704C265.747 439.381 259.776 440.72 253.753 440.828V434.375C259.776 434.295 265.747 432.903 270.352 430.252L316.943 403.305C321.735 400.549 324.144 396.908 324.144 393.267Z" fill="#200D8A"/>
<path d="M253.753 440.828V434.375C259.776 434.295 265.747 432.903 270.352 430.252L316.943 403.305C321.735 400.549 324.144 396.908 324.144 393.267C324.144 393.267 324.144 396.104 324.144 399.745C324.144 403.385 321.735 407 316.943 409.785L270.352 436.704C265.747 439.381 259.776 440.72 253.753 440.828Z" fill="#130B74"/>
<path d="M64.788 457.54C67.7907 459.272 72.8208 459.18 76.0219 457.332C116.024 434.237 350.688 298.756 390.685 275.665C393.885 273.817 396.479 269.324 396.479 265.627V11.0746C396.479 7.37857 394.045 2.97595 391.043 1.24261C388.039 -0.490723 383.011 -0.3974 379.808 1.45062L65.1511 183.117C61.9495 184.965 59.3547 189.46 59.3547 193.157L59.3511 447.708C59.3511 451.404 61.7849 455.805 64.788 457.54Z" fill="#200D8A"/>
<path d="M76.0242 457.325L390.685 275.66C393.887 273.811 396.482 269.316 396.482 265.62V11.0666C396.482 7.37061 393.887 5.87329 390.685 7.72128L76.0278 189.388C72.8267 191.236 70.2319 195.731 70.2319 199.428L70.2278 453.979C70.2278 457.675 72.8231 459.173 76.0242 457.325Z" fill="#200D8A"/>
<path d="M70.2283 436.94L70.2319 199.428C70.2319 198.955 70.2742 198.469 70.3549 197.979C70.4903 197.177 70.7231 196.359 71.0371 195.556C71.6419 194.029 72.5502 192.559 73.6377 191.361C74.3685 190.56 75.1762 189.884 76.0273 189.393L186.215 125.772L390.685 7.72128C391.616 7.18396 392.495 6.92929 393.273 6.92929C393.318 6.92929 393.36 6.93063 393.403 6.93195C393.658 6.94128 393.901 6.97864 394.131 7.04263C394.133 7.04263 394.136 7.04395 394.139 7.04395L394.14 7.04532C395.561 7.44397 396.482 8.86661 396.482 11.0666V49.7359L385.6 56.02L385.599 27.2346C385.599 25.6613 384.816 24.752 383.675 24.752C383.207 24.752 382.679 24.9053 382.121 25.2266L84.5799 197.013C82.6595 198.121 81.1023 200.819 81.1023 203.037L81.0996 407.911C81.0996 409.484 81.883 410.393 83.0247 410.393C83.4919 410.393 84.0195 410.241 84.5773 409.919L109.465 395.551V414.287L70.2278 436.94" fill="#130B74"/>
<path d="M75.1703 463.941C71.9584 465.36 67.514 465.307 64.7828 463.727C61.7844 461.987 59.3479 457.596 59.3479 453.875V430.697L70.2178 436.989V460.167C70.2178 463.54 72.3599 465.065 75.1703 463.941Z" fill="#200D8A"/>
<path d="M70.0454 464.961C68.1036 464.961 66.2099 464.552 64.7828 463.727C61.7844 461.987 59.3479 457.596 59.3479 453.875V430.697L70.2178 436.989V460.167C70.2178 462.8 71.523 464.307 73.4323 464.307C73.9694 464.307 74.5536 464.188 75.1703 463.941C73.6364 464.619 71.8208 464.961 70.0454 464.961Z" fill="#130B74"/>
<path d="M70.2178 436.989L70.2276 460.157C70.2276 463.853 72.823 465.352 76.024 463.504L390.685 281.839C393.887 279.991 396.481 275.495 396.481 271.799V248.58L70.2178 436.989Z" fill="#200D8A"/>
<path d="M70.2276 436.983V436.94L70.2282 436.983L70.2178 436.989" fill="#1306AB"/>
<path d="M70.2283 436.983V436.94L109.465 414.287V414.325L70.2283 436.983Z" fill="#0A483E"/>
<path d="M73.4357 464.296C71.5341 464.295 70.2278 462.779 70.2278 460.157V436.983H70.2283L109.465 414.325V423.781C109.465 425.353 110.142 426.759 111.176 427.307C111.253 427.348 111.411 427.435 111.627 427.556C112.792 428.215 115.461 429.763 116.36 430.247C116.672 430.416 117.016 430.511 117.384 430.511C117.804 430.511 118.255 430.389 118.725 430.117L386.259 275.569L389.535 282.503L276.796 347.591L195.431 394.567H195.43L189.818 397.807L189.81 397.811L76.0242 463.504C75.0934 464.041 74.2147 464.296 73.4357 464.296Z" fill="#1306AB"/>
<path d="M81.0996 407.911L81.1023 203.037C81.1023 200.819 82.6595 198.121 84.5799 197.013L382.121 25.2267C384.043 24.1187 385.599 25.0173 385.599 27.2346L385.609 232.113C385.609 234.331 384.052 237.028 382.131 238.137L84.5772 409.919C82.6569 411.027 81.0996 410.128 81.0996 407.911Z" fill="#200D8A"/>
<path d="M81.0996 407.911L81.1023 203.037C81.1023 200.819 82.6595 198.121 84.5799 197.013L382.121 25.2267C384.043 24.1187 385.599 25.0173 385.599 27.2346L385.609 232.113C385.609 234.331 384.052 237.028 382.131 238.137L84.5772 409.919C82.6569 411.027 81.0996 410.128 81.0996 407.911Z" fill="#17282F"/>
<path d="M233.351 350.159C230.347 351.892 227.911 356.109 227.911 359.579C227.911 363.047 230.347 364.452 233.351 362.717C236.355 360.983 238.79 356.765 238.79 353.297C238.79 349.829 236.354 348.424 233.351 350.159Z" fill="#200D8A"/>
<path d="M59.3511 321.751L59.3547 193.157L59.3527 321.749L59.3511 321.751Z" fill="#3E3F42"/>
<path d="M59.3511 430.699L59.3479 430.697L59.3511 321.751L59.3527 321.749L59.3511 430.699Z" fill="#393A3C"/>
<path d="M70.2177 436.989L59.3511 430.699L59.3527 321.749L59.3547 193.157C59.3547 191.309 60.0183 189.249 61.0615 187.428L67.3021 191.025L71.9292 193.697C71.9297 193.696 71.9307 193.695 71.9312 193.693C71.5869 194.293 71.2864 194.92 71.0369 195.556C70.7197 196.359 70.4864 197.176 70.3547 197.979C70.2713 198.468 70.2251 198.952 70.2177 199.423V436.989Z" fill="#093B33"/>
<path d="M70.3547 197.979C70.4865 197.176 70.7198 196.359 71.037 195.556C70.723 196.359 70.4902 197.177 70.3547 197.979Z" fill="#071715"/>
<path d="M61.0647 187.423L61.0586 187.419C61.4393 186.771 61.8705 186.151 62.3409 185.577C61.8715 186.149 61.4423 186.771 61.0647 187.423ZM63.2638 184.569C63.2663 184.567 63.269 184.564 63.2715 184.563C63.269 184.564 63.2663 184.567 63.2638 184.569ZM63.2757 184.557C63.6647 184.18 64.0721 183.837 64.4939 183.539C64.0731 183.837 63.6647 184.18 63.2757 184.557ZM394.084 4.14264C393.224 2.93063 392.188 1.91196 391.072 1.25995C392.188 1.90796 393.224 2.92798 394.084 4.14264ZM388.991 0.410614C387.98 0.137268 386.875 0.001297 385.756 0.001297C384.839 0.001297 383.914 0.0919342 383.023 0.274597C383.914 0.0919342 384.839 -7.62939e-05 385.756 -7.62939e-05C386.875 -7.62939e-05 387.979 0.135941 388.991 0.410614Z" fill="#A7A9A8"/>
<path d="M71.9314 193.693L67.3023 191.025L61.0647 187.423C61.4423 186.771 61.8715 186.149 62.3408 185.577C62.634 185.221 62.9423 184.883 63.2638 184.569C63.2663 184.567 63.269 184.564 63.2715 184.563C63.2731 184.56 63.2747 184.559 63.2756 184.557C63.6647 184.18 64.0731 183.837 64.4939 183.539C64.7116 183.385 64.933 183.244 65.1575 183.115L379.808 1.45203C380.755 0.905365 381.859 0.512024 383.023 0.274689C383.913 0.0920258 384.839 0.00137329 385.756 0.00137329C386.875 0.00137329 387.98 0.13736 388.991 0.41069C389.737 0.613358 390.435 0.892059 391.048 1.24539C391.056 1.25072 391.064 1.2547 391.072 1.26004C392.188 1.91203 393.224 2.93073 394.084 4.14272C395.328 5.90273 396.204 8.07072 396.421 10.1147C396.193 8.45473 395.347 7.38405 394.14 7.04539L394.139 7.04402C394.136 7.04402 394.133 7.04272 394.131 7.04272C393.901 6.97871 393.658 6.94138 393.403 6.93204C393.359 6.93071 393.315 6.92937 393.271 6.92937C392.491 6.92937 391.611 7.18269 390.679 7.71603L186.215 125.772L76.0278 189.388C75.1756 189.88 74.3663 190.56 73.6376 191.361C73.0038 192.057 72.4278 192.847 71.9314 193.693Z" fill="#1306AB"/>
<path d="M73.6377 191.361C74.3664 190.56 75.1757 189.88 76.0278 189.388L186.215 125.772L76.0273 189.393C75.1762 189.884 74.3685 190.56 73.6377 191.361ZM394.14 7.04535L394.139 7.04399L394.14 7.04535ZM394.131 7.04269C393.902 6.97868 393.658 6.94135 393.403 6.93201C393.658 6.94135 393.902 6.97868 394.131 7.04269Z" fill="#0A483E"/>
<path d="M71.9293 193.697L67.3022 191.025L71.9313 193.693C71.9308 193.695 71.9298 193.696 71.9293 193.697Z" fill="#072420"/>
<path d="M413.404 41.4386C412.645 40.9839 411.612 40.9999 410.447 41.6719L113.53 213.121C111.286 214.417 109.467 217.564 109.467 220.155L109.47 423.779C109.47 425.357 110.146 426.752 111.182 427.309C111.847 427.665 115.336 429.696 116.371 430.253C117.036 430.609 117.848 430.623 118.725 430.117L415.632 258.601C417.877 257.309 419.697 254.163 419.697 251.572V46.9599C419.697 45.6239 419.213 44.6986 418.439 44.292C417.709 43.9093 414.151 41.8866 413.404 41.4386Z" fill="#200D8A"/>
<path d="M117.383 429.844C116.249 429.844 115.327 428.444 115.327 426.723V223.099C115.327 220.765 117.034 217.808 119.055 216.64L415.968 45.192C416.496 44.8867 417.008 44.7266 417.449 44.7266C418.44 44.7266 419.031 45.5613 419.031 46.96V251.572C419.031 253.905 417.323 256.86 415.3 258.024L118.392 429.54C118.042 429.741 117.703 429.844 117.383 429.844Z" fill="#FAFAF9"/>
<path d="M417.451 44.06C416.904 44.06 416.288 44.2387 415.635 44.6147L118.721 216.063C116.478 217.359 114.66 220.508 114.66 223.099V426.723C114.66 428.772 115.797 430.511 117.384 430.511C117.804 430.511 118.255 430.389 118.725 430.117L415.632 258.601C417.877 257.309 419.697 254.163 419.697 251.572V46.96C419.697 45.1213 418.783 44.06 417.451 44.06ZM417.451 45.3933C418.244 45.3933 418.364 46.3747 418.364 46.96V251.572C418.364 253.696 416.808 256.385 414.964 257.447L118.06 428.963C117.813 429.105 117.585 429.177 117.384 429.177C116.643 429.177 115.993 428.031 115.993 426.723V223.099C115.993 220.973 117.548 218.28 119.388 217.217L416.301 45.7693C416.841 45.4586 417.224 45.3933 417.451 45.3933Z" fill="#DADBD8"/>
<path d="M111.176 427.307C111.617 427.541 114.775 429.343 116.159 430.131C115.225 429.467 114.732 428.323 114.664 426.72V236.385L109.465 233.343V423.781C109.465 425.353 110.142 426.759 111.176 427.307Z" fill="#EDEDEB"/>
<path d="M419.695 46.9293C419.679 44.3626 417.869 43.3253 415.635 44.6146L118.721 216.063C116.478 217.359 114.66 220.508 114.66 223.099L114.664 236.385L419.695 60.2599V46.9293Z" fill="#200D8A"/>
<path d="M410.447 41.6719C411.093 41.2959 411.701 41.1253 412.243 41.1253C412.675 41.1253 413.064 41.2333 413.399 41.432C413.477 41.48 413.587 41.5453 413.72 41.624C413.588 41.548 413.481 41.4839 413.404 41.4386C413.067 41.2359 412.676 41.1266 412.244 41.1266C411.701 41.1266 411.095 41.2986 410.447 41.6719Z" fill="white"/>
<path d="M111.651 214.736C112.213 214.069 112.852 213.507 113.53 213.121C112.852 213.513 112.213 214.073 111.651 214.736Z" fill="#6C7A7F"/>
<path d="M115.87 219.06L110.704 216.088C110.983 215.608 111.302 215.152 111.651 214.736C112.213 214.073 112.852 213.513 113.53 213.121L410.447 41.6719C411.095 41.2986 411.701 41.1266 412.244 41.1266C412.676 41.1266 413.067 41.2359 413.404 41.4386C413.481 41.4839 413.588 41.5479 413.72 41.6239C414.803 42.2626 417.483 43.7826 418.307 44.2293C418.183 44.1759 418.052 44.1346 417.916 44.1066C417.768 44.0746 417.612 44.0586 417.449 44.0586C416.904 44.0586 416.287 44.2386 415.633 44.6133L249.256 140.688L118.721 216.063C117.61 216.705 116.603 217.801 115.87 219.06Z" fill="#5A51C2"/>
<path d="M115.87 219.06C116.603 217.801 117.61 216.705 118.721 216.063L249.256 140.688L118.721 216.063C117.61 216.705 116.603 217.801 115.87 219.06ZM418.327 44.2399C418.265 44.2119 418.201 44.1879 418.136 44.1666C418.065 44.1426 417.991 44.1213 417.916 44.1066C418.052 44.1346 418.183 44.1759 418.307 44.2293C418.313 44.2333 418.32 44.2359 418.327 44.2399Z" fill="#E8E9E6"/>
<path d="M115.873 219.061L115.87 219.06C116.603 217.801 117.61 216.705 118.721 216.063L249.256 140.688L118.726 216.061C117.619 216.711 116.601 217.804 115.873 219.061ZM418.355 44.2546C418.284 44.2213 418.212 44.1906 418.136 44.1666C418.201 44.1879 418.265 44.212 418.327 44.24C418.336 44.2453 418.345 44.2506 418.355 44.2546Z" fill="#5A51C2"/>
<path d="M109.468 233.344L109.465 233.343L109.467 220.149C109.467 220.025 109.471 219.9 109.48 219.775C109.471 219.903 109.467 220.029 109.467 220.155L109.468 233.344Z" fill="#122026"/>
<path d="M114.66 236.383L109.468 233.344L109.467 220.155C109.467 220.029 109.471 219.903 109.48 219.775C109.56 218.561 110.021 217.256 110.704 216.088L115.862 219.075C115.119 220.353 114.66 221.796 114.66 223.099V236.383Z" fill="#2E19B1"/>
<path d="M114.664 236.385L114.66 236.383V223.099C114.66 221.796 115.119 220.353 115.862 219.075C115.119 220.353 114.66 221.796 114.66 223.099L114.664 236.385Z" fill="#B4B6B4"/>
<path d="M114.664 236.385L109.465 233.356V233.343L109.468 233.344L114.66 236.383L114.664 236.385Z" fill="#C3C5C2"/>
<path d="M114.664 236.385L114.66 223.099C114.66 221.796 115.119 220.353 115.862 219.075L115.864 219.077C115.867 219.072 115.87 219.067 115.873 219.061L115.877 219.064C115.124 220.341 114.664 221.785 114.664 223.101V236.385Z" fill="#2E19B1"/>
<path d="M115.861 219.075L110.704 216.088L115.87 219.06C115.867 219.065 115.864 219.071 115.861 219.075Z" fill="#4A56C2"/>
<path d="M115.862 219.075C115.864 219.071 115.867 219.065 115.87 219.06C115.867 219.065 115.864 219.071 115.862 219.075Z" fill="#C0C1BF"/>
<path d="M115.864 219.077L115.862 219.075C115.864 219.071 115.867 219.065 115.87 219.06L115.873 219.061C115.87 219.067 115.867 219.072 115.864 219.077Z" fill="#4A56C2"/>
<path d="M357.08 200.42L179.248 303.092C177.609 304.039 176.28 306.34 176.28 308.232V359.213C176.28 361.105 177.609 363.405 179.251 364.349L184.445 367.339C186.087 368.283 188.744 368.28 190.384 367.335L368.191 264.677C369.831 263.731 371.16 261.429 371.161 259.537L371.183 208.541C371.184 206.649 369.853 204.349 368.213 203.405L363.019 200.416C361.377 199.472 358.72 199.473 357.08 200.42Z" fill="#200D8A"/>
<path d="M177.161 305.288L177.16 305.287C177.695 304.368 178.435 303.559 179.243 303.093L221.64 278.616L179.248 303.092C178.435 303.561 177.697 304.365 177.161 305.288ZM371.159 208.06C371.153 208.023 371.148 207.985 371.141 207.948C370.908 206.192 369.686 204.253 368.214 203.405L363.019 200.416C362.199 199.945 361.127 199.709 360.055 199.709C360.049 199.709 360.044 199.709 360.039 199.709C360.048 199.709 360.059 199.709 360.068 199.709C361.135 199.709 362.2 199.943 363.017 200.412L368.212 203.4C369.72 204.264 370.967 206.279 371.159 208.06Z" fill="#FEFEFE"/>
<path d="M188.291 311.715L177.161 305.288C177.697 304.365 178.435 303.561 179.248 303.092L221.64 278.616L357.081 200.425C357.896 199.953 358.967 199.713 360.039 199.709C360.044 199.709 360.049 199.709 360.055 199.709C361.127 199.709 362.199 199.945 363.019 200.416L368.213 203.405C369.685 204.253 370.908 206.192 371.141 207.948C370.975 206.973 370.365 206.421 369.541 206.421C369.14 206.421 368.689 206.551 368.212 206.827L190.387 309.495C189.565 309.96 188.824 310.783 188.291 311.715Z" fill="#7270CE"/>
<path d="M189.88 367.572C188.235 368.272 185.932 368.189 184.452 367.339L179.257 364.351C177.612 363.405 176.283 361.103 176.283 359.211V308.233C176.283 307.275 176.625 306.219 177.159 305.287L188.291 311.715C187.741 312.647 187.412 313.689 187.412 314.635V365.625C187.412 367.325 188.481 368.107 189.88 367.572Z" fill="#17282F"/>
<path d="M190.384 309.499L368.216 206.828C369.855 205.883 371.184 206.649 371.183 208.541L371.161 259.537C371.16 261.429 369.831 263.731 368.191 264.677L190.384 367.335C188.744 368.28 187.416 367.513 187.416 365.621V314.64C187.416 312.747 188.744 310.445 190.384 309.499Z" fill="#200D8A"/>
<path d="M309.94 227.64L179.243 303.093C178.435 303.559 177.695 304.368 177.159 305.287L188.291 311.715C188.824 310.783 189.565 309.96 190.387 309.495L321.051 234.056L309.94 227.64Z" fill="#33535F"/>
<path d="M321.051 234.059L190.384 309.499C188.744 310.445 187.416 312.747 187.416 314.64V365.621C187.416 367.513 188.744 368.28 190.384 367.335L321.051 291.895V234.059Z" fill="#273E47"/>
<path d="M220.519 303.289L287.941 264.361C290.737 262.747 293.003 263.893 293.003 266.923C293.003 269.951 290.736 273.716 287.94 275.329L220.523 314.253C217.728 315.868 215.46 314.721 215.459 311.693C215.457 308.667 217.723 304.904 220.519 303.289Z" fill="#200D8A"/>
<path d="M234.335 316.172L234.532 316.208C234.588 316.275 234.616 316.373 234.616 316.509V324.103C234.616 324.868 234.554 325.593 234.428 326.284C234.304 326.972 234.118 327.612 233.866 328.201C233.616 328.791 233.303 329.312 232.93 329.771C232.554 330.227 232.12 330.597 231.628 330.881C231.127 331.171 230.691 331.301 230.32 331.277C229.947 331.251 229.636 331.087 229.388 330.788C229.138 330.488 228.952 330.061 228.83 329.516C228.71 328.969 228.648 328.313 228.648 327.548V319.956C228.648 319.819 228.676 319.688 228.732 319.556C228.787 319.425 228.852 319.337 228.93 319.295L229.774 318.807L229.971 318.84C230.027 318.908 230.055 319.008 230.055 319.143V326.643C230.055 327.149 230.094 327.559 230.17 327.872C230.244 328.188 230.352 328.417 230.491 328.565C230.631 328.716 230.798 328.785 230.991 328.779C231.186 328.771 231.399 328.699 231.628 328.568C231.856 328.436 232.07 328.26 232.268 328.041C232.466 327.821 232.634 327.559 232.774 327.248C232.912 326.94 233.02 326.584 233.102 326.18C233.182 325.776 233.22 325.321 233.22 324.815V317.316C233.22 317.179 233.248 317.048 233.303 316.916C233.359 316.785 233.426 316.697 233.503 316.653L234.335 316.172Z" fill="#FAFAF9"/>
<path d="M239.564 323.356C239.564 323.221 239.54 323.124 239.491 323.065C239.441 323.007 239.356 322.975 239.236 322.971C239.115 322.968 238.952 322.987 238.751 323.029C238.549 323.072 238.292 323.121 237.98 323.179C237.673 323.232 237.423 323.221 237.22 323.155C237.019 323.085 236.857 322.963 236.736 322.785C236.613 322.608 236.529 322.379 236.48 322.089C236.432 321.803 236.408 321.475 236.408 321.105C236.408 320.735 236.456 320.343 236.553 319.928C236.651 319.513 236.791 319.115 236.975 318.731C237.16 318.347 237.383 317.992 237.647 317.667C237.911 317.343 238.213 317.081 238.553 316.885C238.893 316.689 239.197 316.58 239.464 316.564C239.732 316.544 239.959 316.592 240.148 316.705C240.333 316.82 240.48 316.992 240.584 317.221C240.688 317.452 240.747 317.711 240.763 317.999C240.769 318.131 240.741 318.264 240.683 318.396C240.624 318.528 240.556 318.617 240.48 318.66L239.677 319.123L239.443 319.157L239.272 319.024L239.021 318.939C238.919 318.931 238.763 318.987 238.553 319.107C238.344 319.227 238.16 319.388 238.001 319.591C237.841 319.795 237.761 320.04 237.761 320.324C237.761 320.459 237.781 320.56 237.82 320.633L238.036 320.756C238.145 320.769 238.295 320.759 238.487 320.729C238.676 320.7 238.924 320.652 239.231 320.587C239.848 320.464 240.284 320.58 240.537 320.933C240.791 321.285 240.919 321.835 240.919 322.573C240.919 322.945 240.867 323.335 240.763 323.748C240.657 324.16 240.507 324.561 240.308 324.953C240.109 325.347 239.868 325.709 239.579 326.043C239.291 326.376 238.965 326.645 238.605 326.853C238.236 327.067 237.913 327.176 237.631 327.184C237.351 327.192 237.112 327.129 236.919 326.995C236.723 326.86 236.575 326.668 236.471 326.42C236.365 326.172 236.309 325.901 236.303 325.609C236.296 325.477 236.324 325.345 236.381 325.212C236.441 325.08 236.508 324.992 236.584 324.945L237.387 324.483L237.621 324.477L237.797 324.671L238.075 324.809C238.192 324.827 238.368 324.768 238.605 324.632L238.928 324.408L239.236 324.111C239.328 324 239.408 323.881 239.469 323.753C239.533 323.624 239.564 323.492 239.564 323.356Z" fill="#FAFAF9"/>
<path d="M244.833 315.479C244.632 315.597 244.461 315.749 244.319 315.936C244.176 316.124 244.056 316.328 243.959 316.551C243.86 316.773 243.787 317.001 243.735 317.236C243.683 317.469 243.649 317.683 243.635 317.876L245.99 316.517C245.976 316.34 245.949 316.163 245.911 315.977C245.875 315.796 245.811 315.648 245.724 315.529C245.638 315.415 245.521 315.345 245.38 315.323C245.237 315.3 245.055 315.352 244.833 315.479ZM242.281 319.731C242.281 319.04 242.34 318.356 242.459 317.676C242.577 316.997 242.747 316.368 242.969 315.788C243.191 315.211 243.461 314.7 243.776 314.259C244.092 313.817 244.444 313.485 244.833 313.26C245.221 313.035 245.575 312.957 245.892 313.027C246.207 313.1 246.475 313.284 246.699 313.581C246.92 313.879 247.092 314.28 247.213 314.781C247.335 315.287 247.396 315.855 247.396 316.483V317.316C247.396 317.452 247.368 317.585 247.312 317.715C247.257 317.845 247.191 317.935 247.113 317.979L243.635 319.988C243.635 320.272 243.669 320.501 243.735 320.679C243.8 320.857 243.889 320.989 244 321.072C244.111 321.156 244.24 321.193 244.385 321.183C244.532 321.173 244.681 321.123 244.833 321.035C245.055 320.908 245.236 320.764 245.375 320.603C245.515 320.443 245.628 320.275 245.719 320.099C245.796 319.957 245.858 319.852 245.907 319.787L246.104 319.619L246.937 319.136L247.14 319.165C247.199 319.232 247.225 319.335 247.217 319.473C247.212 319.651 247.158 319.904 247.058 320.233C246.958 320.563 246.805 320.915 246.603 321.292C246.403 321.668 246.155 322.033 245.859 322.388C245.565 322.743 245.221 323.033 244.833 323.256C244.444 323.481 244.092 323.564 243.776 323.508C243.461 323.449 243.191 323.261 242.969 322.945C242.747 322.631 242.577 322.2 242.459 321.657C242.34 321.115 242.281 320.472 242.281 319.731Z" fill="#FAFAF9"/>
<path d="M251.583 311.769C251.167 312.009 250.867 312.347 250.683 312.779C250.498 313.215 250.407 313.801 250.407 314.541V319.356C250.407 319.491 250.379 319.625 250.324 319.755C250.268 319.885 250.202 319.975 250.124 320.017L249.335 320.475L249.136 320.44C249.08 320.375 249.052 320.273 249.052 320.137V311.508C249.052 311.372 249.08 311.239 249.136 311.108C249.191 310.977 249.259 310.891 249.335 310.845L250.124 310.389L250.324 310.423C250.379 310.489 250.407 310.591 250.407 310.725V311.153C250.587 310.751 250.78 310.413 250.986 310.133C251.188 309.855 251.458 309.619 251.792 309.427L252.26 309.156L252.459 309.191C252.514 309.256 252.542 309.357 252.542 309.493V310.716C252.542 310.852 252.514 310.984 252.459 311.115C252.403 311.247 252.338 311.335 252.26 311.377L251.583 311.769Z" fill="#FAFAF9"/>
<path d="M261.531 311.117L261.728 311.153C261.784 311.219 261.812 311.32 261.812 311.456V312.772C261.812 312.907 261.784 313.04 261.728 313.171C261.672 313.301 261.607 313.388 261.531 313.432L256.968 316.067L256.769 316.032C256.715 315.967 256.687 315.864 256.687 315.729V303.767C256.687 303.632 256.715 303.499 256.769 303.368C256.827 303.236 256.891 303.149 256.968 303.105L257.812 302.617L258.009 302.653C258.067 302.719 258.095 302.819 258.095 302.955V313.103L261.531 311.117Z" fill="#FAFAF9"/>
<path d="M266.884 304.693C266.863 304.324 266.812 304.036 266.732 303.828C266.652 303.621 266.553 303.477 266.436 303.397C266.317 303.317 266.189 303.289 266.051 303.313C265.912 303.337 265.769 303.393 265.623 303.477C265.477 303.56 265.336 303.671 265.197 303.808C265.057 303.943 264.929 304.12 264.812 304.335C264.693 304.552 264.593 304.811 264.515 305.109C264.436 305.408 264.384 305.756 264.363 306.149C264.356 306.253 264.351 306.38 264.348 306.529C264.344 306.679 264.341 306.835 264.341 306.996C264.341 307.156 264.344 307.311 264.348 307.464C264.351 307.616 264.356 307.735 264.363 307.817C264.384 308.187 264.436 308.476 264.515 308.681C264.593 308.889 264.693 309.032 264.812 309.112C264.929 309.193 265.057 309.221 265.197 309.196C265.336 309.172 265.477 309.116 265.623 309.032C265.769 308.948 265.912 308.84 266.051 308.703C266.189 308.567 266.317 308.392 266.436 308.176C266.553 307.959 266.652 307.7 266.732 307.403C266.812 307.103 266.863 306.756 266.884 306.36C266.891 306.272 266.895 306.149 266.895 305.995C266.895 305.839 266.895 305.68 266.895 305.52C266.895 305.361 266.895 305.207 266.895 305.06C266.895 304.909 266.891 304.789 266.884 304.693ZM265.623 301.256C266.005 301.036 266.351 300.941 266.66 300.972C266.969 301.004 267.237 301.139 267.463 301.38C267.688 301.619 267.869 301.945 268.003 302.363C268.139 302.779 268.217 303.264 268.239 303.82C268.244 303.927 268.248 304.067 268.248 304.24C268.248 304.412 268.248 304.585 268.248 304.757C268.248 304.931 268.248 305.1 268.248 305.268C268.248 305.435 268.244 305.575 268.239 305.691C268.211 306.273 268.131 306.851 267.999 307.421C267.865 307.991 267.688 308.524 267.463 309.017C267.237 309.512 266.969 309.953 266.66 310.341C266.351 310.729 266.005 311.033 265.623 311.255C265.241 311.473 264.896 311.571 264.587 311.539C264.279 311.507 264.011 311.375 263.785 311.139C263.56 310.907 263.38 310.58 263.249 310.163C263.117 309.747 263.036 309.26 263.008 308.708C263.001 308.601 262.997 308.465 262.993 308.301C262.991 308.136 262.988 307.969 262.988 307.796C262.988 307.621 262.991 307.448 262.993 307.273C262.997 307.1 263.001 306.955 263.008 306.84C263.029 306.259 263.108 305.684 263.243 305.111C263.379 304.539 263.56 304.001 263.785 303.501C264.011 303 264.279 302.557 264.587 302.169C264.896 301.78 265.241 301.477 265.623 301.256Z" fill="#FAFAF9"/>
<path d="M271.071 302.591C271.049 302.949 271.049 303.296 271.071 303.631C271.112 304.407 271.251 304.904 271.488 305.119C271.723 305.335 272.012 305.343 272.352 305.148C272.692 304.951 272.979 304.608 273.211 304.115C273.444 303.623 273.577 303.033 273.612 302.347C273.627 302.153 273.633 301.915 273.633 301.631C273.633 301.347 273.627 301.116 273.612 300.94C273.577 300.317 273.444 299.888 273.211 299.652C272.979 299.416 272.692 299.396 272.352 299.593C272.012 299.788 271.723 300.132 271.488 300.621C271.251 301.108 271.112 301.767 271.071 302.591ZM272.32 309.053C272.467 308.971 272.615 308.844 272.769 308.675C272.921 308.507 273.06 308.301 273.184 308.055C273.311 307.812 273.412 307.533 273.492 307.221C273.573 306.909 273.612 306.575 273.612 306.216V305.531C273.556 305.673 273.484 305.836 273.393 306.019C273.303 306.2 273.193 306.385 273.065 306.569C272.936 306.755 272.787 306.933 272.619 307.105C272.448 307.279 272.253 307.427 272.04 307.549C271.692 307.749 271.377 307.812 271.097 307.735C270.815 307.656 270.576 307.472 270.379 307.185C270.18 306.899 270.024 306.527 269.909 306.068C269.795 305.608 269.731 305.1 269.716 304.54C269.709 304.357 269.707 304.145 269.707 303.897C269.707 303.651 269.709 303.435 269.716 303.244C269.731 302.668 269.795 302.085 269.909 301.493C270.024 300.903 270.18 300.351 270.379 299.835C270.576 299.32 270.815 298.859 271.097 298.456C271.377 298.053 271.692 297.753 272.04 297.552C272.253 297.428 272.448 297.352 272.619 297.329C272.787 297.305 272.936 297.312 273.065 297.348C273.193 297.384 273.303 297.443 273.393 297.521L273.612 297.755V297.328C273.612 297.192 273.639 297.06 273.696 296.929C273.751 296.797 273.816 296.711 273.893 296.667L274.685 296.209L274.883 296.244C274.939 296.309 274.967 296.411 274.967 296.547V305.231C274.967 306.724 274.732 307.985 274.264 309.016C273.795 310.047 273.147 310.8 272.32 311.276C271.965 311.481 271.637 311.587 271.336 311.596C271.035 311.603 270.772 311.532 270.549 311.384C270.328 311.233 270.151 311.02 270.019 310.745C269.887 310.469 269.813 310.149 269.8 309.788C269.792 309.656 269.819 309.524 269.88 309.391C269.936 309.257 270.005 309.169 270.081 309.125L270.789 308.717L271.039 308.748L271.216 308.971C271.307 309.129 271.429 309.231 271.585 309.275C271.743 309.321 271.988 309.247 272.32 309.053Z" fill="#FAFAF9"/>
<path d="M278.279 303.263C278.279 303.4 278.251 303.533 278.195 303.663C278.14 303.793 278.073 303.881 277.996 303.925L277.207 304.383L277.009 304.348C276.952 304.283 276.924 304.181 276.924 304.045V295.416C276.924 295.28 276.952 295.145 277.009 295.017C277.064 294.885 277.131 294.799 277.207 294.753L277.996 294.297L278.195 294.332C278.251 294.396 278.279 294.497 278.279 294.635V303.263ZM278.048 290.749L278.247 290.781C278.303 290.849 278.331 290.951 278.331 291.085V292.529C278.331 292.667 278.303 292.8 278.247 292.931C278.192 293.061 278.125 293.148 278.048 293.193L277.155 293.711L276.956 293.676C276.9 293.609 276.872 293.508 276.872 293.372V291.928C276.872 291.793 276.9 291.659 276.956 291.527C277.012 291.397 277.079 291.309 277.155 291.267L278.048 290.749Z" fill="#FAFAF9"/>
<path d="M285.319 299.199C285.319 299.335 285.291 299.468 285.237 299.599C285.181 299.729 285.115 299.816 285.039 299.86L284.247 300.319L284.048 300.283C283.992 300.219 283.965 300.116 283.965 299.981V295.277C283.965 294.537 283.869 294 283.673 293.668C283.48 293.336 283.181 293.285 282.777 293.519C282.409 293.729 282.121 294.12 281.908 294.687C281.696 295.252 281.591 295.908 281.591 296.648V301.352C281.591 301.487 281.563 301.621 281.508 301.751C281.452 301.881 281.385 301.969 281.309 302.013L280.519 302.471L280.32 302.436C280.264 302.371 280.236 302.269 280.236 302.133V293.503C280.236 293.368 280.264 293.235 280.32 293.105C280.376 292.973 280.441 292.885 280.519 292.84L281.309 292.385L281.508 292.419C281.563 292.485 281.591 292.587 281.591 292.721V293.148C281.771 292.723 281.983 292.336 282.227 291.985C282.468 291.635 282.757 291.364 283.092 291.172C283.515 290.927 283.869 290.839 284.153 290.909C284.437 290.98 284.667 291.163 284.84 291.456C285.013 291.751 285.136 292.141 285.211 292.623C285.283 293.107 285.319 293.637 285.319 294.217V299.199Z" fill="#FAFAF9"/>
<path d="M352.58 260.392L339.629 267.869L341.635 249.704C340.087 248.885 339.1 246.871 339.1 243.976C339.1 238.817 342.236 232.825 346.105 230.591C349.973 228.357 353.111 230.729 353.111 235.887C353.111 238.781 352.123 241.937 350.575 244.544L352.58 260.392Z" fill="#33535F"/>
<path d="M352.58 260.392L341.183 253.812L339.629 267.869L352.58 260.392Z" fill="#273E47"/>
<path d="M346.106 230.591C343.575 232.052 341.363 235.125 340.131 238.519L350.575 244.548V244.544C352.124 241.937 353.111 238.781 353.111 235.887C353.111 230.729 349.974 228.357 346.106 230.591Z" fill="#273E47"/>
<path d="M283.143 170.128C278.714 167.564 272.592 167.928 265.828 171.833C252.31 179.639 241.351 198.623 241.354 214.232C241.354 222.065 244.116 227.557 248.575 230.101C249.736 230.764 256.031 234.427 257.2 235.103C261.63 237.664 267.747 237.299 274.507 233.395C288.024 225.589 298.982 206.607 298.982 190.996C298.982 183.193 296.243 177.716 291.817 175.157L283.143 170.128Z" fill="#200D8A"/>
<path d="M274.503 176.863C260.987 184.672 250.027 203.652 250.028 219.261C250.029 234.872 260.989 241.2 274.507 233.395C288.024 225.589 298.995 206.607 298.981 190.996C298.968 175.387 288.009 169.059 274.503 176.863Z" fill="#200D8A"/>
<path d="M288.019 211.497V213.279C284.533 219.228 279.763 224.408 274.505 227.436C269.237 230.473 264.476 230.805 260.991 228.868V225.177C260.991 218.051 265.829 209.667 272.003 206.093L275.556 204.049C278.711 202.228 281.768 201.995 284.173 203.387C286.627 204.799 288.019 207.749 288.019 211.497Z" fill="#200D8A"/>
<path d="M288.455 175.157H291.817V173.208H288.455V175.157Z" fill="#FCFDFC"/>
<path d="M253.597 202.495L244.924 197.464C249.223 186.852 256.973 176.945 265.829 171.832C269.757 169.567 273.468 168.493 276.756 168.493C279.131 168.493 281.284 169.053 283.141 170.129L288.455 173.208L291.725 175.104C289.887 174.063 287.763 173.52 285.424 173.52C282.137 173.52 278.429 174.593 274.505 176.861C274.337 176.959 274.169 177.057 274.003 177.157C273.999 177.16 273.993 177.163 273.988 177.167H273.987C265.349 182.364 257.812 192.089 253.597 202.495Z" fill="#5A51C2"/>
<path d="M253.6 202.496L253.597 202.495C257.812 192.089 265.349 182.364 273.987 177.167C265.352 182.365 257.815 192.092 253.6 202.496ZM273.988 177.167C273.993 177.163 273.999 177.16 274.003 177.157C273.997 177.16 273.993 177.163 273.988 177.167Z" fill="#5A51C2"/>
<path d="M255.292 233.996C254.516 233.545 253.591 233.007 252.675 232.475C253.585 233.004 254.508 233.54 255.292 233.996ZM245.944 228.057C243.055 225.088 241.352 220.381 241.352 214.233H241.353C241.355 220.381 243.056 225.087 245.944 228.057Z" fill="#BFC0BE"/>
<path d="M256.84 234.892C256.491 234.691 255.944 234.373 255.292 233.996C254.508 233.54 253.586 233.004 252.675 232.475C250.882 231.433 249.122 230.412 248.574 230.1C247.615 229.553 246.735 228.871 245.944 228.057C243.056 225.087 241.355 220.381 241.354 214.233L250.028 219.267C250.028 219.847 250.044 220.415 250.074 220.969C250.436 227.665 252.946 232.452 256.84 234.892Z" fill="#1424B0"/>
<path d="M256.875 234.912C256.863 234.907 256.851 234.9 256.84 234.892C252.945 232.452 250.436 227.665 250.073 220.969C250.44 227.683 252.963 232.48 256.875 234.912Z" fill="#1424B0"/>
<path d="M241.353 214.233H241.352C241.352 213.215 241.4 212.181 241.491 211.139C241.4 212.181 241.353 213.213 241.353 214.232C241.353 214.233 241.353 214.233 241.353 214.233ZM241.493 211.112C241.493 211.107 241.493 211.1 241.495 211.095C241.493 211.1 241.493 211.107 241.493 211.112Z" fill="#DBDCD9"/>
<path d="M250.028 219.267L241.354 214.233C241.354 214.233 241.354 214.233 241.354 214.232C241.354 213.213 241.4 212.181 241.491 211.139C241.491 211.129 241.492 211.121 241.494 211.112C241.494 211.107 241.494 211.1 241.495 211.095C241.89 206.632 243.095 201.981 244.924 197.464L253.598 202.495C251.998 206.445 250.876 210.493 250.356 214.428C250.355 214.439 250.355 214.448 250.354 214.457C250.352 214.463 250.352 214.468 250.351 214.473C250.139 216.093 250.028 217.695 250.028 219.261V219.267Z" fill="#291DB3"/>
<path d="M250.351 214.473C250.352 214.468 250.352 214.463 250.353 214.457C250.352 214.463 250.352 214.468 250.351 214.473ZM250.356 214.428C250.876 210.493 251.997 206.445 253.597 202.495L253.6 202.496C251.997 206.447 250.878 210.495 250.356 214.428Z" fill="#291DB3"/>
<path d="M271.428 203.217C270.58 203.217 269.789 203.013 269.073 202.603C267.424 201.651 266.516 199.763 266.516 197.292C266.516 192.769 269.585 187.451 273.507 185.187V185.183C275.639 183.947 277.721 183.793 279.383 184.747C281.032 185.699 281.94 187.585 281.94 190.056C281.94 194.58 278.871 199.899 274.953 202.163C273.737 202.863 272.539 203.217 271.428 203.217Z" fill="white"/>
<path d="M284.173 203.387C281.768 201.995 278.711 202.228 275.556 204.049L272.003 206.093C265.829 209.667 260.991 218.051 260.991 225.177V228.868C264.476 230.805 269.237 230.473 274.505 227.436C279.763 224.408 284.533 219.228 288.019 213.279V211.497C288.019 207.749 286.627 204.799 284.173 203.387Z" fill="white"/>
<path d="M558.287 434.053C558.287 434.053 560.057 418.481 567.803 406.396C575.549 394.311 586.192 386.768 596.124 385.981C606.053 385.196 614.075 394.333 603.449 400.607C592.823 406.883 573.945 413.284 565.257 436.752L558.287 434.053Z" fill="#200D8A"/>
<path d="M565.257 436.752L564.536 436.472C564.813 427.311 565.14 417.377 565.443 410.516C566.16 409.116 566.944 407.735 567.803 406.396C575.549 394.311 586.192 386.768 596.124 385.981C596.527 385.949 596.928 385.935 597.323 385.935C603.405 385.935 608.479 389.595 608.479 393.811C608.48 396.077 607.013 398.503 603.449 400.607C592.823 406.883 573.945 413.284 565.257 436.752Z" fill="#291DB3"/>
<path d="M561.197 430.009L561.093 429.979C560.821 429.868 560.689 429.559 560.801 429.288C571.281 403.479 591.232 392.701 600.317 390.609C600.601 390.541 600.887 390.721 600.955 391.007C601.02 391.293 600.841 391.577 600.556 391.643C591.656 393.692 572.099 404.283 561.784 429.687C561.688 429.924 561.44 430.053 561.197 430.009Z" fill="white"/>
<path d="M614.246 430.315C613.347 432.341 611.134 433.397 609.075 434.227C607.026 435.049 604.782 435.947 603.67 437.863C601.427 441.735 605.107 447.179 602.702 450.948C601.691 452.528 599.814 453.361 597.967 453.693C596.432 453.98 594.871 453.977 593.315 454.108C592.567 454.093 591.826 454.039 591.103 453.937C588.968 453.627 586.652 453.527 584.696 454.619C581.62 456.349 580.675 460.235 578.806 463.231C576.566 466.817 572.604 469.165 568.442 469.732C567.058 469.915 564.486 470.164 563.076 469.379L562.787 469.193L562.76 469.168C562.568 468.949 562.324 468.672 562.22 468.521L562.166 468.429C561.62 466.421 562.511 464.332 562.546 462.259C562.55 462.128 562.551 462.007 562.543 461.883C562.458 459.472 562.39 457.076 562.334 454.671C562.222 450.247 562.171 445.812 562.2 441.384C562.232 438.507 561.886 435.359 563.102 432.649C564.451 429.669 567.8 429.604 569.068 426.68C569.575 425.516 569.844 424.267 570.335 423.088C571.799 419.632 575.351 417.147 579.108 416.964C584.958 416.665 590.207 421.403 596.05 420.972C597.563 420.853 599.038 420.393 600.528 420.119C605.267 419.232 610.743 420.58 613.408 424.589C614.522 426.265 615.06 428.475 614.246 430.315Z" fill="#200D8A"/>
<path d="M561.687 459.215L561.646 459.205C561.382 459.135 561.222 458.861 561.294 458.595C569.376 428.269 601.328 423.885 608.803 424.427C609.075 424.448 609.284 424.685 609.266 424.96C609.246 425.235 609.007 425.441 608.732 425.421C601.419 424.893 570.167 429.181 562.256 458.853C562.19 459.107 561.939 459.261 561.687 459.215Z" fill="white"/>
<path d="M597.188 443.848L596.923 443.708C596.844 443.628 588.695 435.593 575.18 437.583C574.908 437.62 574.652 437.436 574.612 437.163C574.572 436.889 574.761 436.636 575.033 436.596C589.071 434.532 597.548 442.921 597.632 443.007C597.827 443.203 597.824 443.517 597.629 443.712C597.509 443.831 597.343 443.876 597.188 443.848Z" fill="white"/>
<path d="M484.901 67.8639L489.144 69.4959V60.1479C489.144 52.7373 495.055 50.9613 501.472 54.6653C507.889 58.3706 513.092 67.3813 513.092 74.7919V76.1493C514.548 75.5693 516.428 75.7946 518.484 76.9813C523.103 79.6479 526.847 86.1319 526.847 91.4639V92.0813L532.763 95.4959C535.804 97.2533 538.269 101.523 538.269 105.035C538.269 108.545 535.804 109.969 532.763 108.213L484.901 80.5813C481.859 78.8239 479.395 74.5546 479.395 71.0426C479.395 67.5319 481.859 66.1079 484.901 67.8639Z" fill="#E2E2E0"/>
<path d="M541.688 60.4744L549.381 64.9157C549.343 64.5717 549.316 64.2304 549.316 63.8971V61.6691C549.316 57.7024 552.1 56.0958 555.535 58.0784C556.925 58.8811 558.205 60.1544 559.241 61.6424C559.803 56.6558 563.716 54.7984 568.468 57.5424C573.607 60.5078 577.772 67.7224 577.772 73.6558V76.9904C577.772 78.5264 577.488 79.8211 576.984 80.8517L583.373 84.5411C585.279 85.6411 586.823 88.3157 586.823 90.5157C586.823 92.7144 585.279 93.6078 583.373 92.5064L541.688 68.4411C539.784 67.3411 538.24 64.6651 538.24 62.4664C538.24 60.2664 539.784 59.3744 541.688 60.4744Z" fill="#E2E2E0"/>
<path d="M511.905 262.832C506.304 272.3 500.916 280.525 497.133 284.468C489.951 287.809 473.073 292.944 466.469 293.804C465.299 293.957 464.123 293.659 463.156 293.024C460.56 291.323 458.552 291.047 455.815 290.1C453.671 289.357 452.763 288.335 452.36 288.724C451.844 289.224 451.28 290.647 452.584 292.119C453.24 292.86 454.436 293.668 455.976 294.657C455.976 294.657 451.253 295.916 447.036 294.809C441.321 293.309 438.623 296.057 442.488 302.264C443.872 304.487 449.321 308.045 460.367 307.084C463.549 306.808 468.141 306.541 472.103 305.696C482.696 303.436 494.472 301.245 501.713 299.081C503.54 298.536 506.803 296.423 508.745 294.208C520.924 280.327 524.957 270.436 530.297 261.445L529.835 246.756C521.205 246.489 516.589 254.909 511.905 262.832Z" fill="#F6879F"/>
<path d="M531.325 246.489C531.325 246.489 523.789 244.887 518.124 252.135C512.195 259.72 501.715 277.937 501.715 277.937C501.715 277.937 505.154 287.072 514.406 288.573L529.268 268.497C529.268 268.497 536.307 254.599 531.325 246.489Z" fill="#33535F"/>
<path d="M563.463 468.515H553.773V451.237H563.463V468.515Z" fill="#F6879F"/>
<path d="M529.865 450.316L520.183 450.663L519.696 432.379L529.865 432.032V450.316Z" fill="#F6879F"/>
<path d="M564.827 301.652C564.827 311.289 563.408 388.849 563.408 388.849C563.633 391.623 566.129 396.735 565.589 407.385C564.855 421.855 563.877 459.876 563.877 459.876C563.877 459.876 559.173 462.739 553.088 460.099C553.088 460.099 545.233 406.817 543.496 392.479C541.98 379.965 538.1 338.452 538.1 338.452L532.848 387.441C532.848 387.441 534.633 394.904 534.048 403.48C533.595 410.112 530.479 444.652 530.479 444.652C530.479 444.652 525.917 447.876 519.292 445.544C519.292 445.544 513.78 393.525 513.667 387.44C513.539 380.503 516.889 301.549 516.889 301.549L564.827 301.652Z" fill="#273E47"/>
<path d="M553.773 463.533V462.089C552.845 462.511 550.691 471.071 546.847 474.723C543.791 477.627 539.621 480.98 538.56 484.217C537.457 487.584 544.367 489.443 547.223 488.916C550.54 488.304 556.291 485.87 557.735 483.615C559.179 481.36 559.855 478.032 561.027 476.379C562.2 474.725 564.905 472.88 565.539 470.967C565.887 469.916 565.473 467.613 564.984 465.668C564.535 463.884 564.048 461.921 563.463 462.089C563.461 462.307 563.463 463.189 563.463 463.189C562.759 464.001 560.812 464.807 558.619 464.896C557.2 464.952 553.761 464.66 553.773 463.533Z" fill="#17282F"/>
<path d="M520.079 447.551C519.576 447.568 519.167 448.308 518.056 449.559C516.715 451.071 514.522 452.701 512.356 453.831C508.728 455.721 501.674 458.633 498.482 460.131C496.487 461.067 496.58 463.576 498.642 465.003C500.703 466.432 505.682 467.46 511.658 466.068C514.914 465.309 519.152 462.177 521.835 462.347C524.519 462.516 529.538 462.475 531.519 461.053C533.499 459.632 532.706 456.596 532.146 453.987C531.535 451.139 530.771 446.699 529.866 446.893V447.876C528.702 449.713 522.69 450.46 520.131 449.108L520.079 447.551Z" fill="#17282F"/>
<path d="M538.1 338.452C538.1 338.452 530.355 336.18 524.607 330.395C524.607 330.395 527.211 335.472 534.954 340.197L533.298 383.944L538.1 338.452Z" fill="#17282F"/>
<path d="M559.402 247.935C559.402 247.935 567.368 249.777 566.83 264.224L565.155 287.235L565.2 321.768C558.075 329.841 526.486 329.251 515.671 321.121C515.671 321.121 516.896 280.255 517.627 264.529C518.146 253.349 520.718 247.721 531.706 246.489L545.218 247.084L559.402 247.935Z" fill="#200D8A"/>
<path d="M549.222 217.903C549.222 226.201 542.762 232.928 534.796 232.928C526.828 232.928 522.112 226.016 520.368 217.903C517.18 203.064 526.828 202.877 534.796 202.877C542.762 202.877 549.222 209.605 549.222 217.903Z" fill="#17282F"/>
<path d="M556.58 223.981C556.58 223.981 554.368 234.808 553.482 236.587C552.594 238.367 550.76 238.872 550.76 238.872L550.915 231.255L556.58 223.981Z" fill="#17282F"/>
<path d="M553.804 208.471C553.804 208.471 555.391 208.073 557.076 210.707C558.521 212.964 558.849 218.035 556.58 223.981L552.412 224.48L553.804 208.471Z" fill="#17282F"/>
<path d="M555.339 210.663L560.448 210.757C560.574 209.292 559.53 208.081 558.12 208.056C556.708 208.029 555.464 209.196 555.339 210.663Z" fill="#17282F"/>
<path d="M555.964 209.452L559.749 205.809C558.815 204.727 557.209 204.664 556.164 205.669C555.119 206.675 555.028 208.368 555.964 209.452Z" fill="#17282F"/>
<path d="M551.163 224.483C551.999 225.003 553.191 223.331 554.223 222.208C555.252 221.084 558.489 220.024 560.168 223.707C561.877 227.461 558.985 231.031 556.58 232.225C552.281 234.363 550.915 231.255 550.915 231.255L550.567 248.405C544.507 257.779 530.78 257.441 535.715 247.952L535.728 242.732C535.728 242.732 531.592 243.387 529.575 243.061C526.217 242.521 524.105 239.761 523.087 235.977C521.452 229.899 520.831 224.991 522.217 213.035C523.74 199.931 538.372 199.795 546.275 204.975C554.177 210.155 551.163 224.483 551.163 224.483Z" fill="#F6879F"/>
<path d="M532.922 210.988C536.418 210.639 539.874 209.927 543.378 209.668C544.135 209.613 544.91 209.58 545.644 209.779C548.328 210.503 547.982 213.624 548.408 215.803C549.142 219.557 549.751 225.919 551.163 225.948C551.583 225.956 553.183 223.193 554.223 222.208C554.896 221.569 555.011 220.192 555.156 219.34C555.422 217.785 555.567 216.208 555.687 214.636C555.787 213.304 555.92 211.949 555.915 210.613C555.91 209.116 555.938 207.589 555.566 206.127C555.227 204.797 554.604 203.803 553.695 202.767L553.428 202.469C551.704 200.611 549.506 199.219 547.171 198.255C543.82 196.873 540.188 196.323 536.584 195.953C532.979 195.584 529.346 195.384 525.795 194.655C525.587 194.612 525.367 194.568 525.17 194.644C524.86 194.763 524.726 195.121 524.664 195.445C524.351 197.092 525.091 198.891 526.472 199.839C524.058 200.031 521.283 198.772 518.955 198.141C518.563 198.036 518.119 197.936 517.77 198.145C517.53 198.291 517.388 198.556 517.303 198.824C517.106 199.443 517.15 200.111 517.238 200.755C517.498 202.659 518.146 204.537 519.319 206.057C521.007 208.247 523.786 210.22 526.524 210.768C528.69 211.203 530.711 211.208 532.922 210.988Z" fill="#17282F"/>
<path d="M535.728 242.732C535.728 242.732 543.221 241.16 545.841 239.709C547.595 238.739 549.039 237.056 549.464 235.977C549.464 235.977 548.972 238.293 547.407 240.38C545.489 242.931 535.728 244.809 535.728 244.809V242.732Z" fill="#F47089"/>
<path d="M537.528 222.532C537.528 223.429 538.201 224.155 539.029 224.152C539.86 224.151 540.532 223.42 540.532 222.524C540.532 221.625 539.86 220.9 539.029 220.903C538.201 220.905 537.528 221.635 537.528 222.532Z" fill="#17282F"/>
<path d="M539.94 216.056L543.153 217.903C543.627 216.941 543.292 215.749 542.406 215.239C541.518 214.729 540.414 215.095 539.94 216.056Z" fill="#17282F"/>
<path d="M536.407 233.336L532.978 234.676C533.318 235.7 534.36 236.229 535.307 235.859C536.254 235.489 536.746 234.36 536.407 233.336Z" fill="#F47089"/>
<path d="M523.752 217.433L526.683 215.083C526.084 214.209 524.944 214.027 524.135 214.676C523.327 215.325 523.155 216.559 523.752 217.433Z" fill="#17282F"/>
<path d="M525.039 222.087C525.039 222.984 525.712 223.709 526.541 223.707C527.371 223.705 528.043 222.976 528.043 222.079C528.043 221.18 527.371 220.455 526.541 220.457C525.712 220.46 525.039 221.189 525.039 222.087Z" fill="#17282F"/>
<path d="M533.076 220.831L532.901 230.316L527.519 229.081L533.076 220.831Z" fill="#F47089"/>
<path d="M405.166 300.224L413.519 295.403L416.828 291.393L408.476 296.216L405.166 300.224Z" fill="#200D8A"/>
<path d="M405.167 300.223L406.341 298.8L408.476 296.216L408.479 296.213L410.264 297.281L405.167 300.223Z" fill="#0B0891"/>
<path d="M427.896 313.347L436.247 308.525L443.228 302.347L434.876 307.168L427.896 313.347Z" fill="#200D8A"/>
<path d="M427.896 313.347L427.897 313.345H427.899L427.896 313.347ZM427.911 313.339L433.353 308.516L434.876 307.168L434.879 307.167L436.636 308.181L436.247 308.525L427.911 313.339Z" fill="#0B0891"/>
<path d="M518.328 330.261C515.518 311.127 505.239 292.196 492.983 285.124C487.103 281.724 481.662 281.601 477.302 284.151C476.027 284.891 471.299 287.619 469.435 288.688C469.284 288.771 469.132 288.852 468.996 288.948C468.654 289.14 468.31 289.36 467.982 289.592C467.351 290.031 466.747 290.524 466.172 291.087L465.911 291.333C465.666 291.58 465.417 291.855 465.184 292.128C464.897 292.457 464.61 292.8 464.35 293.156C463.8 293.883 463.28 294.664 462.814 295.513C462.58 295.925 462.348 296.364 462.128 296.816L393.442 257.161L385.094 261.972V267.291L385.806 267.701L386.464 268.085V269.209L385.094 270.004V273.103L395.183 294.459L405.162 300.229L408.478 296.213L417.279 301.476L422.336 310.14L427.902 313.347L434.878 307.165L443.446 312.113L446.324 323.984L460.676 332.263C461.403 335.305 462.32 338.28 463.389 341.187C463.485 341.488 463.595 341.789 463.719 342.119C468.488 354.66 476.082 365.393 484.635 370.341C485.734 370.972 486.801 371.493 487.856 371.891C488.46 372.137 489.064 372.329 489.652 372.495C490.188 372.645 490.721 372.768 491.256 372.851C493.024 373.165 494.739 373.152 496.343 372.837C496.575 372.781 496.808 372.727 497.04 372.672C497.37 372.604 497.699 372.508 498.015 372.385C498.26 372.288 498.508 372.193 498.753 372.097C499.015 372 499.275 371.877 499.521 371.74C499.768 371.631 500.002 371.507 500.235 371.371C500.358 371.301 500.481 371.233 500.591 371.164L500.755 371.068C502.661 369.972 507.362 367.257 508.638 366.532C514.983 362.859 519.096 353.551 519.096 340.392C519.096 337.047 518.836 333.648 518.328 330.261ZM498.911 330.009C500.743 332.339 502.077 335.76 502.363 339.099C500.532 336.769 499.198 333.348 498.911 330.009Z" fill="#200D8A"/>
<path d="M509.98 335.073C507.171 315.952 496.891 297.021 484.635 289.948C478.962 286.672 473.711 286.425 469.435 288.688C469.284 288.771 469.132 288.852 468.996 288.948C468.654 289.14 468.31 289.36 467.982 289.592C467.351 290.031 466.747 290.524 466.172 291.087L465.911 291.333C465.666 291.58 465.417 291.855 465.184 292.128C464.897 292.457 464.61 292.8 464.35 293.156C463.8 293.883 463.28 294.664 462.814 295.513C462.58 295.925 462.348 296.364 462.128 296.816C460.991 299.147 460.086 301.86 459.483 304.931L385.094 261.972V267.291L385.806 267.701L386.464 268.085V269.209L385.094 270.004V273.103L395.183 294.459L405.162 300.229L408.478 296.213L417.279 301.476L422.336 310.14L427.902 313.347L434.878 307.165L443.446 312.113L446.324 323.984L460.676 332.263C461.403 335.305 462.32 338.28 463.389 341.187C463.485 341.488 463.595 341.789 463.719 342.119C468.488 354.66 476.082 365.393 484.635 370.341C485.734 370.972 486.801 371.493 487.856 371.891C488.46 372.137 489.064 372.329 489.652 372.495C490.188 372.645 490.721 372.768 491.256 372.851C493.024 373.165 494.739 373.152 496.343 372.837C496.575 372.781 496.808 372.727 497.04 372.672C497.37 372.604 497.699 372.508 498.015 372.385C498.26 372.288 498.508 372.193 498.753 372.097C499.015 372 499.275 371.877 499.521 371.74C499.768 371.631 500.002 371.507 500.235 371.371C500.358 371.301 500.481 371.233 500.591 371.164L500.755 371.068C506.841 367.231 510.748 358.06 510.748 345.217C510.748 341.872 510.474 338.472 509.98 335.073ZM496.462 346.151C493.167 344.248 490.495 338.593 490.495 333.52C490.495 328.447 493.167 325.876 496.462 327.779C499.756 329.681 502.428 335.336 502.428 340.411C502.428 345.483 499.756 348.053 496.462 346.151Z" fill="#200D8A"/>
<path d="M498.556 346.777C497.906 346.777 497.2 346.575 496.466 346.149C495.555 345.624 494.694 344.816 493.922 343.815C491.898 341.176 490.495 337.196 490.495 333.52C490.495 330.567 491.4 328.461 492.807 327.593C493.276 327.304 493.8 327.153 494.366 327.153C495.019 327.153 495.726 327.355 496.466 327.781C496.554 327.832 496.643 327.887 496.731 327.943C497.176 328.231 497.608 328.587 498.023 328.999C498.331 329.307 498.626 329.647 498.906 330.016C499.192 333.347 500.536 336.773 502.359 339.103C502.383 339.295 502.399 339.487 502.41 339.676C502.422 339.921 502.428 340.165 502.428 340.408C502.428 344.344 500.816 346.777 498.556 346.777Z" fill="#0B0891"/>
<path d="M493.921 343.815C491.892 341.177 490.488 337.2 490.488 333.524C490.488 330.569 491.396 328.461 492.807 327.593C491.4 328.461 490.495 330.567 490.495 333.52C490.495 337.196 491.897 341.176 493.921 343.815ZM502.428 340.408C502.428 340.165 502.421 339.921 502.409 339.676C502.424 339.923 502.428 340.167 502.428 340.405C502.428 340.407 502.428 340.407 502.428 340.408ZM498.023 328.999C497.608 328.587 497.176 328.231 496.731 327.943C497.177 328.231 497.611 328.585 498.023 328.999Z" fill="#0B0891"/>
<path d="M492.879 285.063C492.871 285.059 492.863 285.055 492.856 285.051C492.863 285.055 492.871 285.059 492.879 285.063ZM492.744 284.987C489.621 283.225 486.624 282.389 483.852 282.387C486.624 282.389 489.62 283.225 492.744 284.987ZM477.332 284.133C477.34 284.128 477.348 284.124 477.355 284.119C477.348 284.124 477.34 284.128 477.332 284.133ZM483.839 282.387C483.84 282.387 483.843 282.387 483.843 282.387C483.843 282.387 483.84 282.387 483.839 282.387Z" fill="#F4F4F2"/>
<path d="M510.731 343.743C510.663 340.875 510.401 337.975 509.98 335.073C507.171 315.952 496.891 297.021 484.635 289.948C481.409 288.087 478.32 287.203 475.469 287.203C473.307 287.203 471.28 287.712 469.435 288.688C471.299 287.619 476.027 284.891 477.301 284.151C477.312 284.144 477.321 284.139 477.332 284.133C477.34 284.128 477.348 284.124 477.355 284.119C479.317 282.984 481.499 282.388 483.839 282.387C483.84 282.387 483.843 282.387 483.843 282.387C483.847 282.387 483.849 282.387 483.852 282.387C486.624 282.389 489.621 283.225 492.744 284.987C492.781 285.008 492.819 285.029 492.856 285.051C492.863 285.055 492.871 285.059 492.879 285.063C492.913 285.083 492.948 285.104 492.983 285.124C505.239 292.196 515.517 311.127 518.328 330.261C518.836 333.648 519.096 337.047 519.096 340.392C519.096 339.907 519.077 339.417 519.068 338.929C516.205 340.581 513.308 342.253 510.731 343.743Z" fill="#5A51C2"/>
<path d="M510.748 345.217C510.748 358.06 506.842 367.231 500.755 371.068C502.662 369.972 507.362 367.257 508.638 366.532C514.983 362.859 519.096 353.551 519.096 340.392C519.096 339.907 519.078 339.417 519.068 338.929C516.2 340.584 513.299 342.259 510.719 343.749C510.731 344.239 510.748 344.729 510.748 345.217Z" fill="#200D8A"/>
<path d="M500.755 371.068C506.842 367.231 510.748 358.06 510.748 345.217C510.748 344.729 510.731 344.239 510.719 343.749C513.299 342.259 516.2 340.584 519.068 338.929C519.078 339.417 519.096 339.907 519.096 340.392C519.096 348.843 517.4 355.705 514.506 360.507C512.892 363.183 510.908 365.217 508.638 366.532C507.362 367.257 502.662 369.972 500.755 371.068Z" fill="#291DB3"/>
<path d="M459.784 311.537L386.464 269.196V269.209L385.094 270.004L386.464 269.209V268.085L459.784 310.413V311.537Z" fill="#2E19B1"/>
<path d="M459.784 313.128L385.094 270.004L386.464 269.209V269.196L459.784 311.537V313.128Z" fill="#0D0AAC"/>
<path d="M492.288 366.563C492.282 366.563 492.275 366.563 492.268 366.563C489.754 366.563 487.067 365.785 484.3 364.188C478.12 360.612 472.636 353.628 468.658 345.215C464.683 336.8 462.227 326.944 462.226 317.584C462.227 310.317 463.704 304.401 466.29 300.245C468.86 296.099 472.616 293.709 476.98 293.709C476.987 293.709 476.995 293.709 477.002 293.709C479.515 293.709 482.202 294.488 484.967 296.085C491.148 299.66 496.632 306.645 500.611 315.057C504.584 323.473 507.042 333.329 507.043 342.689C507.042 349.956 505.564 355.872 502.979 360.028C500.408 364.173 496.652 366.563 492.288 366.563ZM463.559 317.584C463.558 326.711 465.968 336.403 469.863 344.645C473.754 352.891 479.14 359.676 484.967 363.033C487.574 364.539 490.032 365.231 492.268 365.229C496.138 365.223 499.427 363.185 501.847 359.323C504.255 355.463 505.712 349.776 505.71 342.689C505.711 333.563 503.3 323.871 499.406 315.628C495.515 307.381 490.128 300.596 484.3 297.239C481.695 295.735 479.238 295.043 477.002 295.043C473.131 295.051 469.842 297.088 467.422 300.951C465.014 304.811 463.556 310.497 463.559 317.584Z" fill="#2E19B1"/>
<path d="M459.483 304.931L385.094 261.972L393.442 257.161L462.128 296.816C460.991 299.147 460.086 301.86 459.483 304.931Z" fill="#5A51C2"/>
<path d="M558.755 300.993C562.657 293.616 567.103 277.056 569.317 268.699C572.464 256.828 567.372 249.359 561.593 249.057C557.969 249.609 546.072 292.911 546.072 292.911C544.752 293.965 526.641 303.143 520.823 305.449C519.793 305.859 518.643 305.843 517.601 305.463C514.807 304.441 512.905 304.636 510.169 304.36C508.027 304.145 506.944 303.385 506.673 303.843C506.327 304.433 506.165 305.903 507.724 306.999C508.509 307.551 509.801 308.043 511.455 308.628C511.455 308.628 508.361 309.7 504.236 309.608C498.643 309.485 496.629 311.915 500.967 317.585C503.687 321.137 508.057 322.257 517.901 318.852C520.739 317.872 524.58 315.965 528.156 314.665C535.551 311.979 537.449 311.689 543.125 309.777C551.316 307.02 557.023 304.267 558.755 300.993Z" fill="#F6879F"/>
<path d="M559.401 247.935C562.804 248.4 566.103 249.169 568.081 251.917C570.061 254.667 571.711 258.544 569.732 269.196C567.752 279.847 563.683 291.163 563.683 291.163C563.683 291.163 555.767 294.545 547.348 285.963L553.128 263.589C553.128 263.589 554.117 249.057 559.401 247.935Z" fill="#33535F"/>
</svg>
