<svg width="56" height="56" viewBox="0 0 56 56" fill="none" xmlns="http://www.w3.org/2000/svg">
<g clip-path="url(#clip0)">
<path d="M30.8041 22.8875C30.2464 21.9346 29.0221 21.6135 28.0684 22.1693L22.8877 25.1959L24.9054 28.6497L30.0862 25.623C31.0388 25.0654 31.3601 23.841 30.8041 22.8875Z" fill="#2DB300"/>
<path d="M17.9115 10.731C8.37402 16.303 5.15941 28.5513 10.7314 38.0888C16.3033 47.6263 28.5516 50.8409 38.0891 45.2689C47.6266 39.6969 50.8412 27.4487 45.2692 17.9112C39.689 8.38488 27.4507 5.1729 17.9115 10.731ZM36.0714 41.8152C28.4414 46.2727 18.6427 43.701 14.1851 36.071C9.72754 28.441 12.2992 18.6423 19.9292 14.1848C27.5592 9.72719 37.3579 12.2989 41.8155 19.9289C46.2622 27.5603 43.6926 37.3511 36.0714 41.8152Z" fill="#2DB300"/>
<path d="M27.9328 33.8304L33.1135 30.8038C34.0671 30.2467 34.3886 29.0219 33.8315 28.0682C33.2742 27.1144 32.0494 26.7929 31.0958 27.35L25.915 30.3767L27.9328 33.8304Z" fill="#2DB300"/>
<path d="M20.9378 15.9117C14.2617 19.812 12.0114 28.386 15.9117 35.0621C19.812 41.7382 28.386 43.9885 35.0621 40.0882C41.7382 36.1879 43.9884 27.6139 40.0881 20.9378C36.1821 14.2693 27.6152 12.0209 20.9378 15.9117ZM35.5574 27.059C36.669 28.9671 36.0266 31.4146 34.1214 32.5305L34.6259 33.394C34.9045 33.871 34.7435 34.4835 34.2669 34.762C33.7899 35.0406 33.1775 34.8799 32.8989 34.403L32.3944 33.5395L30.6677 34.5482L31.1722 35.4117C31.4508 35.8887 31.2898 36.5012 30.8131 36.7797C30.3362 37.0583 29.7238 36.8976 29.4452 36.4207L28.9407 35.5572L26.3505 37.0704C25.8735 37.3491 25.2611 37.1884 24.9826 36.7117C24.704 36.2347 24.8647 35.6223 25.3417 35.3437L26.2049 34.8394L21.1605 26.2049L20.2973 26.7092C19.8203 26.9879 19.2079 26.8271 18.9293 26.3502C18.6507 25.8733 18.8114 25.2609 19.2883 24.9822L21.8786 23.469L21.3742 22.6057C21.0956 22.1288 21.2563 21.5164 21.7333 21.2378C22.2102 20.9591 22.8226 21.1199 23.1012 21.5968L23.6056 22.46L25.3323 21.4512L24.828 20.588C24.5493 20.1111 24.7101 19.4987 25.187 19.22C25.6639 18.9414 26.2763 19.1021 26.555 19.5791L27.0593 20.4423C28.954 19.3248 31.3959 19.9545 32.5137 21.8491C33.1055 22.8524 33.2287 24.0645 32.8505 25.1662C33.9845 25.3746 34.9723 26.0653 35.5574 27.059Z" fill="#2DB300"/>
</g>
<defs>
<clipPath id="clip0">
<rect width="40" height="40" fill="white" transform="translate(0.642578 20.8198) rotate(-30.2942)"/>
</clipPath>
</defs>
</svg>
