<svg width="24" height="24" viewBox="0 0 24 24" fill="none" xmlns="http://www.w3.org/2000/svg">
<path d="M24 12L21.6627 9.41087L22.3923 5.99999L19.0736 4.92643L18.0001 1.60774L14.5892 2.33732L12 0L9.41087 2.33728L5.99999 1.6077L4.92643 4.92638L1.60774 5.99994L2.33732 9.41082L0 12L2.33732 14.5891L1.60774 18L4.92643 19.0736L5.99999 22.3923L9.41087 21.6627L12 24L14.5891 21.6627L18 22.3923L19.0735 19.0736L22.3922 18L21.6626 14.5891L24 12ZM17.9494 17.9494L17.0464 20.7407L14.1776 20.1271L12 22.0929L9.82233 20.1271L6.95351 20.7407L6.05052 17.9494L3.25923 17.0464L3.87288 14.1776L1.90699 12L3.87288 9.82233L3.25923 6.95351L6.05052 6.05052L6.95351 3.25923L9.82233 3.87287L12 1.90704L14.1776 3.87287L17.0464 3.25923L17.9494 6.05052L20.7407 6.95351L20.1271 9.82233L22.0929 12L20.1271 14.1776L20.7407 17.0464L17.9494 17.9494Z" fill="#333333"/>
<path d="M15.0667 12.9437C13.8959 12.9437 12.9434 13.8963 12.9434 15.0671C12.9434 16.2379 13.8959 17.1904 15.0667 17.1904C16.2375 17.1904 17.19 16.2379 17.19 15.0671C17.19 13.8963 16.2375 12.9437 15.0667 12.9437ZM15.0667 15.7748C14.6764 15.7748 14.3589 15.4573 14.3589 15.0671C14.3589 14.6768 14.6764 14.3593 15.0667 14.3593C15.457 14.3593 15.7745 14.6768 15.7745 15.0671C15.7745 15.4573 15.457 15.7748 15.0667 15.7748Z" fill="#333333"/>
<path d="M8.93194 11.0563C10.1027 11.0563 11.0553 10.1037 11.0553 8.93291C11.0553 7.7621 10.1027 6.80957 8.93194 6.80957C7.76113 6.80957 6.80859 7.7621 6.80859 8.93291C6.80859 10.1037 7.76113 11.0563 8.93194 11.0563ZM8.93194 8.22513C9.32221 8.22513 9.63972 8.54264 9.63972 8.93291C9.63972 9.32318 9.32221 9.64069 8.93194 9.64069C8.54167 9.64069 8.22416 9.32318 8.22416 8.93291C8.22416 8.54264 8.54167 8.22513 8.93194 8.22513Z" fill="#333333"/>
<path d="M7.25 15.7456L15.742 7.25355L16.7428 8.25431L8.25077 16.7464L7.25 15.7456Z" fill="#333333"/>
</svg>
