<svg width="41" height="40" viewBox="0 0 41 40" fill="none" xmlns="http://www.w3.org/2000/svg">
<g clip-path="url(#clip0)">
<path d="M20.556 21.9288C20.3177 22.024 20.0522 22.024 19.8138 21.9288L17.2559 20.9055L20.1849 26.7637L23.114 20.9055L20.556 21.9288Z" fill="#DC3CCC"/>
<path d="M20.186 19.9231L23.7041 18.5159L20.186 12.887L16.668 18.5159L20.186 19.9231Z" fill="#DC3CCC"/>
<path d="M20.1855 6C12.4536 6 6.18555 12.268 6.18555 19.9999C6.18555 27.7319 12.4536 33.9999 20.1855 33.9999C27.9174 33.9999 34.1854 27.7319 34.1854 19.9999C34.1769 12.2717 27.9138 6.00854 20.1855 6ZM26.08 19.4473L21.08 29.4473C20.8331 29.9413 20.2322 30.1415 19.7384 29.8947C19.5446 29.7979 19.3878 29.6411 19.291 29.4473L14.291 19.4473C14.1357 19.1354 14.1534 18.7652 14.3377 18.4695L19.3377 10.4696C19.67 10.0015 20.3185 9.89099 20.7867 10.2233C20.8822 10.2911 20.9655 10.3741 21.0333 10.4696L26.033 18.4695C26.2176 18.7652 26.2353 19.1354 26.08 19.4473Z" fill="#DC3CCC"/>
<path d="M20.1855 0C9.13971 0 0.185547 8.95416 0.185547 20C0.185547 31.0458 9.13971 40 20.1855 40C31.2314 40 40.1855 31.0458 40.1855 20C40.1733 8.95935 31.2262 0.012207 20.1855 0ZM20.1855 36.0001C11.3489 36.0001 4.18549 28.8367 4.18549 20C4.18549 11.1633 11.3489 3.99994 20.1855 3.99994C29.0222 3.99994 36.1856 11.1633 36.1856 20C36.1755 28.8324 29.0179 35.99 20.1855 36.0001Z" fill="#DC3CCC"/>
</g>
<defs>
<clipPath id="clip0">
<rect width="40" height="40" fill="white" transform="translate(0.185547)"/>
</clipPath>
</defs>
</svg>
