<svg width="20" height="20" viewBox="0 0 20 20" fill="none" xmlns="http://www.w3.org/2000/svg">
<path d="M20 12.449V7.55102H17.1443C17.0424 7.25343 16.9218 6.96245 16.7833 6.68L18.8027 4.66061L15.3393 1.19722L13.32 3.21661C13.0376 3.07824 12.7465 2.95763 12.449 2.85567V0H7.55102V2.85567C7.25347 2.95763 6.96245 3.07824 6.68 3.21661L4.66061 1.19722L1.19722 4.66061L3.21661 6.68C3.0782 6.96245 2.95763 7.25347 2.85567 7.55102H0V12.449H2.85567C2.95763 12.7466 3.07824 13.0376 3.21661 13.32L1.19722 15.3394L4.66061 18.8028L6.68 16.7834C6.96245 16.9218 7.25347 17.0424 7.55102 17.1443V20H12.449V17.1443C12.7465 17.0424 13.0376 16.9218 13.32 16.7834L15.3394 18.8028L18.8028 15.3394L16.7834 13.32C16.9218 13.0376 17.0424 12.7465 17.1444 12.449H20ZM17.0711 15.3394L15.3393 17.0711L13.5358 15.2676L13.1299 15.4991C12.6725 15.7601 12.183 15.9629 11.675 16.102L11.2245 16.2254V18.7755H8.77551V16.2254L8.32494 16.1021C7.81698 15.963 7.32747 15.7601 6.87 15.4991L6.46412 15.2676L4.66061 17.0711L2.92894 15.3394L4.73245 13.5359L4.5009 13.13C4.23992 12.6727 4.03706 12.1831 3.89796 11.6751L3.77461 11.2245H1.22449V8.77551H3.77461L3.89796 8.32494C4.03706 7.81698 4.23988 7.32747 4.50086 6.87004L4.73245 6.46416L2.9289 4.66061L4.66057 2.92894L6.46412 4.73249L6.87 4.5009C7.32743 4.23992 7.81694 4.03706 8.3249 3.898L8.77551 3.77461V1.22449H11.2245V3.77461L11.6751 3.89796C12.1831 4.03706 12.6725 4.23992 13.13 4.50086L13.5358 4.73245L15.3394 2.9289L17.0711 4.66057L15.2676 6.46412L15.4991 6.87C15.7601 7.32735 15.9629 7.81686 16.1021 8.32494L16.2254 8.77551H18.7755V11.2245H16.2254L16.1021 11.675C15.9629 12.1831 15.76 12.6726 15.4991 13.13L15.2676 13.5358L17.0711 15.3394Z" fill="#414141"/>
<path d="M10.0006 6.12244C7.86252 6.12244 6.12305 7.86191 6.12305 9.99999C6.12305 12.1381 7.86252 13.8775 10.0006 13.8775C12.1387 13.8775 13.8781 12.1381 13.8781 9.99999C13.8781 7.86191 12.1387 6.12244 10.0006 6.12244ZM10.0006 12.653C8.5377 12.653 7.34754 11.4629 7.34754 9.99999C7.34754 8.53709 8.5377 7.34693 10.0006 7.34693C11.4635 7.34693 12.6537 8.53709 12.6537 9.99999C12.6537 11.4629 11.4635 12.653 10.0006 12.653Z" fill="#414141"/>
</svg>
