<svg width="21" height="20" viewBox="0 0 21 20" fill="none" xmlns="http://www.w3.org/2000/svg">
<g clip-path="url(#clip0)">
<path d="M5.93313 0L2 3.93313V19.375H18.25V0H5.93313ZM5.75 1.06687V3.75H3.06687L5.75 1.06687ZM17.625 18.75H2.625V4.375H6.375V0.625H17.625V18.75Z" fill="#414141"/>
<path d="M8.74937 7.20656L5.65156 9.375H3.875V5H3.25V18.125H17V17.5H16.375V7.5H13.875V17.5H13.25V8.75H10.75V17.5H10.125V10H7.625V17.5H7V11.25H4.5V17.5H3.875V10H5.84844L9.00031 7.79344L12.1472 7.16406L15.75 3.83875V6.25H16.375V2.8125H12.9375V3.4375H15.2631L11.8525 6.58594L8.74937 7.20656ZM14.5 8.125H15.75V17.5H14.5V8.125ZM11.375 9.375H12.625V17.5H11.375V9.375ZM8.25 10.625H9.5V17.5H8.25V10.625ZM5.125 11.875H6.375V17.5H5.125V11.875Z" fill="#414141"/>
</g>
<defs>
<clipPath id="clip0">
<rect width="20.25" height="19.375" fill="white"/>
</clipPath>
</defs>
</svg>
