<svg width="20" height="20" viewBox="0 0 20 20" fill="none" xmlns="http://www.w3.org/2000/svg">
<path d="M10.4766 6.19055V10.9524L14.5527 13.3715L15.2384 12.2144L11.9051 10.2381V6.19055H10.4766Z" fill="#414141"/>
<path d="M11.4238 1.42859C6.68571 1.42859 2.85714 5.26667 2.85714 10H0L3.70951 13.7095L3.77616 13.8476L7.61906 10H4.76192C4.76192 6.31908 7.74763 3.33337 11.4286 3.33337C15.1095 3.33337 18.0952 6.31908 18.0952 10C18.0952 13.681 15.1095 16.6667 11.4286 16.6667C9.58571 16.6667 7.9238 15.9143 6.71906 14.7095L5.37143 16.0572C6.91906 17.6095 9.05714 18.5714 11.4238 18.5714C16.1619 18.5714 20 14.7334 20 10C20 5.26667 16.1619 1.42859 11.4238 1.42859Z" fill="#414141"/>
</svg>
