<svg width="63" height="63" viewBox="0 0 63 63" fill="none" xmlns="http://www.w3.org/2000/svg">
<rect width="63" height="63" rx="2" fill="#2BC155" fill-opacity="0.1"/>
<path d="M40.6186 32.7208L40.6186 32.7208L40.6353 39.6291C40.6354 39.6329 40.6354 39.6364 40.6353 39.6397M40.6186 32.7208L40.1353 39.6342L40.6353 39.6351C40.6353 39.6482 40.6347 39.6585 40.6345 39.6628L40.6344 39.6643C40.6346 39.661 40.6351 39.6521 40.6353 39.6408C40.6353 39.6404 40.6353 39.6401 40.6353 39.6397M40.6186 32.7208C40.6167 31.927 39.9717 31.2849 39.1777 31.2867C38.3838 31.2886 37.7417 31.9337 37.7436 32.7276L37.7436 32.7277L37.7519 36.1564M40.6186 32.7208L37.7519 36.1564M40.6353 39.6397C40.6329 40.4283 39.9931 41.0706 39.2017 41.0727C39.2 41.0728 39.1983 41.0728 39.1965 41.0728L39.1944 41.0728L39.1773 41.0727L32.2834 41.0561L32.2846 40.5561L32.2834 41.0561C31.4897 41.0541 30.8474 40.4092 30.8494 39.6151C30.8513 38.8212 31.4964 38.1791 32.2903 38.181L32.2903 38.181L35.719 38.1893L22.5364 25.0067C21.975 24.4453 21.975 23.5352 22.5364 22.9738C23.0978 22.4124 24.0079 22.4124 24.5693 22.9738L37.7519 36.1564M40.6353 39.6397C40.6353 39.6377 40.6353 39.6357 40.6353 39.6337L37.7519 36.1564M39.1964 41.0727C39.1957 41.0727 39.1951 41.0727 39.1944 41.0727L39.1964 41.0727Z" fill="#2BC155" stroke="#2BC155"/>
</svg>
