<svg width="63" height="63" viewBox="0 0 63 63" fill="none" xmlns="http://www.w3.org/2000/svg">
<rect width="63" height="63" rx="2" fill="#FF2E2E" fill-opacity="0.1"/>
<path d="M22.1314 30.9045L22.1314 30.9044L22.1147 23.9962C22.1146 23.9924 22.1146 23.9888 22.1147 23.9855M22.1314 30.9045L22.6147 23.991L22.1147 23.9902C22.1147 23.977 22.1153 23.9668 22.1155 23.9625L22.1156 23.9609C22.1154 23.9642 22.1149 23.9731 22.1147 23.9844C22.1147 23.9848 22.1147 23.9852 22.1147 23.9855M22.1314 30.9045C22.1333 31.6983 22.7783 32.3404 23.5723 32.3385C24.3662 32.3366 25.0083 31.6915 25.0064 30.8976L25.0064 30.8976L24.9981 27.4689M22.1314 30.9045L24.9981 27.4689M22.1147 23.9855C22.1171 23.197 22.7569 22.5546 23.5483 22.5525C23.55 22.5525 23.5517 22.5525 23.5535 22.5525L23.5556 22.5525L23.5727 22.5525L30.4666 22.5692L30.4654 23.0692L30.4666 22.5692C31.2603 22.5711 31.9026 23.216 31.9006 24.0102C31.8987 24.8041 31.2536 25.4461 30.4597 25.4442L30.4597 25.4442L27.031 25.4359L40.2136 38.6185C40.775 39.1799 40.775 40.0901 40.2136 40.6515C39.6522 41.2128 38.7421 41.2128 38.1807 40.6515L24.9981 27.4689M22.1147 23.9855C22.1147 23.9875 22.1147 23.9896 22.1147 23.9916L24.9981 27.4689M23.5536 22.5525C23.5543 22.5525 23.5549 22.5525 23.5556 22.5525L23.5536 22.5525Z" fill="#FF2E2E" stroke="#FF2E2E"/>
</svg>
