<svg width="56" height="56" viewBox="0 0 56 56" fill="none" xmlns="http://www.w3.org/2000/svg">
<rect opacity="0.1" width="56" height="56" rx="4" fill="#2AAAC0"/>
<g clip-path="url(#clip0)">
<path d="M20.0552 17.9254C21.889 17.9254 23.3379 19.397 23.3379 21.2308C23.3379 23.0646 21.8663 24.5135 20.0552 24.5135C18.244 24.5135 16.7498 23.0419 16.7498 21.2081C16.7498 19.3743 18.2214 17.9254 20.0552 17.9254ZM20.0552 23.789C21.4815 23.789 22.6361 22.6344 22.6361 21.2081C22.6361 19.7819 21.4588 18.6499 20.0552 18.6499C18.6289 18.6499 17.4743 19.8045 17.4743 21.2308C17.4743 22.6571 18.6289 23.789 20.0552 23.789Z" fill="#200D8A"/>
<path d="M19.0137 21.7289C19.0363 21.661 19.0363 21.6157 19.0816 21.5478C19.1042 21.5025 19.1269 21.4346 19.1721 21.3893C19.2174 21.344 19.2401 21.2987 19.2853 21.2535C19.3306 21.2082 19.3759 21.1629 19.4438 21.1403C19.4891 21.095 19.557 21.0724 19.6023 21.0497C19.6702 21.0271 19.7155 20.9818 19.7834 20.9592C19.8513 20.9365 19.9192 20.9139 19.9645 20.8912C19.9872 20.8912 20.0324 20.8686 20.0551 20.846C20.0777 20.8233 20.123 20.8233 20.1456 20.8007C20.1683 20.778 20.2136 20.778 20.2362 20.7554C20.2588 20.7328 20.2815 20.7101 20.3041 20.6875C20.3268 20.6648 20.3494 20.6422 20.3494 20.5969C20.372 20.5743 20.372 20.529 20.372 20.5064C20.372 20.4611 20.372 20.4384 20.372 20.3932C20.372 20.3705 20.3494 20.3252 20.3494 20.3026C20.3268 20.28 20.3268 20.2347 20.3041 20.2121C20.2815 20.1894 20.2588 20.1668 20.2362 20.1441C20.2136 20.1215 20.1683 20.0989 20.123 20.0989C20.0777 20.0762 20.0551 20.0762 20.0098 20.0762C19.9872 20.0762 19.9645 20.0762 19.9419 20.0762C19.9192 20.0762 19.8966 20.0762 19.874 20.0762C19.8287 20.0762 19.8061 20.0762 19.7608 20.0989C19.7155 20.0989 19.6702 20.1215 19.6476 20.1215C19.6249 20.1215 19.5797 20.1441 19.557 20.1441C19.5117 20.1441 19.4891 20.1668 19.4665 20.1668L19.3533 20.2121L19.3306 20.0762L19.2853 19.714V19.6234L19.3759 19.6008C19.3985 19.6008 19.4438 19.5781 19.4665 19.5781C19.4891 19.5781 19.5117 19.5555 19.557 19.5555C19.5797 19.5555 19.6249 19.5329 19.6702 19.5329C19.7155 19.5329 19.7381 19.5102 19.7834 19.5102H19.8061V19.1933V19.0801H19.9192H20.2362H20.3494V19.1933V19.5329H20.372C20.44 19.5555 20.5079 19.5781 20.5758 19.6234C20.6437 19.6461 20.689 19.6913 20.7343 19.7366C20.7795 19.7819 20.8248 19.8272 20.8701 19.8951C20.9154 19.9404 20.938 20.0083 20.9607 20.0762C20.9833 20.1441 21.0059 20.2121 21.0286 20.28C21.0512 20.3479 21.0512 20.4384 21.0512 20.5064C21.0512 20.5743 21.0512 20.6196 21.0286 20.6875C21.0059 20.7554 21.0059 20.8007 20.9607 20.8686C20.938 20.9139 20.8927 20.9818 20.8701 21.0271C20.8248 21.0724 20.8022 21.1176 20.7569 21.1629C20.7116 21.2082 20.6664 21.2535 20.5984 21.2761C20.5532 21.3214 20.4852 21.344 20.44 21.3667C20.372 21.3893 20.3041 21.4346 20.2588 21.4572C20.1909 21.4799 20.123 21.5025 20.0777 21.5251C20.0551 21.5251 20.0098 21.5478 19.9872 21.5704C19.9645 21.5931 19.9192 21.5931 19.8966 21.6157C19.874 21.6383 19.8513 21.661 19.8287 21.661C19.8061 21.6836 19.7834 21.7063 19.7608 21.7289C19.7381 21.7515 19.7381 21.7742 19.7155 21.8195C19.7155 21.8421 19.6929 21.8874 19.6929 21.9327C19.6929 21.9779 19.6929 22.0006 19.6929 22.0458C19.6929 22.0685 19.7155 22.1138 19.7381 22.1364C19.7608 22.159 19.7834 22.1817 19.8061 22.2043C19.8287 22.227 19.8513 22.2496 19.8966 22.2722C19.9192 22.2949 19.9645 22.2949 19.9872 22.3175C20.0098 22.3175 20.0551 22.3402 20.1004 22.3402C20.123 22.3402 20.1456 22.3402 20.1909 22.3402C20.2136 22.3402 20.2588 22.3402 20.2815 22.3402C20.3268 22.3402 20.372 22.3402 20.3947 22.3402C20.44 22.3402 20.4852 22.3175 20.5079 22.3175C20.5532 22.3175 20.5984 22.2949 20.6437 22.2722C20.689 22.2496 20.7343 22.2496 20.7795 22.227C20.8022 22.227 20.8248 22.2043 20.8475 22.2043C20.8701 22.2043 20.8927 22.1817 20.9154 22.1817L21.0512 22.1138L21.0739 22.2722L21.1191 22.6798V22.7477L21.0512 22.7703C20.9607 22.7477 20.9154 22.7703 20.8475 22.793C20.8022 22.8156 20.7343 22.8382 20.689 22.8382C20.6437 22.8609 20.5758 22.8609 20.5079 22.8835C20.44 22.9061 20.3947 22.9061 20.3268 22.9061H20.2815V23.2457V23.3589H20.1683H19.8513H19.7381V23.2457V22.8835H19.7155C19.6476 22.8609 19.5797 22.8382 19.5117 22.793C19.4438 22.7703 19.3985 22.725 19.3306 22.6798C19.2853 22.6345 19.2401 22.5892 19.1948 22.5213C19.1495 22.476 19.1269 22.4081 19.0816 22.3402C19.0589 22.2722 19.0363 22.2043 19.0137 22.1364C18.991 22.0685 18.991 22.0006 18.991 21.91C18.991 21.8421 18.991 21.7968 19.0137 21.7289Z" fill="#200D8A"/>
<path d="M21.6388 24.9436C21.752 24.7851 22.001 24.7625 22.1595 24.8757L25.8271 27.7962L30.5588 25.8265C30.672 25.7813 30.8078 25.8039 30.8984 25.8718L35.9696 29.4941C36.1281 29.6073 36.1734 29.8337 36.0602 29.9922C35.9922 30.1054 35.8791 30.1507 35.7659 30.1507C35.6979 30.1507 35.63 30.128 35.5621 30.0828L30.6493 26.5736L25.895 28.5433C25.7818 28.5886 25.6234 28.5659 25.5328 28.498L21.7067 25.4643C21.5483 25.3511 21.5256 25.1021 21.6388 24.9436Z" fill="#200D8A"/>
<path d="M16.3417 37.3502H18.0171V26.8681C18.0171 26.6643 18.1755 26.5059 18.3793 26.5059H21.7073C21.911 26.5059 22.0695 26.6643 22.0695 26.8681V37.3502H23.2921V30.4904C23.2921 30.2867 23.4505 30.1282 23.6543 30.1282H27.0049C27.2087 30.1282 27.3672 30.2867 27.3672 30.4904V37.3502H28.5897V29.9471C28.5897 29.7433 28.7482 29.5848 28.9519 29.5848H32.2799C32.4837 29.5848 32.6422 29.7433 32.6422 29.9471V37.3502H33.8647V32.0752C33.8647 31.8714 34.0232 31.7129 34.2269 31.7129H37.5776C37.7813 31.7129 37.9398 31.8714 37.9398 32.0752V37.3502H39.6378C39.8415 37.3502 40 37.5086 40 37.7124C40 37.9162 39.8415 38.0746 39.6378 38.0746H37.6002H34.2722H32.2799H28.9519H27.0049H23.6769H21.7299H18.4019H16.3644C16.1606 38.0746 16.0021 37.9162 16.0021 37.7124C15.9795 37.5086 16.138 37.3502 16.3417 37.3502ZM34.6118 37.3502H37.2153V32.4374H34.6118V37.3502ZM29.3142 37.3502H31.9177V30.3093H29.3142V37.3502ZM24.0392 37.3502H26.6427V30.8526H24.0392V37.3502ZM18.7415 37.3502H21.3451V27.2303H18.7415V37.3502Z" fill="#200D8A"/>
</g>
<defs>
<clipPath id="clip0">
<rect width="24" height="24" fill="white" transform="matrix(-1 0 0 1 40 16)"/>
</clipPath>
</defs>
</svg>
