<svg width="41" height="40" viewBox="0 0 41 40" fill="none" xmlns="http://www.w3.org/2000/svg">
<g clip-path="url(#clip0)">
<path d="M20.1855 0C9.13971 0 0.185547 8.95416 0.185547 20C0.185547 31.0458 9.13971 40 20.1855 40C31.2314 40 40.1855 31.0458 40.1855 20C40.1727 8.95966 31.2259 0.0128173 20.1855 0ZM20.1855 36.0001C11.3489 36.0001 4.18549 28.8367 4.18549 20C4.18549 11.1633 11.3489 3.99994 20.1855 3.99994C29.0222 3.99994 36.1856 11.1633 36.1856 20C36.1755 28.8324 29.0179 35.99 20.1855 36.0001Z" fill="#5F5F5F"/>
<path d="M20.1855 6C12.4536 6 6.18555 12.268 6.18555 19.9999C6.18555 27.7319 12.4536 33.9999 20.1855 33.9999C27.9174 33.9999 34.1854 27.7319 34.1854 19.9999C34.1766 12.2717 27.9138 6.00885 20.1855 6ZM25.1855 27.0001H17.1856C16.6332 27.0001 16.1855 26.5524 16.1855 26C16.1855 25.9527 16.1889 25.9054 16.1956 25.8584L16.9482 20.5895L15.4281 20.9698C15.3488 20.9899 15.2673 21 15.1855 21C14.6331 20.9994 14.186 20.5514 14.1863 19.999C14.1869 19.5406 14.4988 19.1415 14.9435 19.0298L17.2534 18.4524L18.1954 11.8582C18.2736 11.3113 18.7802 10.9316 19.327 11.0098C19.8739 11.0879 20.2535 11.5945 20.1754 12.1414L19.3484 17.9287L22.9431 17.03C23.478 16.8936 24.0222 17.2167 24.1583 17.7517C24.2947 18.2867 23.9715 18.8308 23.4365 18.9672C23.4335 18.9678 23.4304 18.9688 23.4274 18.9694L19.0426 20.0656L18.338 24.9999H25.1855C25.7379 24.9999 26.1855 25.4476 26.1855 26C26.1855 26.5521 25.7379 27.0001 25.1855 27.0001Z" fill="#5F5F5F"/>
</g>
<defs>
<clipPath id="clip0">
<rect width="40" height="40" fill="white" transform="translate(0.185547)"/>
</clipPath>
</defs>
</svg>
