<svg width="40" height="40" viewBox="0 0 40 40" fill="none" xmlns="http://www.w3.org/2000/svg">
<path d="M24.9999 17.0001C24.999 15.896 24.1039 15.0012 23.0001 15H17V18.9999H23.0001C24.1039 18.999 24.999 18.1039 24.9999 17.0001Z" fill="#FFAB2D"/>
<path d="M20 0C8.95416 0 0 8.95416 0 20C0 31.0458 8.95416 40 20 40C31.0458 40 40 31.0458 40 20C39.9872 8.95966 31.0403 0.0128173 20 0ZM20 36.0001C11.1633 36.0001 3.99994 28.8367 3.99994 20C3.99994 11.1633 11.1633 3.99994 20 3.99994C28.8367 3.99994 36.0001 11.1633 36.0001 20C35.99 28.8324 28.8324 35.99 20 36.0001Z" fill="#FFAB2D"/>
<path d="M17 24.9999H23.0001C24.1045 24.9999 24.9999 24.1046 24.9999 23.0001C24.9999 21.8954 24.1045 21 23.0001 21H17V24.9999Z" fill="#FFAB2D"/>
<path d="M19.9999 6C12.268 6 6 12.268 6 19.9999C6 27.7319 12.268 33.9999 19.9999 33.9999C27.7319 33.9999 33.9999 27.7319 33.9999 19.9999C33.991 12.2717 27.7282 6.00885 19.9999 6ZM27.0001 22.9998C26.9973 25.2081 25.2081 26.9973 23.0001 26.9998V27.9998C23.0001 28.5522 22.5521 28.9999 22.0001 28.9999C21.4477 28.9999 21 28.5522 21 27.9998V26.9998H19.0002V27.9998C19.0002 28.5522 18.5522 28.9999 18.0001 28.9999C17.4478 28.9999 17.0001 28.5522 17.0001 27.9998V26.9998H14.0002C13.4478 26.9998 13.0001 26.5521 13.0001 26C13.0001 25.4476 13.4478 24.9999 14.0002 24.9999H14.9999V14.9999H14.0002C13.4478 14.9999 13.0001 14.5522 13.0001 13.9999C13.0001 13.4475 13.4478 12.9998 14.0002 12.9998H17.0001V12.0001C17.0001 11.4477 17.4478 11 18.0001 11C18.5525 11 19.0002 11.4477 19.0002 12.0001V12.9998H21V12.0001C21 11.4477 21.4477 11 22.0001 11C22.5524 11 23.0001 11.4477 23.0001 12.0001V12.9998C25.1998 12.9907 26.9906 14.7662 27.0001 16.9659C27.0049 18.1307 26.4999 19.2394 25.6176 19.9999C26.4916 20.7519 26.9961 21.8466 27.0001 22.9998Z" fill="#FFAB2D"/>
</svg>
