<svg width="32" height="32" viewBox="0 0 32 32" fill="none" xmlns="http://www.w3.org/2000/svg">
<g clip-path="url(#clip0)">
<path d="M13.3332 32C15.7479 32 17.7679 30.2787 18.2319 28H8.43457C8.89857 30.2787 10.9186 32 13.3332 32Z" fill="white"/>
<path d="M23.4347 19.328C23.4 19.328 23.368 19.3333 23.3333 19.3333C17.452 19.3333 12.6667 14.548 12.6667 8.66667C12.6667 6.356 13.4133 4.22133 14.6667 2.472V1.33333C14.6667 0.596 14.0693 0 13.3333 0C12.5973 0 12 0.596 12 1.33333V2.77333C7.484 3.424 4 7.308 4 12V15.7173C4 18.356 2.844 20.8467 0.816 22.5613C0.297333 23.0053 0 23.6507 0 24.3333C0 25.62 1.04667 26.6667 2.33333 26.6667H24.3333C25.62 26.6667 26.6667 25.62 26.6667 24.3333C26.6667 23.6507 26.3693 23.0053 25.8373 22.5507C24.7867 21.6613 23.976 20.5547 23.4347 19.328Z" fill="white"/>
<path d="M23.3337 0C18.555 0 14.667 3.888 14.667 8.66667C14.667 13.4453 18.555 17.3333 23.3337 17.3333C28.1123 17.3333 32.0003 13.4453 32.0003 8.66667C32.0003 3.888 28.1123 0 23.3337 0ZM25.0003 10.6667C25.5523 10.6667 26.0003 11.1147 26.0003 11.6667C26.0003 12.2187 25.5523 12.6667 25.0003 12.6667H21.667C21.115 12.6667 20.667 12.2187 20.667 11.6667V10.5067C20.667 8.94133 21.9417 7.66667 23.507 7.66667C23.779 7.66667 24.0003 7.44533 24.0003 7.17333C24.0003 6.888 23.779 6.66667 23.507 6.66667H21.667C21.115 6.66667 20.667 6.21867 20.667 5.66667C20.667 5.11467 21.115 4.66667 21.667 4.66667H23.507C24.8817 4.66667 26.0003 5.78533 26.0003 7.16C26.0003 8.548 24.8817 9.66667 23.507 9.66667C23.0443 9.66667 22.667 10.044 22.667 10.5067V10.6667H25.0003Z" fill="white"/>
</g>
<defs>
<clipPath id="clip0">
<rect width="32" height="32" fill="white"/>
</clipPath>
</defs>
</svg>
