<svg width="40" height="40" viewBox="0 0 40 40" fill="none" xmlns="http://www.w3.org/2000/svg">
<path d="M19.9999 6C12.268 6 6 12.268 6 19.9999C6 27.7319 12.268 33.9999 19.9999 33.9999C27.7319 33.9999 33.9999 27.7319 33.9999 19.9999C33.991 12.2717 27.7282 6.00885 19.9999 6ZM26.8691 18.46C26.3485 18.9199 25.7473 19.2794 25.0958 19.5199C24.6346 19.6691 24.2129 19.9197 23.8613 20.2535C23.3947 21.3647 23.6813 22.6498 24.5764 23.4576C24.6069 23.4881 24.6356 23.5208 24.6621 23.5552C25.7882 24.9981 25.6738 27.051 24.3945 28.3599C22.9781 29.7738 20.6841 29.7738 19.2675 28.3599C18.3712 27.2842 18.0782 25.8288 18.4884 24.49C18.5876 23.7164 18.323 22.94 17.7715 22.3882C17.2244 21.8609 16.4657 21.6134 15.7128 21.7162C14.374 22.1258 12.9189 21.8319 11.8438 20.9353C10.4281 19.5214 10.4269 17.2277 11.8408 15.8123C11.8417 15.8111 11.8429 15.8102 11.8438 15.8093C13.1521 14.5291 15.2059 14.4146 16.6485 15.5416C17.6583 16.5396 19.1543 16.8755 19.9493 16.3406C20.2844 15.9899 20.5352 15.5679 20.6835 15.1061C20.924 14.4552 21.2829 13.8546 21.7422 13.3346C23.1579 11.9189 25.4528 11.9189 26.8685 13.3343C28.2845 14.75 28.2845 17.0449 26.8691 18.4606V18.46Z" fill="#2B98D6"/>
<path d="M20 0C8.95416 0 0 8.95416 0 20C0 31.0458 8.95416 40 20 40C31.0458 40 40 31.0458 40 20C39.9872 8.95966 31.0403 0.0128173 20 0ZM20 36.0001C11.1633 36.0001 3.99994 28.8367 3.99994 20C3.99994 11.1633 11.1633 3.99994 20 3.99994C28.8367 3.99994 36.0001 11.1633 36.0001 20C35.99 28.8324 28.8324 35.99 20 36.0001Z" fill="#2B98D6"/>
<path d="M23.1558 14.747C22.883 15.0973 22.6672 15.4885 22.5171 15.9063C22.2433 16.73 21.738 17.4575 21.062 18.002C19.1559 19.0255 16.799 18.6297 15.3317 17.0397C14.6838 16.6052 13.8202 16.6809 13.2577 17.2216C12.623 17.8555 12.6224 18.8842 13.2562 19.519C13.2568 19.5193 13.2571 19.5199 13.2577 19.5202C13.6404 19.9014 14.1855 19.9618 15.3494 19.7488C15.5853 19.7061 15.8246 19.6844 16.0644 19.6844C17.2305 19.7033 18.3459 20.1641 19.1855 20.9735C20.2026 21.9906 20.6744 23.4316 20.4553 24.8535C20.2386 26.0147 20.2991 26.5615 20.6821 26.9451C21.3171 27.579 22.3456 27.579 22.9806 26.9451C23.5294 26.3589 23.5837 25.4656 23.1097 24.8175C21.5601 23.3474 21.1871 21.0214 22.1997 19.1406C22.7441 18.4649 23.4717 17.9602 24.2953 17.6873C24.7137 17.5366 25.1053 17.3196 25.4553 17.0449C26.0898 16.4102 26.0898 15.3811 25.455 14.7467C24.8199 14.1122 23.7912 14.1125 23.1567 14.7473L23.1558 14.747Z" fill="#2B98D6"/>
</svg>
