<svg width="24" height="24" viewBox="0 0 24 24" fill="none" xmlns="http://www.w3.org/2000/svg">
<g clip-path="url(#clip0)">
<path d="M21.7231 3.3518H17.4267V1.94158C17.4267 1.74753 17.2695 1.59021 17.0754 1.59021C16.8813 1.59021 16.724 1.74753 16.724 1.94158V3.3518H15.2685C15.0744 3.3518 14.9172 3.50912 14.9172 3.70317C14.9172 3.89722 15.0744 4.05454 15.2685 4.05454H16.724V5.54238H16.4603C16.0921 5.54238 15.7924 5.84199 15.7924 6.21018V10.3467C15.7924 10.7149 16.0921 11.0145 16.4603 11.0145H16.724V13.8021C16.724 13.9961 16.8813 14.1535 17.0754 14.1535C17.2695 14.1535 17.4267 13.9961 17.4267 13.8021V11.0145H17.6905C18.0587 11.0145 18.3583 10.7149 18.3583 10.3467V6.21018C18.3583 5.84194 18.0587 5.54238 17.6905 5.54238H17.4267V4.05454H21.7231C22.5674 4.05454 23.2543 4.74145 23.2543 5.58577V17.6118H0.745711V5.58581C0.745711 4.74149 1.43262 4.05459 2.27694 4.05459H8.43633V4.74032H8.17262C7.80438 4.74032 7.50482 5.03992 7.50482 5.40811V9.54464C7.50482 9.91288 7.80443 10.2124 8.17262 10.2124H8.43633V13.3173C8.43633 13.5113 8.59365 13.6687 8.7877 13.6687C8.98175 13.6687 9.13908 13.5113 9.13908 13.3173V10.2124H9.40279C9.77103 10.2124 10.0706 9.91283 10.0706 9.54464V5.40811C10.0706 5.03988 9.77098 4.74032 9.40279 4.74032H9.13908V4.05454H10.5945C10.7886 4.05454 10.9459 3.89722 10.9459 3.70317C10.9459 3.50912 10.7886 3.3518 10.5945 3.3518H9.13908V3.17827C9.13908 2.98422 8.98175 2.8269 8.7877 2.8269C8.59365 2.8269 8.43633 2.98422 8.43633 3.17827V3.3518H2.27694C1.04513 3.3518 0.0429688 4.35395 0.0429688 5.58577V17.9632C0.0429688 19.195 1.04513 20.1971 2.27694 20.1971H7.6257V21.9837L6.4932 23.2973H6.04368C5.84963 23.2973 5.69231 23.4547 5.69231 23.6487C5.69231 23.8428 5.84963 24.0001 6.04368 24.0001H17.9239C18.118 24.0001 18.2753 23.8428 18.2753 23.6487C18.2753 23.4547 18.118 23.2973 17.9239 23.2973H17.5068L16.3743 21.9837V20.1971H21.7231C22.9549 20.1971 23.957 19.195 23.957 17.9632V5.58581C23.957 4.354 22.9549 3.3518 21.7231 3.3518ZM17.6555 10.3118H16.4952V6.24517H17.6556V10.3118H17.6555ZM9.36784 9.50969H8.20752V5.44306H9.36784V9.50969ZM21.7231 19.4944H14.6117C14.4177 19.4944 14.2604 19.6517 14.2604 19.8458C14.2604 20.0398 14.4177 20.1971 14.6117 20.1971H15.6715V21.7629H14.7963C14.6022 21.7629 14.4449 21.9202 14.4449 22.1143C14.4449 22.3083 14.6022 22.4656 14.7963 22.4656H15.8619L16.5789 23.2973H7.42106L8.13809 22.4656H9.20368C9.39773 22.4656 9.55505 22.3083 9.55505 22.1143C9.55505 21.9202 9.39773 21.7629 9.20368 21.7629H8.32844V20.1971H13.1143C13.3084 20.1971 13.4657 20.0398 13.4657 19.8458C13.4657 19.6517 13.3084 19.4944 13.1143 19.4944H2.27694C1.55354 19.4944 0.946133 18.99 0.786845 18.3145H23.2131C23.0539 18.99 22.4465 19.4944 21.7231 19.4944Z" fill="#414141"/>
<path d="M3.7127 10.2586C3.51865 10.2586 3.36133 10.4159 3.36133 10.61V11.4582C3.36133 11.8264 3.66088 12.126 4.02912 12.126H4.29284V13.9972C4.29284 14.1913 4.45016 14.3486 4.64421 14.3486C4.83826 14.3486 4.99558 14.1913 4.99558 13.9972V12.126H5.25929C5.62753 12.126 5.92708 11.8264 5.92708 11.4582V7.32169C5.92708 6.95346 5.62748 6.65385 5.25929 6.65385H4.99558V6.09185C4.99558 5.8978 4.83826 5.74048 4.64421 5.74048C4.45016 5.74048 4.29284 5.8978 4.29284 6.09185V6.65385H4.02912C3.66088 6.65385 3.36133 6.95346 3.36133 7.32169V9.11256C3.36133 9.30661 3.51865 9.46393 3.7127 9.46393C3.90675 9.46393 4.06407 9.30661 4.06407 9.11256V7.35664H4.64378H4.64425C4.64425 7.35664 4.64453 7.35664 4.64472 7.35664H5.22444V11.4233H4.06407V10.61C4.06407 10.4159 3.90675 10.2586 3.7127 10.2586Z" fill="#414141"/>
<path d="M12.3162 9.51705H12.58V11.3882C12.58 11.5823 12.7373 11.7396 12.9314 11.7396C13.1255 11.7396 13.2827 11.5823 13.2827 11.3882V9.51705H13.5464C13.9146 9.51705 14.2142 9.21745 14.2142 8.84921V6.0932C14.2142 5.89915 14.057 5.74182 13.8629 5.74182C13.6688 5.74182 13.5115 5.89915 13.5115 6.0932V8.81431H12.3512V2.45201H13.5115V4.59579C13.5115 4.78984 13.6688 4.94716 13.8629 4.94716C14.057 4.94716 14.2142 4.78984 14.2142 4.59579V2.41706C14.2142 2.04887 13.9146 1.74927 13.5464 1.74927H13.2827V0.351371C13.2827 0.157321 13.1255 0 12.9314 0C12.7373 0 12.58 0.157321 12.58 0.351371V1.74927H12.3162C11.948 1.74927 11.6484 2.04887 11.6484 2.41706V8.84921C11.6484 9.21749 11.948 9.51705 12.3162 9.51705Z" fill="#414141"/>
<path d="M19.1027 9.63304C19.1662 9.75082 19.2873 9.81772 19.4123 9.81772C19.4686 9.81772 19.5257 9.80414 19.5788 9.77556L21.1973 8.90289L21.0808 9.20844C21.0117 9.3898 21.1028 9.5928 21.2841 9.6619C21.3253 9.67755 21.3676 9.685 21.4092 9.685C21.5507 9.685 21.6842 9.59879 21.7376 9.45862L22.1332 8.42015C22.2023 8.2388 22.1113 8.0358 21.9299 7.9667L20.8277 7.54678C20.6464 7.47773 20.4433 7.56871 20.3742 7.75006C20.3051 7.93142 20.3961 8.13442 20.5775 8.20352L20.8331 8.30087L19.2452 9.157C19.0744 9.24911 19.0106 9.46223 19.1027 9.63304Z" fill="#414141"/>
<path d="M2.12021 16.4984C2.17727 16.6317 2.307 16.7116 2.44337 16.7116C2.48947 16.7116 2.53637 16.7025 2.58149 16.6832L7.11548 14.7427L7.52753 15.8223C7.5636 15.9168 7.63861 15.9911 7.73338 16.0264C7.82811 16.0615 7.93352 16.0543 8.02254 16.0063L15.513 11.9676C15.6838 11.8755 15.7476 11.6624 15.6555 11.4916C15.5635 11.3208 15.3504 11.2569 15.1795 11.349L8.04132 15.1977L7.64165 14.1505C7.60754 14.0612 7.53853 13.9896 7.4505 13.9523C7.36247 13.9149 7.26306 13.9152 7.17512 13.9527L2.30498 16.0371C2.12663 16.1135 2.04389 16.32 2.12021 16.4984Z" fill="#414141"/>
</g>
<defs>
<clipPath id="clip0">
<rect width="24" height="24" fill="white"/>
</clipPath>
</defs>
</svg>
