<svg width="20" height="20" viewBox="0 0 20 20" fill="none" xmlns="http://www.w3.org/2000/svg">
<path d="M17.1154 1.7312H2.88461C1.29402 1.7312 0 3.02522 0 4.61581V15.385C0 16.9756 1.29402 18.2696 2.88461 18.2696H17.1154C18.706 18.2696 20 16.9756 20 15.385V4.61581C20 3.02522 18.706 1.7312 17.1154 1.7312ZM18.8462 11.7312H14.6154C13.6611 11.7312 12.8846 10.9548 12.8846 10.0004C12.8846 9.04604 13.661 8.26964 14.6154 8.26964H18.8462V11.7312ZM18.8462 7.11581H14.6154C13.0248 7.11581 11.7308 8.40983 11.7308 10.0004C11.7308 11.591 13.0248 12.885 14.6154 12.885H18.8462V15.385C18.8462 16.3394 18.0698 17.1158 17.1154 17.1158H2.88461C1.93027 17.1158 1.15383 16.3394 1.15383 15.385V4.61581C1.15383 3.66147 1.93023 2.88503 2.88461 2.88503H17.1154C18.0697 2.88503 18.8462 3.66144 18.8462 4.61581V7.11581Z" fill="#414141"/>
<path d="M15.3852 9.42261H14.616C14.2973 9.42261 14.0391 9.68092 14.0391 9.99951C14.0391 10.3181 14.2974 10.5764 14.616 10.5764H15.3852C15.7038 10.5764 15.9621 10.3181 15.9621 9.99951C15.9621 9.68089 15.7038 9.42261 15.3852 9.42261Z" fill="#414141"/>
</svg>
