<svg width="1440" height="790" viewBox="0 0 1440 790" fill="none" xmlns="http://www.w3.org/2000/svg">
<rect width="1440" height="792" fill="#200D8A"/>
<path opacity="0.2" d="M590.111 239.907C618.629 459.31 503.088 675.871 295.736 776.878C87.5354 876.753 -212.476 861.073 -360.91 714.637C-508.323 568.387 -505.351 292.141 -383.353 80.6717C-261.355 -130.798 -20.3297 -277.491 184.94 -239.995C391.058 -201.367 562.614 20.691 590.111 239.907Z" fill="white"/>
<g clip-path="url(#clip0)">
<path d="M458.535 185.974L453.465 208.026" stroke="white" stroke-width="6" stroke-linecap="round" stroke-linejoin="round"/>
<path d="M444.974 194.465L467.026 199.535" stroke="white" stroke-width="6" stroke-linecap="round" stroke-linejoin="round"/>
</g>
<path d="M463.211 560.209L461.07 576.552C461.03 576.899 461.082 577.25 461.22 577.571C461.358 577.892 461.578 578.171 461.857 578.38C462.137 578.59 462.466 578.723 462.813 578.765C463.159 578.808 463.511 578.759 463.833 578.624L479.373 571.88C479.692 571.738 479.968 571.514 480.173 571.232C480.379 570.95 480.507 570.619 480.545 570.271C480.583 569.924 480.529 569.573 480.389 569.253C480.249 568.933 480.028 568.655 479.748 568.448L466.349 558.848C466.068 558.649 465.741 558.526 465.399 558.491C465.058 558.455 464.712 558.508 464.397 558.645C464.082 558.782 463.807 558.998 463.599 559.272C463.392 559.546 463.258 559.869 463.211 560.209V560.209Z" stroke="white" stroke-width="3" stroke-linecap="round" stroke-linejoin="round"/>
<defs>
<clipPath id="clip0">
<rect width="32" height="32" fill="white" transform="translate(433.948 191.93) rotate(-32.051)"/>
</clipPath>
</defs>
</svg>
