<svg width="60" height="60" viewBox="0 0 60 60" fill="none" xmlns="http://www.w3.org/2000/svg">
<path d="M21.5599 8.1283C21.9091 8.12858 22.2505 8.0253 22.5409 7.83152C22.8314 7.63774 23.0578 7.36216 23.1917 7.03966C23.3255 6.71716 23.3606 6.36222 23.2927 6.01974C23.2247 5.67725 23.0567 5.36261 22.8099 5.11562C22.5631 4.86863 22.2486 4.70038 21.9062 4.63216C21.5638 4.56394 21.2088 4.59882 20.8862 4.73237C20.5636 4.86592 20.2878 5.09216 20.0938 5.38245C19.8998 5.67275 19.7963 6.01406 19.7963 6.36322C19.7966 6.83099 19.9825 7.27952 20.3132 7.61041C20.6438 7.94131 21.0922 8.12756 21.5599 8.1283Z" fill="white"/>
<path d="M21.7075 13.0651L24.7824 8.95184C25.3759 8.17827 25.6725 7.21761 25.6184 6.2441C25.4974 4.38387 24.0016 2.46094 21.7075 2.46094C19.4135 2.46094 17.9179 4.38387 17.7969 6.24293C17.7512 7.21831 18.0484 8.1789 18.637 8.95805L21.7075 13.0651ZM21.5599 3.42633C22.1408 3.42605 22.7088 3.59806 23.1919 3.92061C23.6751 4.24316 24.0518 4.70175 24.2743 5.23838C24.4968 5.77502 24.5551 6.36558 24.442 6.93539C24.3288 7.5052 24.0492 8.02864 23.6385 8.43952C23.2278 8.8504 22.7045 9.13026 22.1348 9.2437C21.565 9.35713 20.9744 9.29906 20.4377 9.07681C19.9009 8.85456 19.4422 8.47812 19.1194 7.99511C18.7966 7.5121 18.6243 6.94421 18.6243 6.36328C18.625 5.58481 18.9345 4.83839 19.4848 4.28779C20.0351 3.73719 20.7814 3.42738 21.5599 3.42633Z" fill="white"/>
<path d="M42.5378 17.8723C42.872 18.2549 43.3356 18.5007 43.8398 18.5626L44.1824 18.6049C44.7617 18.6766 45.3078 18.915 45.7542 19.291C46.2007 19.6671 46.5285 20.1646 46.6977 20.7233C46.8603 21.2632 46.8649 21.8384 46.7111 22.3809C46.5573 22.9234 46.2515 23.4105 45.8297 23.7847L42.4379 26.7839C42.2309 26.9671 42.0651 27.1922 41.9515 27.4443C41.838 27.6964 41.7792 27.9697 41.7792 28.2462V29.042C41.7786 29.2981 41.8425 29.5502 41.9649 29.7752C42.0873 30.0002 42.2644 30.1907 42.4798 30.3293C42.84 30.5607 43.1432 30.8707 43.3664 31.236C43.5897 31.6013 43.7273 32.0125 43.7688 32.4387L43.8483 33.2333C43.8795 33.5581 44.0308 33.8595 44.2726 34.0787C44.5144 34.2978 44.8292 34.4188 45.1555 34.4181H47.141C47.713 34.4178 48.2726 34.251 48.7514 33.938C49.2302 33.6249 49.6074 33.1793 49.837 32.6553L49.9563 32.3833C50.169 31.8929 50.5155 31.4723 50.9562 31.1697C51.3969 30.8671 51.9139 30.6948 52.448 30.6724L52.9144 30.6512C52.9666 30.6489 53.0184 30.6451 53.0701 30.6395L54.2018 30.5256C53.9717 28.3159 53.5501 26.1305 52.9418 23.9938L52.2769 24.8829C52.2223 24.9558 52.1515 25.0151 52.07 25.0558C51.9886 25.0966 51.8988 25.1179 51.8077 25.1179C51.7166 25.1179 51.6267 25.0966 51.5453 25.0558C51.4638 25.0151 51.393 24.9558 51.3384 24.8829L48.4891 21.0729C47.8678 20.2455 47.5563 19.2264 47.6089 18.193C47.6536 17.4959 47.8653 16.8197 48.2262 16.2216C47.0221 15.0367 45.707 13.9703 44.2991 13.0369L42.3798 16.3278C42.2429 16.5699 42.1845 16.8485 42.2128 17.1252C42.2411 17.4019 42.3547 17.6629 42.5378 17.8723Z" fill="white"/>
<path d="M51.8077 23.5546L54.1878 20.3721C54.6484 19.7725 54.8788 19.0276 54.8372 18.2727C54.7435 16.8297 53.5846 15.3389 51.8077 15.3389C50.0308 15.3389 48.872 16.8297 48.7783 18.271C48.7435 19.0281 48.9747 19.7734 49.4319 20.3778L51.8077 23.5546ZM51.689 15.8847C52.1786 15.8846 52.6572 16.0297 53.0644 16.3017C53.4715 16.5736 53.7889 16.9602 53.9763 17.4125C54.1638 17.8649 54.2129 18.3626 54.1174 18.8428C54.0219 19.3231 53.7862 19.7642 53.44 20.1105C53.0938 20.4567 52.6528 20.6925 52.1726 20.7881C51.6923 20.8836 51.1946 20.8346 50.7422 20.6473C50.2899 20.4599 49.9032 20.1426 49.6312 19.7355C49.3592 19.3284 49.214 18.8498 49.214 18.3602C49.2147 17.704 49.4757 17.0748 49.9396 16.6108C50.4036 16.1467 51.0327 15.8856 51.689 15.8848V15.8847Z" fill="white"/>
<path d="M53.1875 31.8067C53.1143 31.814 53.0409 31.8194 52.9672 31.8228L52.5012 31.8439C52.1857 31.8572 51.8803 31.959 51.6201 32.1378C51.3598 32.3166 51.1551 32.5651 51.0295 32.8547L50.9102 33.1267C50.5891 33.8591 50.0617 34.4821 49.3923 34.9197C48.723 35.3572 47.9407 35.5904 47.141 35.5906H45.1555C44.5383 35.5922 43.9428 35.3634 43.4853 34.9491C43.0279 34.5348 42.7415 33.9648 42.6821 33.3505L42.6028 32.5559C42.5784 32.305 42.4975 32.0629 42.3661 31.8477C42.2348 31.6326 42.0563 31.45 41.8443 31.3137C41.4641 31.0692 41.1515 30.733 40.9354 30.336C40.7193 29.939 40.6066 29.4941 40.6076 29.0421V28.2462C40.6077 27.8037 40.7017 27.3663 40.8836 26.9628C41.0654 26.5594 41.3308 26.1992 41.6623 25.906L45.054 22.9069C45.308 22.6815 45.4922 22.3881 45.5848 22.0613C45.6774 21.7346 45.6746 21.3882 45.5767 21.063C45.4733 20.7215 45.273 20.4174 45.0002 20.1875C44.7273 19.9577 44.3936 19.812 44.0395 19.7681L43.6971 19.7258C42.9066 19.6287 42.1797 19.2433 41.6558 18.6433C41.3122 18.2497 41.0995 17.759 41.0474 17.2391C40.9953 16.7192 41.1063 16.196 41.3651 15.7421L43.3112 12.4063C42.2683 11.7671 41.1867 11.193 40.0727 10.6876C36.6274 9.12826 33.0577 8.3042 29.7485 8.3042C29.4337 8.3042 29.0892 8.31416 28.7251 8.33314L31.3274 12.0869C31.826 12.8028 32.083 13.6592 32.0611 14.5314C32.0391 15.4035 31.7394 16.2459 31.2054 16.9359L30.3712 18.0192C30.0301 18.4604 29.5798 18.8051 29.0647 19.0191C28.5497 19.2332 27.9877 19.3092 27.4343 19.2397L26.4882 19.1187C26.0719 19.0653 25.6491 19.1355 25.2724 19.3205C24.8956 19.5056 24.5816 19.7973 24.3694 20.1594C24.0502 20.7037 23.5782 21.1422 23.0119 21.4205C22.4456 21.6987 21.81 21.8045 21.1841 21.7245L18.9995 21.4469C18.5826 21.3928 18.159 21.456 17.776 21.6293C17.3931 21.8026 17.066 22.0793 16.8315 22.4281C16.6282 22.7285 16.5169 23.0816 16.5113 23.4443C16.5057 23.807 16.606 24.1634 16.8 24.4699L18.2433 26.7509C18.4659 27.1004 18.812 27.3531 19.2127 27.4587C19.6134 27.5642 20.0392 27.5148 20.405 27.3203L21.891 26.5235C22.8698 25.9985 24.2995 25.9395 25.4617 26.3193C25.92 23.9024 28.0027 22.091 30.4582 22.091C33.129 22.091 35.3605 24.2335 35.5383 26.9689C35.6112 28.2216 35.2325 29.459 34.4711 30.4564L33.5543 31.6828L34.0923 32.421C34.1714 32.5312 34.2535 32.6362 34.3384 32.7362L36.1431 34.8617C36.3365 35.0895 36.4816 35.3542 36.5697 35.6398C36.6577 35.9254 36.6869 36.2258 36.6554 36.523C36.6238 36.8202 36.5323 37.1078 36.3863 37.3686C36.2403 37.6293 36.0428 37.8577 35.8059 38.0398L33.0703 40.143C32.5546 40.538 32.1753 41.0842 31.9853 41.7053L31.074 44.6646C30.9524 45.0606 30.7532 45.4285 30.4881 45.7468L29.6012 46.8146C29.1039 47.4123 28.796 48.1446 28.7169 48.9181C28.6675 49.3982 28.4898 49.856 28.2024 50.2437C27.915 50.6314 27.5285 50.9345 27.0836 51.1212C26.8071 51.2372 26.508 51.2891 26.2087 51.273C25.9094 51.2569 25.6176 51.1733 25.3551 51.0284C25.0927 50.8835 24.8665 50.681 24.6935 50.4363C24.5204 50.1915 24.405 49.9107 24.3559 49.615L23.5205 44.5972C23.4507 44.1806 23.2807 43.7873 23.0251 43.4511L19.9644 39.4337C19.5898 38.9427 19.3128 38.3844 19.1484 37.789L18.1382 34.1406C18.0197 33.7166 17.7936 33.3303 17.4818 33.0195C17.1699 32.7086 16.783 32.4837 16.3586 32.3665L16.1389 32.3067C15.4908 32.1291 14.8961 31.7956 14.4066 31.3352L12.5222 29.5599C12.1313 29.1918 11.796 28.7689 11.5267 28.3044C11.2259 27.7855 10.772 27.3725 10.2272 27.1218C9.68236 26.8712 9.07334 26.7953 8.48367 26.9046L5.73691 27.7981C5.36287 29.4807 5.16823 31.1983 5.15625 32.9219C5.15625 46.4958 16.1883 57.5391 29.7484 57.5391C43.3085 57.5391 54.3405 46.4958 54.3405 32.9219C54.3405 32.5401 54.326 32.1278 54.2991 31.6948L53.1875 31.8067Z" fill="white"/>
<path d="M51.6889 19.6641C51.9468 19.6642 52.1989 19.5878 52.4133 19.4446C52.6277 19.3014 52.7949 19.0979 52.8936 18.8597C52.9924 18.6215 53.0182 18.3594 52.968 18.1064C52.9178 17.8535 52.7936 17.6212 52.6113 17.4389C52.429 17.2565 52.1968 17.1323 51.9439 17.082C51.691 17.0316 51.4289 17.0574 51.1906 17.1561C50.9524 17.2547 50.7488 17.4218 50.6055 17.6362C50.4623 17.8506 50.3858 18.1026 50.3858 18.3605C50.3861 18.706 50.5235 19.0374 50.7678 19.2818C51.0121 19.5261 51.3434 19.6636 51.6889 19.6641Z" fill="white"/>
<path d="M10.1535 17.6693C10.5027 17.6696 10.844 17.5663 11.1345 17.3725C11.4249 17.1787 11.6513 16.9031 11.7851 16.5806C11.9189 16.2581 11.9541 15.9032 11.8861 15.5607C11.8181 15.2182 11.6501 14.9036 11.4033 14.6566C11.1565 14.4096 10.842 14.2414 10.4996 14.1732C10.1572 14.105 9.80222 14.1398 9.47962 14.2734C9.15702 14.407 8.88127 14.6332 8.68727 14.9235C8.49326 15.2138 8.38971 15.5551 8.38971 15.9042C8.39008 16.372 8.57599 16.8206 8.90664 17.1515C9.2373 17.4824 9.68571 17.6686 10.1535 17.6693Z" fill="white"/>
<path d="M8.22373 25.761C9.05723 25.5966 9.92125 25.6967 10.6951 26.0472C11.469 26.3977 12.1141 26.9811 12.5403 27.716C12.7527 28.0825 13.0172 28.4162 13.3255 28.7066L15.2099 30.4819C15.5595 30.8108 15.9843 31.049 16.4472 31.1757L16.6667 31.2356C17.2869 31.4067 17.8523 31.7353 18.308 32.1895C18.7637 32.6437 19.0941 33.208 19.2672 33.8276L20.2775 37.476C20.4021 37.9275 20.6122 38.3508 20.8963 38.7232L23.9573 42.7405C24.3286 43.2286 24.5754 43.7997 24.6766 44.4046L25.512 49.4224C25.5321 49.5437 25.5794 49.6589 25.6503 49.7593C25.7212 49.8597 25.8139 49.9428 25.9215 50.0022C26.0291 50.0617 26.1487 50.0961 26.2715 50.1027C26.3942 50.1094 26.5169 50.0882 26.6302 50.0407C26.8812 49.9353 27.0992 49.7643 27.2613 49.5455C27.4234 49.3268 27.5236 49.0685 27.5515 48.7977C27.6542 47.7932 28.054 46.8421 28.6999 46.0659L29.5869 44.9982C29.7529 44.7986 29.8776 44.5681 29.9538 44.3198L30.865 41.3606C31.1262 40.5072 31.6474 39.7567 32.3559 39.214L35.0913 37.1114C35.2024 37.026 35.2949 36.9189 35.3634 36.7966C35.4318 36.6743 35.4748 36.5394 35.4895 36.4C35.5043 36.2607 35.4906 36.1198 35.4493 35.9859C35.408 35.852 35.34 35.7278 35.2493 35.621L33.4446 33.4955C33.3391 33.3708 33.237 33.2405 33.1421 33.1082L32.8196 32.6657L30.927 35.1969C30.8725 35.2699 30.8017 35.3291 30.7202 35.3699C30.6387 35.4107 30.5489 35.432 30.4578 35.432C30.3667 35.432 30.2768 35.4107 30.1953 35.3699C30.1139 35.3291 30.043 35.2699 29.9885 35.1969L26.4444 30.4563C25.8137 29.6078 25.4424 28.5948 25.3754 27.5396C24.4884 27.1475 23.2192 27.1412 22.4444 27.5566L20.9585 28.3535C20.5526 28.5714 20.0989 28.6852 19.6383 28.6848C19.1627 28.6856 18.6946 28.5663 18.2775 28.3378C17.8605 28.1093 17.5079 27.7791 17.2526 27.3779L15.8094 25.0969C15.4935 24.5977 15.3301 24.0173 15.3392 23.4266C15.3483 22.836 15.5295 22.2609 15.8606 21.7717C16.2161 21.2429 16.7119 20.8236 17.2925 20.561C17.873 20.2985 18.5153 20.2029 19.1471 20.2852L21.3317 20.5628C21.7301 20.6136 22.1346 20.5463 22.495 20.3692C22.8554 20.1921 23.1559 19.9131 23.3591 19.5667C23.6875 19.0067 24.1733 18.5555 24.7561 18.2694C25.3389 17.9833 25.9929 17.8748 26.6368 17.9575L27.583 18.0784C27.9335 18.1223 28.2893 18.0741 28.6155 17.9385C28.9416 17.8028 29.2268 17.5845 29.4427 17.305L30.277 16.2217C30.6586 15.7284 30.8729 15.1262 30.8886 14.5027C30.9043 13.8792 30.7206 13.267 30.3643 12.7552L27.3712 8.4375C27.0384 8.47055 26.7001 8.50934 26.3617 8.5534C26.1913 8.94415 25.9761 9.31381 25.7205 9.65496L22.1769 14.3948C22.1223 14.4678 22.0515 14.5271 21.97 14.5679C21.8886 14.6087 21.7987 14.6299 21.7076 14.6299C21.6165 14.6299 21.5266 14.6087 21.4452 14.5679C21.3637 14.5271 21.2929 14.4678 21.2383 14.3948L18.6293 10.9048C17.2634 11.6574 15.9527 12.5061 14.707 13.4445C15.2151 14.3352 15.4488 15.3562 15.379 16.3793C15.3091 17.4024 14.9387 18.3821 14.3142 19.1955L10.7703 23.9354C10.7158 24.0084 10.6449 24.0676 10.5635 24.1085C10.482 24.1493 10.3922 24.1705 10.3011 24.1705C10.2099 24.1705 10.1201 24.1493 10.0386 24.1085C9.95716 24.0676 9.88633 24.0084 9.83177 23.9354L7.95256 21.4219C7.16 23.0356 6.52695 24.7229 6.06244 26.4596L8.15623 25.7786C8.17836 25.7714 8.2009 25.7655 8.22373 25.761Z" fill="white"/>
<path d="M33.5326 29.7548C34.1261 28.9812 34.4227 28.0206 34.3687 27.0471C34.2477 25.1864 32.7515 23.2634 30.4579 23.2634C28.1643 23.2634 26.668 25.1864 26.5472 27.0454C26.5016 28.0208 26.7988 28.9814 27.3873 29.7605L30.4579 33.8673L33.5326 29.7548ZM27.375 27.1658C27.3753 26.5852 27.5477 26.0178 27.8704 25.5352C28.1931 25.0526 28.6517 24.6765 29.1881 24.4545C29.7246 24.2325 30.3148 24.1745 30.8842 24.288C31.4536 24.4014 31.9765 24.6811 32.387 25.0917C32.7974 25.5023 33.0769 26.0254 33.19 26.5948C33.3032 27.1642 33.245 27.7544 33.0228 28.2908C32.8005 28.8271 32.4243 29.2855 31.9415 29.6081C31.4588 29.9306 30.8912 30.1027 30.3107 30.1027C29.5322 30.1017 28.7859 29.7919 28.2356 29.2413C27.6852 28.6907 27.3757 27.9443 27.375 27.1658Z" fill="white"/>
<path d="M30.3102 28.9308C31.2843 28.9308 32.074 28.1405 32.074 27.1657C32.074 26.1909 31.2843 25.4006 30.3102 25.4006C29.3361 25.4006 28.5464 26.1909 28.5464 27.1657C28.5464 28.1405 29.3361 28.9308 30.3102 28.9308Z" fill="white"/>
<path d="M10.3008 22.6061L13.3755 18.4928C13.9691 17.7193 14.2657 16.7586 14.2116 15.7851C14.0906 13.9244 12.5944 12.0015 10.3008 12.0015C8.00718 12.0015 6.51093 13.9244 6.39011 15.7835C6.34442 16.759 6.64173 17.7198 7.23046 18.499L10.3008 22.6061ZM10.1531 12.9673C10.734 12.9671 11.302 13.1391 11.7852 13.4617C12.2683 13.7842 12.6449 14.2428 12.8674 14.7795C13.0899 15.3161 13.1483 15.9067 13.0351 16.4765C12.9219 17.0463 12.6423 17.5697 12.2316 17.9806C11.8209 18.3914 11.2976 18.6713 10.7279 18.7847C10.1581 18.8981 9.56751 18.84 9.03078 18.6178C8.49405 18.3955 8.03528 18.0191 7.71251 17.5361C7.38973 17.0531 7.21745 16.4852 7.21745 15.9043C7.21817 15.1257 7.52769 14.3793 8.07812 13.8287C8.62855 13.2781 9.37492 12.9683 10.1535 12.9673H10.1531Z" fill="white"/>
</svg>
