<svg width="168" height="167" viewBox="0 0 168 167" fill="none" xmlns="http://www.w3.org/2000/svg">
<circle cx="84" cy="83.021" r="48.5" fill="white" stroke="#2AAAC0" stroke-width="3"/>
<g opacity="0.5">
<path d="M49.7171 16.8777C61.0732 10.9917 73.7534 8.12867 86.5367 8.5642C99.3201 8.99972 111.776 12.7192 122.705 19.3644C133.634 26.0096 142.668 35.3568 148.938 46.5058C155.207 57.6548 158.5 70.2302 158.5 83.021" stroke="#2AAAC0"/>
<path d="M157.515 95.0977C154.76 111.865 146.357 127.187 133.698 138.522C121.039 149.857 104.886 156.525 87.917 157.418C70.9484 158.311 54.1842 153.377 40.4051 143.434C26.626 133.491 16.6599 119.136 12.16 102.751" stroke="#2AAAC0"/>
<path d="M10.3552 94.2766C8.19074 80.1146 10.1555 65.6289 16.0141 52.5552C21.8727 39.4814 31.3766 28.3742 43.3871 20.5643" stroke="#2AAAC0"/>
</g>
<g opacity="0.5">
<path d="M32.2285 53.696C37.2633 44.8074 44.5017 37.3648 53.2469 32.0849C61.992 26.8049 71.9493 23.8654 82.1599 23.5495C92.3704 23.2336 102.49 25.5518 111.545 30.281C120.6 35.0102 128.285 41.991 133.86 50.5513" stroke="#2AAAC0"/>
<path d="M138.464 59.0632C143.928 71.4853 144.982 85.4022 141.45 98.5055C137.918 111.609 130.013 123.111 119.046 131.104C108.079 139.098 94.7093 143.102 81.154 142.453C67.5986 141.804 54.6725 136.54 44.5195 127.536" stroke="#2AAAC0"/>
<path d="M39.6184 122.651C31.9976 114.116 26.9992 103.565 25.2221 92.2623C23.445 80.9592 24.9646 69.3835 29.5988 58.9221" stroke="#2AAAC0"/>
</g>
<g opacity="0.5">
<path d="M54.2038 24.5341C64.0737 19.4184 75.0944 16.93 86.2048 17.3085C97.3151 17.6871 108.141 20.9197 117.64 26.6953C127.139 32.4708 134.99 40.5947 140.439 50.2846C145.888 59.9746 148.75 70.9042 148.75 82.021" stroke="#2AAAC0" stroke-width="0.5" stroke-dasharray="2 2"/>
<path d="M147.894 92.5172C145.5 107.09 138.196 120.407 127.194 130.259C116.192 140.11 102.152 145.905 87.4044 146.681C72.6565 147.458 58.0863 143.17 46.1105 134.528C34.1347 125.886 25.4729 113.41 21.5618 99.1685" stroke="#2AAAC0" stroke-width="0.5" stroke-dasharray="2 2"/>
<path d="M19.9933 91.8035C18.1121 79.495 19.8197 66.9051 24.9116 55.5423C30.0035 44.1796 38.2636 34.526 48.7022 27.7382" stroke="#2AAAC0" stroke-width="0.5" stroke-dasharray="2 2"/>
</g>
<g clip-path="url(#clip0)">
<path d="M73.6508 92.6666C75.2891 91.3908 76.3458 89.4016 76.3458 87.1693C76.3458 83.3279 73.2202 80.2026 69.3788 80.2026C65.5374 80.2026 62.4121 83.3279 62.4121 87.1693C62.4121 89.4016 63.4688 91.3908 65.1068 92.6666C62.7949 94.042 61 96.6396 61 99.8785V102.703C61 103.431 61.5902 104.021 62.3184 104.021H76.4396C77.1674 104.021 77.7579 103.431 77.7579 102.703V99.8785C77.7579 96.6402 75.9634 94.0423 73.6508 92.6666ZM65.0488 87.1693C65.0488 84.7819 66.9913 82.8394 69.3791 82.8394C71.7666 82.8394 73.7091 84.7819 73.7091 87.1693C73.7091 89.5572 71.7666 91.4997 69.3791 91.4997C66.9913 91.4997 65.0488 89.5572 65.0488 87.1693ZM75.1212 101.384H63.6367V99.8785C63.6367 96.7068 66.2027 94.1364 69.3788 94.1364C72.5504 94.1364 75.1209 96.7024 75.1209 99.8785V101.384H75.1212Z" fill="#2AAAC0"/>
<path d="M100.445 59.021H83.5C80.4321 59.021 77.9454 61.5032 77.9454 64.5756V89.9935C77.9454 91.0719 79.1821 91.7026 80.0548 91.0482L85.3516 87.0756H100.445C103.513 87.0756 106 84.5934 106 81.521V64.5756C106 61.5077 103.518 59.021 100.445 59.021V59.021ZM103.363 81.521C103.363 83.1339 102.059 84.4389 100.445 84.4389H84.9121C84.6268 84.4389 84.3494 84.5316 84.1211 84.7026L80.5821 87.3568V64.5756C80.5821 62.9627 81.8864 61.6577 83.5 61.6577H100.445C102.058 61.6577 103.363 62.962 103.363 64.5756V81.521Z" fill="#2AAAC0"/>
<path d="M99.0333 66.0814H84.9121C84.1839 66.0814 83.5938 66.6719 83.5938 67.3998C83.5938 68.128 84.1839 68.7181 84.9121 68.7181H99.0333C99.7612 68.7181 100.352 68.128 100.352 67.3998C100.352 66.6719 99.7615 66.0814 99.0333 66.0814Z" fill="#2AAAC0"/>
<path d="M99.0333 71.7301H84.9121C84.1839 71.7301 83.5938 72.3203 83.5938 73.0485C83.5938 73.7763 84.1839 74.3668 84.9121 74.3668H99.0333C99.7612 74.3668 100.352 73.7763 100.352 73.0485C100.352 72.3203 99.7615 71.7301 99.0333 71.7301Z" fill="#2AAAC0"/>
<path d="M91.9725 77.3784H84.9121C84.1839 77.3784 83.5938 77.9686 83.5938 78.6968C83.5938 79.425 84.1839 80.0151 84.9121 80.0151H91.9725C92.7007 80.0151 93.2909 79.425 93.2909 78.6968C93.2909 77.9686 92.7007 77.3784 91.9725 77.3784Z" fill="#2AAAC0"/>
</g>
<defs>
<clipPath id="clip0">
<rect width="45" height="45" fill="white" transform="translate(61 59.021)"/>
</clipPath>
</defs>
</svg>
