<svg width="60" height="60" viewBox="0 0 60 60" fill="none" xmlns="http://www.w3.org/2000/svg">
<g clip-path="url(#clip0)">
<path d="M30 24.2146C35.6307 24.2146 40.1953 19.65 40.1953 14.0193C40.1953 8.38857 35.6307 3.82397 30 3.82397C24.3693 3.82397 19.8047 8.38857 19.8047 14.0193C19.8047 19.65 24.3693 24.2146 30 24.2146Z" fill="white"/>
<path d="M50.625 24.2146C54.1846 24.2146 57.0703 21.3289 57.0703 17.7693C57.0703 14.2096 54.1846 11.324 50.625 11.324C47.0654 11.324 44.1797 14.2096 44.1797 17.7693C44.1797 21.3289 47.0654 24.2146 50.625 24.2146Z" fill="white"/>
<path d="M9.375 24.2146C12.9346 24.2146 15.8203 21.3289 15.8203 17.7693C15.8203 14.2096 12.9346 11.324 9.375 11.324C5.81535 11.324 2.92969 14.2096 2.92969 17.7693C2.92969 21.3289 5.81535 24.2146 9.375 24.2146Z" fill="white"/>
<path d="M15.7254 30.0026C13.1883 27.9239 10.8906 28.1991 7.95703 28.1991C3.56953 28.1991 0 31.7475 0 36.1081V48.9061C0 50.7999 1.5457 52.3397 3.44648 52.3397C11.6527 52.3397 10.6641 52.4882 10.6641 51.9858C10.6641 42.9171 9.58992 36.2666 15.7254 30.0026Z" fill="white"/>
<path d="M32.7903 28.2457C27.6664 27.8183 23.2127 28.2506 19.3711 31.4215C12.9426 36.5707 14.1797 43.5039 14.1797 51.9855C14.1797 54.2296 16.0055 56.0894 18.2836 56.0894C43.0198 56.0894 44.0043 56.8874 45.4711 53.639C45.9522 52.5405 45.8204 52.8896 45.8204 42.3808C45.8204 34.0341 38.593 28.2457 32.7903 28.2457Z" fill="white"/>
<path d="M52.0429 28.1988C49.0933 28.1988 46.8082 27.9264 44.2745 30.0023C50.3642 36.2198 49.3359 42.4165 49.3359 51.9855C49.3359 52.491 48.5152 52.3394 56.4304 52.3394C58.3991 52.3394 59.9999 50.7445 59.9999 48.7839V36.1078C59.9999 31.7472 56.4304 28.1988 52.0429 28.1988Z" fill="white"/>
</g>
<defs>
<clipPath id="clip0">
<rect width="60" height="60" fill="white"/>
</clipPath>
</defs>
</svg>
