<svg width="60" height="60" viewBox="0 0 60 60" fill="none" xmlns="http://www.w3.org/2000/svg">
<path d="M20.7316 17.0646H16.9085C15.9885 17.0646 15.2399 16.3152 15.2399 15.3942C15.2399 14.4699 15.9873 13.7237 16.9082 13.7237C16.9168 13.7237 16.9253 13.7238 16.9339 13.7238H20.5949C21.2523 13.7304 21.9025 14.0257 22.3793 14.5349C23.0456 15.2462 24.1623 15.2824 24.8736 14.6163C25.5849 13.9499 25.6214 12.8332 24.955 12.1219C23.8188 10.909 22.2372 10.2065 20.6155 10.1944C20.611 10.1944 20.6067 10.1944 20.6023 10.1944H20.5848V8.62628C20.5848 7.65169 19.7947 6.86157 18.8201 6.86157C17.8455 6.86157 17.0554 7.65169 17.0554 8.62628V10.1943C13.8525 10.1943 11.7106 12.6516 11.7106 15.394C11.7106 18.2612 14.0423 20.5939 16.9086 20.5939H20.7318C21.6518 20.5939 22.4003 21.3432 22.4003 22.2643C22.4003 23.1886 21.6529 23.9347 20.7321 23.9347C20.7235 23.9347 20.7149 23.9346 20.7065 23.9346H16.712C16.2476 23.9299 15.7546 23.7624 15.3229 23.4627C14.5222 22.9066 13.4227 23.1052 12.8669 23.906C12.3112 24.7066 12.5095 25.8062 13.3102 26.3619C14.5813 27.2444 15.7261 27.464 17.0555 27.464V29.032C17.0555 30.0066 17.8456 30.7967 18.8202 30.7967C19.7948 30.7967 20.5849 30.0066 20.5849 29.032V27.464C23.8109 27.464 25.9298 24.9855 25.9298 22.2643C25.9296 19.3972 23.5979 17.0646 20.7316 17.0646Z" fill="white"/>
<path d="M37.2295 22.76C39.7287 10.9907 30.7129 0 18.8202 0C8.44271 0 0 8.44694 0 18.8295C0 30.7287 10.9944 39.7636 22.7729 37.2425C20.2753 48.97 29.2526 60 41.1799 60C51.5573 60 60 51.5532 60 41.1706C60 29.2747 49.0067 20.2329 37.2295 22.76ZM3.52941 18.8295C3.52941 10.3931 10.3888 3.52941 18.8202 3.52941C29.4352 3.52941 36.8581 14.1636 33.1662 24.1362C29.2104 26.0065 26.0067 29.216 24.1427 33.1768C14.1793 36.8854 3.52941 29.4672 3.52941 18.8295ZM41.1799 56.4706C32.7486 56.4706 25.8892 49.6071 25.8892 41.1706C25.8892 32.7342 32.7486 25.8707 41.1799 25.8707C49.6112 25.8707 56.4706 32.7342 56.4706 41.1706C56.4706 49.6071 49.6112 56.4706 41.1799 56.4706Z" fill="white"/>
<path d="M47.2018 47.3582C44.7383 46.5762 42.1637 46.3278 39.6264 46.6158C39.984 45.5187 40.2359 44.3928 40.381 43.25H42.4957C43.4703 43.25 44.2604 42.4599 44.2604 41.4853C44.2604 40.5107 43.4703 39.7206 42.4957 39.7206H40.4866C40.4501 39.1626 40.4277 39.0034 40.2782 37.6402C40.0308 35.3811 42.835 34.1729 44.3195 35.8472C44.966 36.5764 46.0814 36.6438 46.8107 35.9968C47.5399 35.3504 47.6071 34.2349 46.9604 33.5056C43.2152 29.2812 36.1466 32.3441 36.77 38.0249C36.9292 39.4773 36.9173 39.3471 36.9473 39.7205H35.6921C34.7175 39.7205 33.9274 40.5106 33.9274 41.4852C33.9274 42.4598 34.7175 43.2499 35.6921 43.2499H36.8152C36.5437 44.9675 35.9711 46.6318 35.1078 48.1811C34.3454 49.5492 35.6195 51.164 37.1275 50.7387C40.1158 49.8975 42.9023 49.6959 46.134 50.722C47.0614 51.0166 48.0547 50.5042 48.35 49.574C48.6446 48.6452 48.1306 47.6532 47.2018 47.3582Z" fill="white"/>
<path d="M43.8234 5.54967C47.2814 5.54967 50.9566 8.16085 50.9566 13V14.6617L49.3673 13.0716C48.6785 12.3821 47.561 12.3821 46.8717 13.0708C46.1824 13.7598 46.182 14.8772 46.871 15.5665L51.4731 20.1712C52.1557 20.8547 53.2765 20.8647 53.9693 20.1712L58.5715 15.5665C59.2605 14.8772 59.2602 13.7599 58.5708 13.0708C57.8815 12.3818 56.7641 12.3821 56.0752 13.0716L54.4858 14.6618V13C54.4858 6.57991 49.6085 2.02026 43.8232 2.02026C42.8486 2.02026 42.0585 2.81038 42.0585 3.78497C42.0585 4.75956 42.8488 5.54967 43.8234 5.54967Z" fill="white"/>
<path d="M16.1766 54.4504C12.7186 54.4504 9.04342 51.8393 9.04342 47.0001V45.3383L10.6328 46.9286C11.3217 47.6177 12.4388 47.6184 13.1285 46.9293C13.8179 46.2403 13.8181 45.1229 13.1292 44.4336L8.52695 39.8288C7.84425 39.1447 6.72119 39.1368 6.03072 39.8288L1.42825 44.4337C0.739306 45.123 0.739541 46.2403 1.42895 46.9294C2.11813 47.6183 3.23554 47.6181 3.9246 46.9287L5.51401 45.3384V47.0001C5.51401 53.4203 10.3913 57.9799 16.1766 57.9799C17.1512 57.9799 17.9413 57.1897 17.9413 56.2151C17.9413 55.2406 17.1512 54.4504 16.1766 54.4504Z" fill="white"/>
</svg>
