<svg width="499" height="290" viewBox="0 0 499 290" fill="none" xmlns="http://www.w3.org/2000/svg">
<g opacity="0.8">
<circle cx="174" cy="270" r="19.5" stroke="white"/>
<circle cx="123" cy="270" r="19.5" stroke="white"/>
<circle cx="71" cy="270" r="19.5" stroke="white"/>
<circle cx="20" cy="270" r="19.5" stroke="white"/>
<circle cx="479" cy="20" r="19.5" stroke="white"/>
<circle cx="428" cy="70" r="19.5" stroke="white"/>
<circle cx="428" cy="20" r="19.5" stroke="white"/>
<circle cx="20" cy="20" r="19.5" stroke="white"/>
<circle cx="377" cy="120" r="19.5" stroke="white"/>
<circle cx="377" cy="70" r="19.5" stroke="white"/>
<circle cx="377" cy="20" r="19.5" stroke="white"/>
<circle cx="275" cy="220" r="19.5" stroke="white"/>
<circle cx="326" cy="170" r="19.5" stroke="white"/>
<circle cx="326" cy="120" r="19.5" stroke="white"/>
<circle cx="326" cy="70" r="19.5" stroke="white"/>
<circle cx="326" cy="20" r="19.5" stroke="white"/>
<circle cx="275" cy="170" r="19.5" stroke="white"/>
<circle cx="275" cy="120" r="19.5" stroke="white"/>
<circle cx="275" cy="70" r="19.5" stroke="white"/>
<circle cx="224" cy="220" r="19.5" stroke="white"/>
<circle cx="174" cy="220" r="19.5" stroke="white"/>
<circle cx="224" cy="170" r="19.5" stroke="white"/>
<circle cx="174" cy="170" r="19.5" stroke="white"/>
<circle cx="224" cy="120" r="19.5" stroke="white"/>
<circle cx="174" cy="120" r="19.5" stroke="white"/>
<circle cx="224" cy="70" r="19.5" stroke="white"/>
<circle cx="174" cy="70" r="19.5" stroke="white"/>
<circle cx="275" cy="20" r="19.5" stroke="white"/>
<circle cx="224" cy="20" r="19.5" stroke="white"/>
<circle cx="174" cy="20" r="19.5" stroke="white"/>
<circle cx="123" cy="220" r="19.5" stroke="white"/>
<circle cx="71" cy="220" r="19.5" stroke="white"/>
<circle cx="20" cy="220" r="19.5" stroke="white"/>
<circle cx="123" cy="170" r="19.5" stroke="white"/>
<circle cx="71" cy="170" r="19.5" stroke="white"/>
<circle cx="20" cy="170" r="19.5" stroke="white"/>
<circle cx="123" cy="120" r="19.5" stroke="white"/>
<circle cx="71" cy="120" r="19.5" stroke="white"/>
<circle cx="20" cy="120" r="19.5" stroke="white"/>
<circle cx="123" cy="70" r="19.5" stroke="white"/>
<circle cx="71" cy="70" r="19.5" stroke="white"/>
<circle cx="20" cy="70" r="19.5" stroke="white"/>
<circle cx="123" cy="20" r="19.5" stroke="white"/>
<circle cx="71" cy="20" r="19.5" stroke="white"/>
</g>
</svg>
