<svg width="620" height="536" viewBox="0 0 620 536" fill="none" xmlns="http://www.w3.org/2000/svg">
<path d="M529.204 253.084C650.266 317.804 650.266 422.738 529.203 487.459C408.14 552.181 211.858 552.181 90.7958 487.46C-30.2662 422.739 -30.2662 317.806 90.7973 253.084C211.86 188.363 408.142 188.363 529.204 253.084Z" fill="#EDEDEB"/>
<path d="M321.438 398.303C363.185 420.621 363.185 456.807 321.437 479.125C279.69 501.443 212.005 501.443 170.258 479.125C128.511 456.807 128.511 420.621 170.258 398.303C212.006 375.985 279.69 375.985 321.438 398.303Z" fill="#DADBD8"/>
<path d="M549.845 367.216L537.311 360.514C537.311 360.514 534.241 335.656 536.284 316.405C539.154 289.352 558.021 256.803 580.531 264.446C603.038 272.091 570.209 299.641 562.902 322.586C555.594 345.531 549.845 367.216 549.845 367.216Z" fill="#26B6A6"/>
<path d="M549.845 367.216L537.311 360.514C537.311 360.514 535.584 346.531 535.583 331.418C535.582 326.381 535.774 321.217 536.284 316.405C538.865 292.081 554.379 263.313 573.843 263.313C576.027 263.313 578.26 263.675 580.531 264.446C586.125 266.347 588.301 269.476 588.3 273.459C588.297 285.502 568.394 305.344 562.903 322.586C555.594 345.531 549.845 367.216 549.845 367.216Z" fill="#200D8A"/>
<path d="M543.254 364.395H543.279C543.698 364.381 544.027 364.056 544.013 363.667C541.811 303.559 574.125 273.322 574.452 273.025C574.75 272.751 574.754 272.307 574.459 272.032C574.162 271.754 573.682 271.752 573.387 272.023C573.054 272.327 540.271 302.997 542.495 363.716C542.509 364.096 542.846 364.395 543.254 364.395Z" fill="white"/>
<path d="M557.729 371.395L548.807 366.626C548.807 366.626 547.291 349.568 556.322 328.846C564.185 310.805 583.696 295.839 593.508 298.985C603.319 302.129 603.075 308.572 598.292 315.331C593.508 322.09 564.403 338.199 557.729 371.395Z" fill="#200D8A"/>
<path d="M553.022 369.582H553.026C553.445 369.579 553.784 369.265 553.782 368.876C553.605 330.871 592.143 305.184 592.534 304.928C592.875 304.705 592.956 304.267 592.713 303.949C592.475 303.634 592.001 303.555 591.656 303.783C591.261 304.041 552.084 330.153 552.264 368.882C552.265 369.269 552.605 369.582 553.022 369.582Z" fill="white"/>
<path d="M85.8585 352.281L97.4328 345.049C97.4328 345.049 102.528 316.969 97.7936 292.304C91.1378 257.626 65.3108 246.087 56.0942 249.71C46.8771 253.334 44.9085 263.677 62.104 283.474C72.2493 295.155 85.5034 319.994 85.8585 352.281Z" fill="#26B6A6"/>
<path d="M85.8586 352.281C85.5035 319.994 72.2494 295.155 62.1041 283.474C52.8345 272.802 49.1342 264.877 49.1357 259.271C49.1373 254.478 51.8461 251.381 56.0943 249.71C57.1629 249.29 58.4546 249.073 59.9144 249.073C71.0425 249.073 91.9099 261.648 97.7937 292.304C99.2962 300.132 99.8087 308.304 99.8082 315.814C99.8071 331.964 97.4329 345.049 97.4329 345.049L85.8586 352.281Z" fill="#200D8A"/>
<path d="M89.8335 338.391L89.7168 338.385C89.2579 338.335 88.9278 337.949 88.9834 337.524C93.1643 304.872 78.2773 269.447 62.0872 255.353C61.7495 255.059 61.733 254.567 62.0507 254.255C62.3688 253.945 62.8988 253.927 63.2365 254.222C79.7215 268.573 94.8914 304.574 90.6482 337.705C90.5984 338.095 90.2447 338.384 89.8335 338.391Z" fill="white"/>
<path d="M55.5409 371.217C53.7043 372.238 48.3345 368.55 46.8485 367.665C44.3047 366.149 42.2241 363.977 40.8209 361.502C39.1869 358.622 38.7263 355.513 39.1508 352.287C39.3719 350.614 39.8422 348.979 40.311 347.352C40.771 345.752 41.2321 344.153 41.6921 342.555C42.147 340.977 42.6049 339.345 42.3464 337.731C41.8283 334.476 38.6538 332.247 35.7692 330.326C32.5804 328.203 29.2461 325.384 29.1822 321.456C29.1329 318.426 30.7695 315.581 32.7474 313.166C34.7258 310.752 37.0892 308.608 38.8692 306.065C40.1511 304.234 41.1359 302.092 40.8763 299.924C40.7155 298.577 40.0838 297.315 39.3616 296.137C37.8104 293.607 35.7857 291.3 34.6955 288.571C33.6053 285.843 33.6814 282.423 35.9558 280.416C37.8226 278.769 40.6419 278.493 43.2186 278.604C45.6016 278.708 47.9475 279.659 50.0523 280.695C56.8581 284.042 60.855 291.357 68.0557 293.897C70.8335 294.877 73.8568 295.048 76.7449 295.7C79.6321 296.352 82.5896 297.658 83.9713 300.095C86.6955 304.898 81.9524 310.964 83.9035 316.079C85.6305 320.607 90.4488 322.266 93.2197 326.325C94.4317 328.1 94.7458 330.172 94.5999 332.267C94.3531 335.815 93.8479 338.424 92.0941 342.396C90.6456 345.679 86.3435 351.984 86.3435 351.984C86.3435 351.984 55.8224 371.06 55.5409 371.217Z" fill="#200D8A"/>
<path d="M73.3295 361.115H73.3063C72.8314 361.106 72.4655 360.749 72.4742 360.322C73.2164 329.475 56.8228 295.727 45.2116 286.045C44.8676 285.759 44.8394 285.268 45.1493 284.948C45.4603 284.629 45.9892 284.605 46.3341 284.89C58.1788 294.766 74.9034 329.075 74.1524 360.356C74.1416 360.775 73.7767 361.108 73.3295 361.115Z" fill="white"/>
<path d="M67.1916 323.536L66.9433 323.506C56.1852 320.635 42.8447 320.334 42.7122 320.332C42.248 320.322 41.8821 319.966 41.8913 319.538C41.9015 319.111 42.2455 318.766 42.7487 318.778C42.8849 318.782 56.4365 319.086 67.4074 322.014C67.852 322.131 68.1095 322.562 67.9811 322.974C67.8762 323.311 67.5503 323.53 67.1916 323.536Z" fill="white"/>
<path d="M377.317 331.079L372.325 328.407C370.752 327.565 369.477 325.518 369.477 323.837L369.476 131.913C369.476 130.231 370.751 128.186 372.325 127.344L510.943 53.2382C512.516 52.3974 515.068 52.3974 516.64 53.2382L521.634 55.9077C523.208 56.7472 524.483 58.793 524.483 60.4756V252.399C524.483 254.082 523.208 256.128 521.634 256.968L383.014 331.081C381.441 331.921 378.89 331.92 377.317 331.079Z" fill="#33535F"/>
<path d="M524.459 60.0479C524.261 58.6833 523.064 58.1837 521.63 58.9513L383.019 133.068C382.229 133.495 381.532 134.202 381.005 135.03L370.308 129.316C370.822 128.487 371.531 127.768 372.321 127.342L510.945 53.2369C512.511 52.3962 515.064 52.3962 516.643 53.2369L521.63 55.9053C523.077 56.6729 524.275 58.464 524.459 60.0479Z" fill="#200D8A"/>
<path d="M382.532 331.291C380.953 331.913 378.742 331.84 377.321 331.084L372.321 328.404C370.755 327.563 369.479 325.516 369.479 323.835V131.911C369.479 131.07 369.794 130.144 370.308 129.316L381.005 135.03C380.478 135.859 380.163 136.797 380.163 137.638V329.561C380.163 331.072 381.188 331.767 382.532 331.291Z" fill="#200D8A"/>
<path d="M380.165 137.635V329.558C380.165 331.239 381.441 331.921 383.013 331.081L521.634 256.968C523.207 256.128 524.482 254.082 524.482 252.399V60.4756C524.482 58.7929 523.207 58.1118 521.634 58.9525L383.013 133.065C381.441 133.907 380.165 135.953 380.165 137.635Z" fill="#200D8A"/>
<path d="M347.795 210.792C346.004 209.805 337.701 205.431 337.268 205.2C335.952 204.456 335.477 202.653 336.701 201.435L369.478 168.878L380.163 174.556L347.399 207.125C346.214 208.294 346.594 209.988 347.795 210.792Z" fill="#200D8A"/>
<path d="M380.166 174.561L347.395 207.121C345.753 208.753 347.139 211.4 349.54 211.217L380.165 208.882L380.166 174.561Z" fill="#200D8A"/>
<path d="M452.323 115.974C468.479 107.336 481.576 114.338 481.576 131.612C481.576 148.885 468.479 169.891 452.323 178.527C436.168 187.164 423.072 180.162 423.072 162.888C423.072 145.615 436.168 124.609 452.323 115.974Z" fill="#200D8A"/>
<path d="M452.118 129.568C457.359 126.764 461.609 129.037 461.609 134.64C461.609 140.245 457.359 147.06 452.118 149.862C446.877 152.663 442.628 150.392 442.628 144.787C442.628 139.184 446.877 132.369 452.118 129.568Z" fill="white"/>
<path d="M470.821 159.45C470.821 150.242 463.839 146.51 455.229 151.113L449.845 153.991C441.235 158.595 434.255 169.791 434.255 178.997V181.508C435.809 181.987 437.496 182.224 439.28 182.227C443.208 182.235 447.63 181.036 452.323 178.527C459.341 174.774 465.781 168.686 470.821 161.585V159.45Z" fill="white"/>
<path d="M433.793 264.046L470.854 244.233C472.428 243.391 473.703 244.074 473.703 245.756L473.704 256.809C473.704 258.491 472.428 260.537 470.854 261.378L433.793 281.192C432.219 282.033 430.944 281.352 430.944 279.669V268.615C430.944 266.934 432.219 264.888 433.793 264.046Z" fill="#200D8A"/>
<path d="M415.656 239.357L488.993 200.15C490.881 199.14 492.412 199.959 492.412 201.978V206.09C492.412 208.11 490.881 210.564 488.992 211.573L415.654 250.781C413.766 251.79 412.236 250.972 412.236 248.953V244.84C412.236 242.821 413.766 240.366 415.656 239.357Z" fill="#FAFAF9"/>
<path d="M422.252 217.774L424.169 216.748C424.639 216.497 425.014 216.165 425.296 215.749C425.576 215.335 425.715 214.798 425.715 214.139C425.715 213.48 425.576 213.1 425.296 212.998C425.014 212.895 424.639 212.968 424.169 213.222L422.252 214.245V217.774ZM424.231 210.982C425.229 210.447 426.005 210.368 426.558 210.743C427.11 211.119 427.387 211.953 427.387 213.246C427.387 214.541 427.11 215.676 426.558 216.653C426.005 217.631 425.229 218.387 424.231 218.92L422.252 219.978V223.914C422.252 224.043 422.218 224.172 422.152 224.301C422.086 224.433 422.007 224.52 421.916 224.568L420.915 225.103L420.678 225.089C420.612 225.03 420.58 224.937 420.58 224.807V213.411C420.58 213.281 420.612 213.151 420.678 213.021C420.745 212.893 420.824 212.803 420.915 212.755L424.231 210.982Z" fill="#FAFAF9"/>
<path d="M433.585 213.726L432.225 209.425L430.863 215.18L433.585 213.726ZM432.905 206.344C433.037 206.273 433.137 206.269 433.202 206.334C433.27 206.4 433.327 206.519 433.376 206.692L436.408 216.222L436.42 216.339C436.42 216.469 436.387 216.597 436.321 216.726C436.255 216.856 436.178 216.945 436.085 216.993L435.195 217.469C435.03 217.557 434.914 217.569 434.849 217.506L434.712 217.285L434.18 215.612L430.269 217.704L429.738 219.946C429.713 220.054 429.667 220.175 429.601 220.311C429.535 220.446 429.421 220.557 429.255 220.646L428.364 221.122L428.128 221.105C428.063 221.047 428.03 220.953 428.03 220.825L428.043 220.693L431.075 207.923C431.125 207.695 431.181 207.516 431.247 207.381C431.313 207.245 431.412 207.142 431.544 207.072L432.905 206.344Z" fill="#FAFAF9"/>
<path d="M441.024 201.827C441.577 201.532 442.063 201.377 442.483 201.365C442.906 201.351 443.254 201.429 443.536 201.597C443.816 201.764 444.028 202.001 444.174 202.306C444.318 202.61 444.399 202.928 444.415 203.261C444.423 203.398 444.393 203.528 444.323 203.655C444.252 203.779 444.171 203.867 444.081 203.915L443.214 204.378C443.074 204.454 442.97 204.471 442.899 204.433L442.706 204.229C442.583 203.999 442.396 203.843 442.145 203.761C441.891 203.678 441.519 203.768 441.024 204.034C440.809 204.147 440.606 204.289 440.412 204.456C440.217 204.626 440.048 204.81 439.905 205.011C439.759 205.211 439.646 205.423 439.565 205.642C439.482 205.862 439.441 206.085 439.441 206.308C439.441 206.58 439.479 206.779 439.558 206.908C439.636 207.037 439.767 207.113 439.954 207.136C440.138 207.161 440.386 207.143 440.69 207.086C440.995 207.028 441.375 206.95 441.828 206.848C442.323 206.736 442.75 206.689 443.11 206.703C443.469 206.718 443.76 206.807 443.987 206.974C444.215 207.141 444.383 207.383 444.495 207.699C444.607 208.017 444.662 208.415 444.662 208.898C444.662 209.426 444.579 209.962 444.415 210.503C444.25 211.043 444.015 211.557 443.71 212.045C443.404 212.531 443.031 212.988 442.583 213.414C442.138 213.839 441.638 214.201 441.086 214.496C440.623 214.745 440.182 214.901 439.762 214.965C439.341 215.032 438.969 215.003 438.644 214.878C438.317 214.751 438.054 214.53 437.855 214.212C437.659 213.894 437.548 213.484 437.523 212.979C437.513 212.843 437.546 212.712 437.615 212.586C437.684 212.46 437.766 212.374 437.855 212.325L438.723 211.862C438.863 211.786 438.97 211.764 439.044 211.796C439.119 211.827 439.18 211.9 439.23 212.012C439.288 212.136 439.358 212.252 439.441 212.359C439.523 212.468 439.633 212.544 439.774 212.587C439.913 212.63 440.09 212.632 440.3 212.598C440.511 212.561 440.773 212.46 441.086 212.291C441.333 212.159 441.573 212.005 441.804 211.828C442.035 211.652 442.237 211.455 442.411 211.239C442.583 211.024 442.723 210.796 442.831 210.556C442.937 210.316 442.991 210.061 442.991 209.789C442.991 209.532 442.933 209.352 442.819 209.248C442.703 209.145 442.528 209.099 442.292 209.107C442.057 209.113 441.767 209.158 441.42 209.237C441.074 209.315 440.674 209.396 440.22 209.474C439.807 209.553 439.446 209.577 439.137 209.549C438.827 209.52 438.571 209.418 438.37 209.245C438.167 209.071 438.017 208.818 437.919 208.489C437.82 208.159 437.77 207.731 437.77 207.2C437.77 206.673 437.853 206.139 438.017 205.607C438.182 205.07 438.409 204.566 438.699 204.094C438.986 203.623 439.33 203.189 439.732 202.793C440.131 202.396 440.563 202.074 441.024 201.827Z" fill="#FAFAF9"/>
<path d="M449.661 197.21C450.214 196.915 450.7 196.761 451.12 196.747C451.541 196.734 451.893 196.811 452.174 196.978C452.453 197.146 452.665 197.382 452.81 197.687C452.956 197.993 453.035 198.312 453.052 198.643C453.06 198.781 453.029 198.911 452.958 199.037C452.889 199.161 452.807 199.25 452.718 199.298L451.85 199.762C451.71 199.836 451.606 199.854 451.535 199.817L451.344 199.611C451.219 199.383 451.033 199.226 450.781 199.143C450.529 199.061 450.157 199.15 449.661 199.415C449.446 199.53 449.242 199.672 449.049 199.84C448.853 200.009 448.685 200.192 448.541 200.393C448.396 200.594 448.283 200.805 448.2 201.025C448.119 201.245 448.077 201.468 448.077 201.692C448.077 201.962 448.116 202.161 448.194 202.29C448.273 202.419 448.404 202.496 448.59 202.519C448.777 202.543 449.021 202.526 449.327 202.469C449.632 202.412 450.011 202.334 450.465 202.232C450.961 202.119 451.386 202.072 451.746 202.085C452.104 202.1 452.398 202.189 452.624 202.356C452.851 202.524 453.02 202.764 453.131 203.081C453.243 203.4 453.298 203.798 453.298 204.281C453.298 204.808 453.216 205.345 453.052 205.887C452.887 206.428 452.65 206.941 452.347 207.427C452.041 207.914 451.666 208.37 451.219 208.798C450.774 209.223 450.274 209.584 449.723 209.878C449.26 210.126 448.819 210.283 448.399 210.349C447.978 210.416 447.604 210.385 447.279 210.26C446.953 210.134 446.691 209.914 446.492 209.595C446.295 209.276 446.183 208.866 446.158 208.361C446.152 208.225 446.182 208.095 446.253 207.969C446.321 207.842 446.402 207.756 446.492 207.707L447.359 207.245C447.499 207.17 447.606 207.147 447.681 207.18C447.756 207.209 447.816 207.282 447.866 207.395C447.924 207.518 447.995 207.634 448.077 207.742C448.16 207.85 448.27 207.926 448.411 207.969C448.552 208.012 448.728 208.014 448.937 207.98C449.148 207.942 449.408 207.841 449.723 207.674C449.97 207.541 450.21 207.388 450.44 207.21C450.67 207.035 450.873 206.838 451.046 206.623C451.219 206.406 451.361 206.179 451.469 205.938C451.575 205.699 451.628 205.445 451.628 205.173C451.628 204.915 451.57 204.734 451.456 204.631C451.34 204.528 451.164 204.481 450.928 204.489C450.695 204.497 450.403 204.54 450.056 204.62C449.711 204.699 449.31 204.778 448.856 204.856C448.445 204.935 448.082 204.961 447.773 204.933C447.465 204.902 447.207 204.801 447.007 204.628C446.804 204.454 446.653 204.202 446.554 203.872C446.455 203.543 446.407 203.114 446.407 202.584C446.407 202.055 446.488 201.522 446.653 200.987C446.817 200.453 447.045 199.949 447.334 199.478C447.623 199.005 447.966 198.571 448.367 198.175C448.769 197.779 449.199 197.458 449.661 197.21Z" fill="#FAFAF9"/>
<path d="M459.252 198.735L458.188 204.578C458.147 204.776 458.094 204.947 458.032 205.092C457.97 205.237 457.878 205.343 457.755 205.408L456.751 205.945C456.628 206.011 456.53 206.009 456.461 205.932C456.39 205.859 456.344 205.739 456.319 205.577L454.734 195.293L454.722 195.157C454.722 195.028 454.756 194.898 454.82 194.769C454.886 194.641 454.965 194.549 455.056 194.502L455.97 194.012L456.207 193.992C456.281 194.024 456.331 194.12 456.355 194.285L457.395 201.209L458.311 196.009C458.328 195.916 458.367 195.79 458.43 195.628C458.49 195.466 458.596 195.345 458.744 195.264L459.757 194.722C459.907 194.642 460.013 194.652 460.075 194.748L460.192 195.001L461.107 199.223L462.147 191.189C462.171 190.998 462.221 190.849 462.296 190.737L462.531 190.507L463.446 190.017L463.681 190.033C463.747 190.091 463.78 190.185 463.78 190.315L463.768 190.461L462.184 202.441C462.159 202.631 462.111 202.801 462.043 202.949C461.972 203.098 461.876 203.206 461.751 203.272L460.748 203.808C460.625 203.875 460.531 203.869 460.469 203.79C460.409 203.711 460.357 203.595 460.314 203.44L459.252 198.735Z" fill="#FAFAF9"/>
<path d="M471.021 190.66C470.988 189.83 470.796 189.278 470.445 189.001C470.095 188.724 469.63 188.739 469.054 189.048C468.475 189.358 468.012 189.838 467.66 190.489C467.31 191.141 467.117 191.899 467.085 192.763C467.068 193.22 467.059 193.722 467.059 194.269C467.059 194.816 467.068 195.306 467.085 195.746C467.117 196.574 467.31 197.125 467.66 197.396C468.012 197.667 468.475 197.648 469.054 197.34C469.63 197.031 470.095 196.554 470.445 195.909C470.796 195.261 470.988 194.508 471.021 193.642C471.038 193.186 471.046 192.685 471.046 192.138C471.046 191.591 471.038 191.099 471.021 190.66ZM465.414 193.57C465.441 192.898 465.527 192.229 465.68 191.565C465.834 190.901 466.059 190.275 466.355 189.688C466.652 189.1 467.024 188.559 467.468 188.07C467.916 187.577 468.442 187.17 469.054 186.843C469.655 186.52 470.179 186.365 470.624 186.372C471.07 186.382 471.441 186.525 471.738 186.801C472.036 187.077 472.261 187.463 472.419 187.954C472.575 188.447 472.666 189.021 472.692 189.678C472.699 189.899 472.705 190.142 472.709 190.41C472.713 190.678 472.716 190.956 472.716 191.244C472.716 191.532 472.713 191.813 472.709 192.086C472.705 192.36 472.699 192.61 472.692 192.836C472.666 193.51 472.578 194.176 472.425 194.841C472.272 195.505 472.047 196.13 471.751 196.718C471.454 197.305 471.08 197.843 470.632 198.331C470.18 198.819 469.655 199.223 469.054 199.545C468.442 199.87 467.916 200.031 467.468 200.023C467.024 200.013 466.652 199.873 466.355 199.602C466.059 199.333 465.834 198.948 465.68 198.446C465.527 197.945 465.441 197.372 465.414 196.727C465.406 196.509 465.4 196.266 465.397 195.996C465.392 195.728 465.391 195.45 465.391 195.161C465.391 194.873 465.392 194.592 465.397 194.32C465.4 194.047 465.406 193.798 465.414 193.57Z" fill="#FAFAF9"/>
<path d="M476.614 188.535L478.407 187.576C478.879 187.325 479.253 187.006 479.535 186.62C479.815 186.236 479.954 185.714 479.954 185.054C479.954 184.396 479.815 184.031 479.535 183.956C479.253 183.883 478.879 183.972 478.407 184.224L476.614 185.183V188.535ZM478.47 181.985C479.5 181.434 480.283 181.356 480.82 181.751C481.356 182.148 481.626 182.951 481.626 184.162C481.626 185.021 481.487 185.827 481.211 186.58C480.933 187.334 480.528 188 479.991 188.581L481.699 192.026L481.737 192.201L481.656 192.517L481.465 192.734L480.412 193.296C480.248 193.383 480.126 193.393 480.047 193.324L479.879 193.105L478.26 189.86L476.614 190.74V194.85C476.614 194.981 476.581 195.109 476.515 195.238C476.448 195.368 476.37 195.456 476.279 195.506L475.277 196.042L475.042 196.025C474.975 195.966 474.942 195.874 474.942 195.745V184.347C474.942 184.218 474.975 184.088 475.042 183.96C475.108 183.828 475.186 183.741 475.277 183.691L478.47 181.985Z" fill="#FAFAF9"/>
<path d="M489.273 181.078C489.256 180.712 489.205 180.387 489.119 180.112C489.031 179.836 488.905 179.62 488.735 179.47C488.565 179.319 488.353 179.246 488.099 179.246C487.841 179.248 487.536 179.343 487.182 179.533L485.524 180.419V188.357L487.244 187.439C487.582 187.258 487.876 187.034 488.123 186.766C488.37 186.499 488.576 186.204 488.741 185.879C488.906 185.555 489.031 185.206 489.119 184.831C489.205 184.456 489.256 184.074 489.273 183.689C489.306 182.801 489.306 181.932 489.273 181.078ZM487.244 177.294C487.855 176.969 488.384 176.799 488.834 176.787C489.284 176.777 489.659 176.903 489.961 177.166C490.261 177.428 490.492 177.815 490.653 178.33C490.814 178.844 490.91 179.461 490.944 180.185C490.977 181.037 490.977 181.908 490.944 182.796C490.91 183.555 490.814 184.278 490.653 184.963C490.492 185.65 490.264 186.283 489.967 186.866C489.669 187.447 489.301 187.971 488.859 188.436C488.418 188.903 487.901 189.293 487.306 189.611L484.187 191.278L483.952 191.262C483.886 191.203 483.853 191.111 483.853 190.981V179.583C483.853 179.455 483.886 179.324 483.952 179.196C484.019 179.066 484.096 178.977 484.187 178.928L487.244 177.294Z" fill="#FAFAF9"/>
<path d="M300.255 39.6563C300.791 39.7672 301.212 40.0438 301.516 40.4861C301.822 40.9296 301.914 41.3987 301.795 41.897L300.365 47.8759C300.245 48.3766 299.947 48.7665 299.469 49.0468C298.991 49.3307 298.485 49.416 297.947 49.3063L291.636 48.0123C291.096 47.9002 290.674 47.6248 290.37 47.1813C290.065 46.739 289.971 46.27 290.091 45.7704L291.521 39.7891C291.641 39.2932 291.938 38.9021 292.417 38.6194C292.896 38.338 293.403 38.2515 293.942 38.3623L300.255 39.6563ZM306.548 0.456944C308.848 0.929695 311.015 1.68269 313.051 2.71836C315.087 3.75281 316.813 5.02119 318.224 6.52352C319.636 8.02341 320.653 9.72924 321.273 11.6397C321.894 13.5478 321.938 15.6142 321.408 17.833C320.975 19.6448 320.292 21.1581 319.362 22.368C318.429 23.5791 317.36 24.6185 316.153 25.4872C314.945 26.3559 313.67 27.1175 312.334 27.7693C310.997 28.4236 309.731 29.0425 308.542 29.6286C307.347 30.2159 306.268 30.8629 305.306 31.5672C304.34 32.2738 303.666 33.1097 303.281 34.0759C303.063 34.5547 302.74 34.9386 302.312 35.2298C301.882 35.5246 301.399 35.6136 300.862 35.5039L295.283 34.3598C294.745 34.2501 294.311 33.9711 293.983 33.5227C293.654 33.0755 293.574 32.6089 293.741 32.1203C294.262 30.3731 295.036 28.9036 296.065 27.712C297.094 26.5228 298.236 25.4969 299.495 24.6379C300.753 23.7789 302.06 23.0381 303.415 22.4131C304.769 21.7868 306.031 21.1788 307.201 20.5866C308.368 19.9945 309.364 19.367 310.189 18.7054C311.015 18.0438 311.543 17.2359 311.771 16.2844C312.181 14.5639 311.738 12.9861 310.438 11.5557C309.138 10.1252 307.19 9.14316 304.597 8.61192C300.439 7.7578 296.92 9.05784 294.044 12.5072C293.681 12.9556 293.333 13.2761 293.007 13.4698C292.677 13.6648 292.194 13.6964 291.557 13.5648L285.614 12.3464C285.175 12.2562 284.826 12.0418 284.575 11.7055C284.321 11.368 284.25 10.9733 284.358 10.52C284.784 8.94579 285.699 7.43369 287.097 5.98498C288.493 4.53748 290.199 3.31905 292.204 2.32725C294.213 1.3391 296.458 0.645809 298.939 0.251038C301.419 -0.142517 303.955 -0.0742912 306.548 0.456944Z" fill="#200D8A"/>
<path d="M320.374 84.235C320.749 84.1801 321.095 84.2569 321.415 84.4677C321.732 84.6809 321.92 84.9599 321.982 85.306L322.719 89.4803C322.78 89.8276 322.696 90.1492 322.469 90.4429C322.24 90.7377 321.937 90.912 321.562 90.968L317.158 91.6357C316.783 91.693 316.437 91.6162 316.118 91.4042C315.8 91.1922 315.612 90.9132 315.55 90.5659L314.813 86.3916C314.752 86.0455 314.835 85.7239 315.064 85.429C315.292 85.1342 315.595 84.9587 315.97 84.9014L320.374 84.235ZM313.573 57.6135C315.177 57.3722 316.775 57.3393 318.367 57.5209C319.958 57.7024 321.415 58.1057 322.736 58.732C324.055 59.3619 325.178 60.2136 326.103 61.2907C327.031 62.369 327.629 63.6825 327.903 65.2287C328.125 66.4946 328.107 67.6266 327.844 68.6232C327.582 69.6199 327.183 70.541 326.649 71.3842C326.115 72.2273 325.509 73.0169 324.832 73.7528C324.157 74.4875 323.516 75.1845 322.915 75.8436C322.312 76.5028 321.8 77.173 321.376 77.8541C320.953 78.5339 320.753 79.2297 320.772 79.94C320.766 80.2994 320.663 80.6211 320.471 80.9111C320.275 81.1999 319.991 81.3729 319.617 81.4289L315.724 82.0186C315.347 82.0759 314.993 81.9991 314.658 81.7896C314.323 81.5812 314.142 81.301 314.116 80.9476C313.967 79.7036 314.056 78.579 314.388 77.5714C314.717 76.565 315.167 75.6353 315.735 74.7872C316.304 73.9392 316.937 73.1534 317.634 72.432C318.33 71.7107 318.97 71.0211 319.557 70.3619C320.141 69.7076 320.605 69.0692 320.953 68.449C321.299 67.8276 321.415 67.1867 321.297 66.5214C321.086 65.3225 320.365 64.4172 319.134 63.8055C317.905 63.1975 316.385 63.0294 314.576 63.3035C311.675 63.7422 309.779 65.409 308.886 68.3028C308.777 68.6756 308.646 68.9632 308.488 69.1654C308.33 69.3689 308.03 69.5029 307.586 69.5699L303.44 70.1986C303.131 70.2449 302.849 70.1901 302.594 70.0341C302.339 69.877 302.183 69.6406 302.127 69.325C301.965 68.2151 302.133 67.0295 302.631 65.7684C303.126 64.5086 303.881 63.323 304.894 62.213C305.909 61.1018 307.156 60.1271 308.636 59.2864C310.119 58.4444 311.764 57.8876 313.573 57.6135Z" fill="#26B6A6"/>
<path d="M316.921 91.6528C316.636 91.6528 316.368 91.5712 316.118 91.4043C315.8 91.1923 315.612 90.9132 315.55 90.566L314.813 86.3916C314.8 86.3185 314.795 86.2466 314.795 86.176C314.795 85.9103 314.883 85.6618 315.064 85.4291C315.292 85.1342 315.595 84.9588 315.97 84.9015L320.374 84.235C320.452 84.2228 320.529 84.218 320.606 84.218C320.894 84.218 321.162 84.3008 321.415 84.4677C321.732 84.6809 321.92 84.96 321.982 85.306L322.719 89.4804C322.732 89.5535 322.738 89.6254 322.738 89.696C322.738 89.9616 322.649 90.2114 322.469 90.4429C322.24 90.7378 321.937 90.912 321.562 90.9681L317.158 91.6358C317.078 91.6467 316.999 91.6528 316.921 91.6528ZM315.486 82.037C315.196 82.037 314.921 81.9541 314.658 81.7896C314.324 81.5813 314.142 81.301 314.116 80.9477C314.068 80.559 314.046 80.1825 314.046 79.817C314.046 79.0128 314.16 78.2647 314.388 77.5714C314.717 76.565 315.167 75.6353 315.736 74.7873C316.304 73.9393 316.937 73.1534 317.634 72.4321C318.33 71.7108 318.97 71.0211 319.557 70.3619C320.141 69.7076 320.605 69.0692 320.953 68.449C321.212 67.9836 321.342 67.5059 321.341 67.0161C321.341 66.8529 321.327 66.6884 321.298 66.5215C321.086 65.3225 320.365 64.4172 319.134 63.8056C318.286 63.3852 317.3 63.1756 316.175 63.1756C315.67 63.1756 315.138 63.2183 314.576 63.3036C311.675 63.7422 309.779 65.409 308.887 68.3028C308.777 68.6756 308.646 68.9632 308.488 69.1655C308.33 69.3689 308.03 69.5029 307.587 69.57L303.44 70.1987C303.369 70.2084 303.299 70.2145 303.232 70.2145C303.003 70.2145 302.792 70.1548 302.594 70.0342C302.339 69.877 302.184 69.6407 302.127 69.3251C302.089 69.0558 302.069 68.7829 302.068 68.5051C302.067 67.6363 302.255 66.7237 302.631 65.7685C303.126 64.5086 303.881 63.3231 304.894 62.2131C305.909 61.1019 307.156 60.1271 308.637 59.2864C310.12 58.4445 311.764 57.8877 313.574 57.6135C314.493 57.4746 315.411 57.4052 316.328 57.4052C317.008 57.4052 317.688 57.4441 318.367 57.5209C319.958 57.7025 321.415 58.1058 322.736 58.732C324.056 59.362 325.178 60.2136 326.103 61.2907C327.031 62.369 327.629 63.6825 327.903 65.2287C328.006 65.8123 328.057 66.3667 328.057 66.8931C328.057 67.5096 327.986 68.0859 327.844 68.6233C327.582 69.6199 327.183 70.5411 326.649 71.3842C326.115 72.2274 325.51 73.0169 324.832 73.7528C324.157 74.4876 323.516 75.1845 322.915 75.8437C322.312 76.5029 321.8 77.173 321.377 77.8541C320.973 78.5011 320.771 79.1639 320.771 79.8401C320.771 79.873 320.773 79.9059 320.773 79.94C320.766 80.2995 320.663 80.6211 320.471 80.9111C320.275 81.1999 319.991 81.3729 319.617 81.429L315.724 82.0187C315.643 82.0309 315.565 82.037 315.486 82.037Z" fill="#200D8A"/>
<path d="M369.009 36.5017C370.577 37.5325 371.953 38.7412 373.129 40.1205C374.307 41.5022 375.171 42.9655 375.716 44.5129C376.263 46.0603 376.442 47.6443 376.254 49.266C376.065 50.889 375.388 52.4571 374.224 53.9728C373.275 55.2108 372.241 56.1489 371.124 56.7849C370.005 57.4234 368.842 57.8913 367.633 58.1886C366.422 58.4871 365.201 58.6845 363.972 58.7844C362.738 58.8807 361.572 58.9745 360.472 59.0646C359.372 59.1548 358.336 59.3242 357.369 59.5715C356.399 59.8176 355.603 60.2502 354.981 60.8642C354.652 61.1603 354.277 61.3541 353.853 61.4479C353.429 61.5417 353.035 61.4662 352.667 61.2261L348.858 58.7186C348.491 58.4774 348.259 58.1398 348.166 57.7049C348.071 57.2699 348.171 56.8946 348.466 56.5754C349.461 55.413 350.548 54.5345 351.735 53.9411C352.919 53.349 354.132 52.9128 355.375 52.6362C356.618 52.3596 357.857 52.1854 359.094 52.1159C360.33 52.044 361.49 51.9575 362.574 51.8564C363.657 51.7553 364.623 51.5762 365.475 51.3215C366.323 51.0644 366.998 50.6124 367.497 49.963C368.4 48.7872 368.606 47.47 368.119 46.0079C367.633 44.547 366.504 43.2336 364.735 42.0687C361.893 40.1984 358.795 40.14 355.441 41.8884C355.012 42.1199 354.641 42.26 354.328 42.3088C354.012 42.3575 353.64 42.2393 353.206 41.9542L349.146 39.2822C348.845 39.0848 348.658 38.8216 348.583 38.4927C348.508 38.1637 348.591 37.8457 348.828 37.5362C349.691 36.4749 350.899 35.6049 352.452 34.9263C354.003 34.2488 355.704 33.8322 357.558 33.6786C359.411 33.5251 361.339 33.664 363.344 34.1002C365.348 34.534 367.237 35.3345 369.009 36.5017ZM350.779 64.1735C351.146 64.4172 351.369 64.7486 351.448 65.1726C351.524 65.5966 351.432 65.978 351.171 66.3179L348.037 70.4009C347.775 70.7421 347.416 70.948 346.959 71.0187C346.501 71.0906 346.09 71.0052 345.721 70.764L341.413 67.9275C341.045 67.6838 340.824 67.3536 340.746 66.9296C340.667 66.5044 340.76 66.1242 341.022 65.7843L344.157 61.7001C344.417 61.3602 344.775 61.1542 345.234 61.0824C345.691 61.0117 346.101 61.0958 346.471 61.3382L350.779 64.1735Z" fill="#26B6A6"/>
<path d="M346.65 71.043C346.315 71.043 346.004 70.9492 345.721 70.764L341.413 67.9275C341.045 67.6838 340.824 67.3536 340.746 66.9296C340.729 66.8333 340.72 66.7395 340.72 66.6469C340.718 66.3338 340.82 66.0463 341.022 65.7843L344.157 61.7001C344.417 61.3602 344.775 61.1542 345.234 61.0824C345.338 61.0665 345.441 61.058 345.541 61.058C345.877 61.058 346.186 61.1518 346.471 61.3382L350.779 64.1735C351.146 64.4172 351.369 64.7486 351.448 65.1726C351.465 65.2677 351.473 65.3615 351.473 65.4541C351.473 65.7672 351.373 66.0548 351.171 66.318L348.037 70.4009C347.775 70.7421 347.416 70.948 346.959 71.0187C346.854 71.0345 346.752 71.043 346.65 71.043ZM353.506 61.4869C353.211 61.4869 352.932 61.3991 352.668 61.2261L348.858 58.7186C348.491 58.4774 348.26 58.1398 348.166 57.7049C348.142 57.5989 348.132 57.4977 348.132 57.399C348.132 57.0908 348.242 56.8166 348.466 56.5754C349.461 55.413 350.548 54.5345 351.735 53.9411C352.919 53.349 354.132 52.9128 355.376 52.6362C356.618 52.3596 357.857 52.1854 359.094 52.1159C360.33 52.044 361.49 51.9575 362.575 51.8564C363.658 51.7553 364.623 51.5762 365.475 51.3215C366.323 51.0644 366.998 50.6124 367.497 49.963C368.083 49.2014 368.375 48.379 368.376 47.4969C368.376 47.018 368.291 46.5221 368.12 46.0079C367.633 44.547 366.504 43.2336 364.735 42.0687C363.267 41.1025 361.731 40.62 360.127 40.62C358.624 40.62 357.063 41.0428 355.441 41.8884C355.012 42.1199 354.641 42.26 354.328 42.3088C354.282 42.3161 354.235 42.3197 354.186 42.3197C353.902 42.3197 353.577 42.1979 353.206 41.9542L349.146 39.2822C348.845 39.0848 348.658 38.8216 348.583 38.4927C348.566 38.4159 348.557 38.3391 348.557 38.2636C348.556 38.015 348.646 37.7726 348.828 37.5362C349.691 36.4749 350.899 35.6049 352.452 34.9263C354.003 34.2488 355.705 33.8322 357.559 33.6786C358.044 33.6384 358.534 33.6189 359.03 33.6189C360.426 33.6189 361.864 33.7785 363.344 34.1002C365.348 34.534 367.237 35.3345 369.009 36.5017C370.578 37.5325 371.953 38.7412 373.129 40.1205C374.307 41.5022 375.171 42.9655 375.716 44.5129C376.123 45.6619 376.325 46.8304 376.327 48.0196C376.327 48.4326 376.303 48.8481 376.254 49.266C376.065 50.889 375.388 52.4571 374.224 53.9728C373.275 55.2108 372.241 56.1489 371.124 56.7849C370.005 57.4234 368.842 57.8913 367.633 58.1886C366.422 58.4871 365.201 58.6845 363.972 58.7844C362.738 58.8807 361.572 58.9745 360.472 59.0646C359.372 59.1548 358.336 59.3242 357.369 59.5715C356.399 59.8176 355.603 60.2502 354.981 60.8643C354.652 61.1603 354.277 61.3541 353.853 61.4479C353.735 61.4747 353.619 61.4869 353.506 61.4869Z" fill="#200D8A"/>
<path d="M252.795 172.034H206.047V67.1453C206.047 48.1768 222.653 32.8002 243.137 32.8002H247.457C267.94 32.8002 284.548 48.1768 284.548 67.1453V142.632C284.548 158.871 270.331 172.034 252.795 172.034Z" fill="#17282F"/>
<path d="M201.502 424.527C201.116 427.16 200.3 430.235 200.148 437.691C199.983 445.681 198.398 448.518 198.188 455.077C197.949 462.57 199.346 465.374 202.631 469.585C205.914 473.797 214.532 477.619 218.176 470.499C221.862 463.294 221.35 458.716 220.185 451.365C218.981 443.766 218.827 439.568 218.13 433.772C217.515 428.663 216.779 424.783 216.779 424.783L201.502 424.527Z" fill="#17282F"/>
<path d="M225.999 371.44L197.571 370.962C197.994 388.535 201.01 408.039 201.502 424.527C201.594 427.63 201.417 448.642 202.682 455.028C204.581 464.622 216.88 463.327 217.531 457.585C218.185 451.843 216.739 427.312 216.779 424.783C216.671 414.209 222.022 396.361 224.829 377.38C224.967 376.446 225.869 372.349 225.999 371.44Z" fill="#F6879F"/>
<path d="M262.516 410.853C262.516 410.853 261.394 410.294 261.162 411.403C260.887 412.723 260.477 415.442 259.885 417.608C259.062 420.618 258.378 425.578 258.87 428.031C259.364 430.485 265.54 433.642 269.55 434.783C275.467 436.464 279.525 439.211 282.767 442.036C286.738 445.496 295.307 448.767 301.144 448.727C308.05 448.681 312.865 446.598 315.14 443.174C317.516 439.598 313.066 439.335 305.173 434.594C303.381 433.517 301.342 432.299 299.047 430.91C286.544 423.348 281.966 419.295 278.429 411.731L262.516 410.853Z" fill="#17282F"/>
<path d="M278.527 406.17C278.317 400.73 282.346 354.574 282.346 354.574L255.349 365.97C261.13 397.921 262.362 405.456 262.465 410.684C262.42 410.806 262.304 411.25 262.312 412.022C262.336 418.23 269.902 421.578 275.803 425.716C278.135 427.35 284.914 432.177 291.765 435.365C296.053 437.361 304.761 437.542 305.839 434.987C298.657 429.91 288.213 422.309 282.501 416.511C279.773 413.741 278.738 411.612 278.527 406.17Z" fill="#F6879F"/>
<path d="M209.221 199.991C198.856 221.066 198.857 237.365 200.569 264.256C202.14 288.923 204.647 310.639 204.647 310.639C204.245 315.017 197.675 323.557 196.825 342.899C196.031 360.983 198.17 383.971 198.17 383.971C198.17 383.971 212.918 391.542 223.824 383.906C223.824 383.906 234.347 337.376 237.43 314.739C240.122 294.983 244.799 269.744 244.799 269.744L254.704 314.632C254.704 314.632 250.936 325.699 250.054 334.13C248.662 347.445 256.703 373.59 256.703 373.59C256.703 373.59 271.942 377.801 281.247 370.159C281.247 370.159 284.729 327.651 286.028 311.611C287.766 290.133 284.111 231.984 281.246 201.202L209.221 199.991Z" fill="#200D8A"/>
<path d="M244.798 269.743L248.892 235.954C248.892 235.954 267.236 233.684 275.546 226.45C275.546 226.45 269.302 237.043 253.932 239.1L248.012 270.542L254.704 314.632L244.798 269.743Z" fill="#17282F"/>
<path d="M319.073 191.688C320.217 181.332 320.171 174.432 320.073 173.105C319.673 167.741 318.637 166.87 310.542 157.369C299.611 144.541 290.283 133.012 280.416 121.541C273.372 113.352 265.969 112.092 258.736 112.462C253.68 112.722 263.545 135.226 268.514 148.541L296.873 176.786C297.745 177.901 298.147 179.273 298.001 180.643L296.258 204.689L304.751 215.207C304.751 215.207 317.612 204.94 319.073 191.688Z" fill="#F6879F"/>
<path d="M231.419 113.192C225.936 113.542 215.96 114.355 215.96 114.355C210.205 117.329 208.751 119.767 207.68 126.845C207.224 129.857 209.876 137.89 212.151 149.305L216.471 170.474L216.002 180.972C213.759 187.378 208.688 195.34 204.22 207.076C226.19 218.429 244.615 218.85 261.325 216.864C274.068 215.349 280.81 212.493 283.059 209.674C282.591 198.079 281.704 190.92 281.487 178.807C281.396 173.719 281.726 168.587 281.939 162.731C290.488 156.228 290.584 145.414 285.922 138.424C275.088 122.183 264.556 111.958 257.579 112.482L231.419 113.192Z" fill="#26B6A6"/>
<path d="M247.014 217.779C234.141 217.779 220.106 215.286 204.22 207.076C208.688 195.34 213.759 187.378 216.002 180.972L216.471 170.474L212.151 149.305C210.048 138.76 207.627 131.1 207.628 127.62C207.628 127.333 207.645 127.075 207.68 126.845C208.751 119.767 210.205 117.329 215.96 114.355C215.96 114.355 225.936 113.542 231.419 113.192L257.579 112.482C257.75 112.47 257.924 112.462 258.099 112.462C265.073 112.462 275.355 122.583 285.922 138.423C287.884 141.366 289.004 144.985 289.005 148.675C289.005 153.593 287.021 158.636 282.399 162.371C282.248 162.491 282.095 162.612 281.939 162.731C281.751 167.9 281.472 172.507 281.472 177.015C281.472 177.614 281.476 178.211 281.487 178.807C281.704 190.92 282.591 198.079 283.059 209.674C280.81 212.493 274.068 215.349 261.325 216.864C256.699 217.413 251.942 217.779 247.014 217.779ZM230.325 153.325C230.325 153.325 229.109 165.447 243.555 169.581C245.751 170.209 247.787 170.474 249.655 170.474C259.654 170.474 264.933 162.905 264.933 162.905C264.933 162.905 258.62 167.442 250.295 167.442C248.123 167.442 245.817 167.133 243.448 166.355C231.996 162.595 230.325 153.325 230.325 153.325Z" fill="#200D8A"/>
<path d="M249.655 170.474C247.787 170.474 245.751 170.209 243.555 169.581C229.11 165.447 230.326 153.325 230.326 153.325C230.326 153.325 231.997 162.595 243.448 166.355C245.817 167.133 248.124 167.442 250.295 167.442C258.62 167.442 264.934 162.905 264.934 162.905C264.934 162.905 259.654 170.474 249.655 170.474Z" fill="#200D8A"/>
<path d="M278.539 79.9181C278.108 97.5086 271.942 101.857 268.852 103.106C265.761 104.355 259.798 103.593 254.011 102.706V113.263C254.011 113.263 260.689 119.747 260.189 124.582C259.677 129.43 249.692 129.968 242.19 125.232C236.715 121.779 232.805 117.832 231.099 115.959C230.477 115.277 230.141 114.422 230.141 113.53V88.6884C230.141 88.6884 226.971 91.799 221.358 88.2388C215.759 84.6907 215.274 78.0685 218.7 74.3207C221.142 71.6596 227.349 71.4719 230.331 75.6073C232.004 78.6436 232.232 81.6921 234.109 80.4299C239.114 77.0938 236.43 69.5103 242.475 65.7624L242.501 65.7502C244.309 64.8498 246.359 64.0005 248.653 63.2634C259.433 59.8152 268.771 56.9166 271.023 50.0958C275.273 52.4315 279.066 59.1658 278.539 79.9181Z" fill="#F6879F"/>
<path d="M259.784 93.3257C259.784 94.6014 258.667 95.6346 257.291 95.6346C255.913 95.6346 254.797 94.6014 254.797 93.3257C254.797 92.05 255.913 91.0155 257.291 91.0155C258.667 91.0155 259.784 92.05 259.784 93.3257Z" fill="#C35363"/>
<path d="M255.623 77.251C255.699 78.6461 254.584 79.828 253.136 79.8913C251.686 79.9547 250.45 78.8764 250.374 77.4825C250.299 76.0874 251.412 74.9055 252.862 74.8421C254.311 74.7788 255.548 75.8571 255.623 77.251Z" fill="#17282F"/>
<path d="M275.564 77.4909C275.634 78.7593 274.621 79.8328 273.302 79.89C271.854 79.9546 270.869 79.0944 270.793 77.7005C270.723 76.4334 271.736 75.3587 273.054 75.3014C274.372 75.2429 275.496 76.2225 275.564 77.4909Z" fill="#17282F"/>
<path d="M252.243 71.4524C247.055 71.4524 245.034 72.6124 245.034 75.5902C245.034 79.2711 248.268 82.266 252.243 82.266C256.218 82.266 259.452 79.2711 259.452 75.5902C259.452 72.6124 257.43 71.4524 252.243 71.4524ZM252.243 83.5149C247.525 83.5149 243.685 79.9595 243.685 75.5902C243.685 70.2023 249.681 70.2023 252.243 70.2023C254.805 70.2023 260.802 70.2023 260.802 75.5902C260.802 79.9595 256.962 83.5149 252.243 83.5149Z" fill="#33535F"/>
<path d="M273.969 71.4524C268.781 71.4524 266.76 72.6124 266.76 75.5902C266.76 79.2711 269.994 82.266 273.969 82.266C277.945 82.266 281.178 79.2711 281.178 75.5902C281.178 72.6124 279.156 71.4524 273.969 71.4524ZM273.969 83.5149C269.251 83.5149 265.411 79.9595 265.411 75.5902C265.411 70.2023 271.407 70.2023 273.969 70.2023C276.53 70.2023 282.526 70.2023 282.526 75.5902C282.526 79.9595 278.688 83.5149 273.969 83.5149Z" fill="#33535F"/>
<path d="M262.131 73.0364L262.552 87.8342L270.963 85.4217L262.131 73.0364Z" fill="#F47089"/>
<path d="M254.004 102.703C247.894 101.961 235.326 98.6173 233.366 94.0165C233.366 94.0165 234.019 96.9079 237.774 99.8882C241.528 102.867 254.004 106.224 254.004 106.224V102.703Z" fill="#F47089"/>
<path d="M254.293 65.8501L248.721 68.9961C247.807 67.5108 248.315 65.6028 249.854 64.734C251.393 63.8641 253.381 64.3649 254.293 65.8501Z" fill="#17282F"/>
<path d="M276.999 69.3579L270.789 67.3487C271.329 65.7282 273.155 64.8631 274.871 65.4175C276.585 65.9719 277.538 67.7362 276.999 69.3579Z" fill="#17282F"/>
<path d="M260.125 76.2214C259.752 76.2214 259.452 75.9351 259.452 75.5902C259.452 74.5777 261.618 73.9222 263.561 73.9222C265.505 73.9222 266.76 74.5777 266.76 75.5902C266.76 75.9351 266.459 76.2153 266.085 76.2153C265.712 76.2153 265.411 75.9351 265.411 75.5902C265.351 75.4757 264.728 75.1711 263.561 75.1711C262.394 75.1711 260.862 75.4757 260.799 75.6012C260.799 75.9472 260.498 76.2214 260.125 76.2214Z" fill="#33535F"/>
<path d="M244.383 75.6926L244.306 75.6902L229.265 74.4205C228.994 74.1902 228.283 73.5079 226.8 72.9389L244.456 74.4473C244.826 74.4851 245.092 74.7958 245.052 75.1382C245.013 75.4574 244.721 75.6926 244.383 75.6926Z" fill="#33535F"/>
<path d="M182.63 90.2089C187.548 84.1229 190.903 79.5257 195.392 74.3096C197.942 71.3488 199.571 69.2336 202.024 66.1949C203.712 64.1028 204.7 62.3385 206.573 61.6903C208.678 60.9617 210.709 59.5191 212.063 58.2008C213.031 57.2589 213.823 56.1769 214.659 55.1339C217.469 51.6261 220.829 48.4947 224.596 45.8666C228.554 43.1032 232.954 40.9977 237.016 38.3659C239.44 36.7954 242.039 34.1867 239.09 31.7511C238.21 31.0237 237.09 30.5899 235.939 30.3571C228.779 28.9084 222.53 31.1942 215.529 32.8525C212.484 33.5726 209.49 34.4755 206.611 35.6415C205.214 36.2068 203.82 36.8222 202.662 37.7396C200.857 39.1701 199.777 41.2061 198.604 43.119C195.455 48.2559 188.933 52.7885 184.342 56.7861C178.956 61.4771 174.143 65.7782 167.999 70.9541C162.47 75.6109 157.06 79.9071 151.989 84.994C147.794 89.2025 149.321 92.4947 149.918 93.6327C153.336 100.143 157.164 102.477 161.737 106.512C169.657 113.498 196.938 133.594 205.987 140.228C207.924 141.647 209.445 143.488 210.423 145.589L212.151 149.305C222.467 151.062 229.35 136.721 220.806 119.452C219.421 116.651 217.222 114.266 214.534 112.451C203.764 105.177 182.63 90.2089 182.63 90.2089Z" fill="#F6879F"/>
<path d="M182.63 90.2089C182.63 90.2089 177.967 95.9831 170.021 98.2445C170.021 98.2445 176.602 99.7992 185.609 92.3144L182.63 90.2089Z" fill="#F47089"/>
<path d="M316.396 178.974L316.432 178.977L314.743 177.63L314.742 177.651C314.362 177.367 313.771 177.279 313.008 177.471L294.737 182.073C293.045 182.499 291.207 184.089 290.633 185.626L277.484 220.75C277.18 221.566 277.301 222.192 277.726 222.545L277.712 222.55L279.452 223.937L279.451 223.917C279.83 224.211 280.428 224.303 281.201 224.108L299.472 219.508C301.165 219.081 303.004 217.49 303.577 215.955C306.16 209.051 314.143 187.731 316.725 180.829C317.049 179.962 316.89 179.31 316.396 178.974Z" fill="#33535F"/>
<path d="M279.176 222.1L292.324 186.974C292.898 185.438 294.736 183.849 296.429 183.421L314.7 178.821C316.392 178.394 317.3 179.293 316.725 180.829C314.143 187.732 306.16 209.051 303.578 215.955C303.003 217.49 301.165 219.081 299.472 219.508L281.201 224.108C279.509 224.535 278.601 223.636 279.176 222.1Z" fill="#200D8A"/>
<path d="M294.44 184.397C293.489 185.093 292.67 186.051 292.32 186.978L279.168 222.093C278.884 222.881 278.967 223.499 279.351 223.855L277.716 222.557L277.733 222.542C277.299 222.186 277.181 221.568 277.483 220.748L290.635 185.618C290.952 184.752 291.703 183.872 292.587 183.176L294.44 184.397Z" fill="#273E47"/>
<path d="M311.377 194.981C310.089 198.559 305.497 200.947 297.951 202.602C290.404 204.258 286.224 211.678 287.442 213.936C288.662 216.194 300.856 218.292 305.734 217.646C310.612 217.001 315.518 210.472 316.995 208.452C318.471 206.431 320.192 192.321 318.625 190.386C317.057 188.45 313.762 188.747 313.762 188.747L311.377 194.981Z" fill="#F47089"/>
</svg>
