<svg width="1440" height="931" viewBox="0 0 1440 931" fill="none" xmlns="http://www.w3.org/2000/svg">
<mask id="mask0" mask-type="alpha" maskUnits="userSpaceOnUse" x="0" y="0" width="1440" height="931">
<path d="M0 0H1440V665L0 930.5V0Z" fill="#200D8A"/>
</mask>
<g mask="url(#mask0)">
<path d="M0 0H1440V665L0 930.5V0Z" fill="#200D8A"/>
<path d="M-9.36097 607.321C-4.58977 607.321 -0.721947 603.453 -0.721947 598.682C-0.721947 593.911 -4.58977 590.043 -9.36097 590.043C-14.1322 590.043 -18 593.911 -18 598.682C-18 603.453 -14.1322 607.321 -9.36097 607.321Z" stroke="white" stroke-width="2" stroke-linecap="round" stroke-linejoin="round"/>
<path d="M36.3195 606.519C41.0907 606.519 44.9585 602.651 44.9585 597.88C44.9585 593.109 41.0907 589.241 36.3195 589.241C31.5483 589.241 27.6805 593.109 27.6805 597.88C27.6805 602.651 31.5483 606.519 36.3195 606.519Z" stroke="white" stroke-width="2" stroke-linecap="round" stroke-linejoin="round"/>
<path d="M82 605.717C86.7712 605.717 90.639 601.849 90.639 597.078C90.639 592.307 86.7712 588.439 82 588.439C77.2288 588.439 73.361 592.307 73.361 597.078C73.361 601.849 77.2288 605.717 82 605.717Z" stroke="white" stroke-width="2" stroke-linecap="round" stroke-linejoin="round"/>
<path d="M127.68 604.915C132.452 604.915 136.319 601.047 136.319 596.276C136.319 591.504 132.452 587.636 127.68 587.636C122.909 587.636 119.041 591.504 119.041 596.276C119.041 601.047 122.909 604.915 127.68 604.915Z" stroke="white" stroke-width="2" stroke-linecap="round" stroke-linejoin="round"/>
<path d="M173.361 604.112C178.132 604.112 182 600.244 182 595.473C182 590.702 178.132 586.834 173.361 586.834C168.59 586.834 164.722 590.702 164.722 595.473C164.722 600.244 168.59 604.112 173.361 604.112Z" stroke="white" stroke-width="2" stroke-linecap="round" stroke-linejoin="round"/>
<path d="M-9.36097 555.487C-4.58977 555.487 -0.721947 551.619 -0.721947 546.848C-0.721947 542.077 -4.58977 538.209 -9.36097 538.209C-14.1322 538.209 -18 542.077 -18 546.848C-18 551.619 -14.1322 555.487 -9.36097 555.487Z" stroke="white" stroke-width="2" stroke-linecap="round" stroke-linejoin="round"/>
<path d="M36.3195 554.685C41.0907 554.685 44.9585 550.817 44.9585 546.046C44.9585 541.275 41.0907 537.407 36.3195 537.407C31.5483 537.407 27.6805 541.275 27.6805 546.046C27.6805 550.817 31.5483 554.685 36.3195 554.685Z" stroke="white" stroke-width="2" stroke-linecap="round" stroke-linejoin="round"/>
<path d="M82 553.883C86.7712 553.883 90.639 550.015 90.639 545.244C90.639 540.472 86.7712 536.604 82 536.604C77.2288 536.604 73.361 540.472 73.361 545.244C73.361 550.015 77.2288 553.883 82 553.883Z" stroke="white" stroke-width="2" stroke-linecap="round" stroke-linejoin="round"/>
<path d="M127.68 553.08C132.452 553.08 136.319 549.212 136.319 544.441C136.319 539.67 132.452 535.802 127.68 535.802C122.909 535.802 119.041 539.67 119.041 544.441C119.041 549.212 122.909 553.08 127.68 553.08Z" stroke="white" stroke-width="2" stroke-linecap="round" stroke-linejoin="round"/>
<path d="M173.361 552.278C178.132 552.278 182 548.41 182 543.639C182 538.868 178.132 535 173.361 535C168.59 535 164.722 538.868 164.722 543.639C164.722 548.41 168.59 552.278 173.361 552.278Z" stroke="white" stroke-width="2" stroke-linecap="round" stroke-linejoin="round"/>
<path d="M-9.36097 659.155C-4.58977 659.155 -0.721947 655.288 -0.721947 650.516C-0.721947 645.745 -4.58977 641.877 -9.36097 641.877C-14.1322 641.877 -18 645.745 -18 650.516C-18 655.288 -14.1322 659.155 -9.36097 659.155Z" stroke="white" stroke-width="2" stroke-linecap="round" stroke-linejoin="round"/>
<path d="M36.3195 658.353C41.0907 658.353 44.9585 654.485 44.9585 649.714C44.9585 644.943 41.0907 641.075 36.3195 641.075C31.5483 641.075 27.6805 644.943 27.6805 649.714C27.6805 654.485 31.5483 658.353 36.3195 658.353Z" stroke="white" stroke-width="2" stroke-linecap="round" stroke-linejoin="round"/>
<path d="M82 657.551C86.7712 657.551 90.639 653.683 90.639 648.912C90.639 644.141 86.7712 640.273 82 640.273C77.2288 640.273 73.361 644.141 73.361 648.912C73.361 653.683 77.2288 657.551 82 657.551Z" stroke="white" stroke-width="2" stroke-linecap="round" stroke-linejoin="round"/>
<path d="M127.68 656.749C132.452 656.749 136.319 652.881 136.319 648.11C136.319 643.338 132.452 639.471 127.68 639.471C122.909 639.471 119.041 643.338 119.041 648.11C119.041 652.881 122.909 656.749 127.68 656.749Z" stroke="white" stroke-width="2" stroke-linecap="round" stroke-linejoin="round"/>
<path d="M173.361 655.946C178.132 655.946 182 652.079 182 647.307C182 642.536 178.132 638.668 173.361 638.668C168.59 638.668 164.722 642.536 164.722 647.307C164.722 652.079 168.59 655.946 173.361 655.946Z" stroke="white" stroke-width="2" stroke-linecap="round" stroke-linejoin="round"/>
<path opacity="0.2" d="M590.111 239.907C618.629 459.31 503.088 675.871 295.736 776.878C87.5354 876.753 -212.476 861.073 -360.91 714.637C-508.323 568.387 -505.351 292.141 -383.353 80.6717C-261.355 -130.798 -20.3297 -277.491 184.94 -239.995C391.058 -201.367 562.614 20.691 590.111 239.907Z" fill="white"/>
<path opacity="0.2" d="M486.701 155.553L486.703 155.562C515.045 374.088 400.034 589.841 193.618 690.51C89.957 740.292 -36.6199 761.312 -155.769 751.618C-274.939 741.923 -386.432 701.528 -460.13 628.761C-533.294 556.109 -569.232 451.043 -571.637 337.64C-574.042 224.245 -542.906 102.674 -482.122 -2.76304C-421.337 -108.199 -330.903 -197.5 -230.124 -255.761C-129.335 -314.027 -18.3434 -341.169 83.605 -322.548C185.987 -303.359 279.92 -238.533 351.714 -151.066C423.504 -63.6032 473.035 46.3554 486.701 155.553Z" stroke="white" stroke-width="4"/>
<path opacity="0.5" d="M645.126 298.192L645.127 298.199C673.498 516.942 558.371 732.901 351.762 833.662C248.014 883.486 121.347 904.518 2.1189 894.818C-117.128 885.116 -228.75 844.692 -302.557 771.814C-375.835 699.047 -411.802 593.846 -414.209 480.352C-416.615 366.863 -385.455 245.201 -324.627 139.689C-263.798 34.1762 -173.301 -55.1881 -72.4459 -113.492C28.416 -171.801 139.529 -198.987 241.624 -180.339C344.151 -161.122 438.181 -96.2147 510.029 -8.68158C581.874 78.8478 631.446 188.893 645.126 298.192Z" stroke="white" stroke-width="3"/>
<g clip-path="url(#clip0)">
<path d="M458.535 185.974L453.465 208.026" stroke="white" stroke-width="6" stroke-linecap="round" stroke-linejoin="round"/>
<path d="M444.974 194.465L467.026 199.535" stroke="white" stroke-width="6" stroke-linecap="round" stroke-linejoin="round"/>
</g>
<path d="M463.211 560.209L461.07 576.552C461.03 576.899 461.082 577.25 461.22 577.571C461.358 577.892 461.578 578.171 461.857 578.38C462.137 578.59 462.466 578.723 462.813 578.765C463.159 578.808 463.511 578.759 463.833 578.624L479.373 571.88C479.692 571.738 479.968 571.514 480.173 571.232C480.379 570.95 480.507 570.619 480.545 570.271C480.583 569.924 480.529 569.573 480.389 569.253C480.249 568.933 480.028 568.655 479.748 568.448L466.349 558.848C466.068 558.649 465.741 558.526 465.399 558.491C465.058 558.455 464.712 558.508 464.397 558.645C464.082 558.782 463.807 558.998 463.599 559.272C463.392 559.546 463.258 559.869 463.211 560.209V560.209Z" stroke="white" stroke-width="3" stroke-linecap="round" stroke-linejoin="round"/>
</g>
<defs>
<clipPath id="clip0">
<rect width="32" height="32" fill="white" transform="translate(433.948 191.93) rotate(-32.051)"/>
</clipPath>
</defs>
</svg>
