<svg width="168" height="167" viewBox="0 0 168 167" fill="none" xmlns="http://www.w3.org/2000/svg">
<circle cx="84" cy="83.021" r="48.5" fill="white" stroke="#2AAAC0" stroke-width="3"/>
<g opacity="0.5">
<path d="M49.7171 16.8777C61.0731 10.9917 73.7533 8.12867 86.5367 8.5642C99.3201 8.99972 111.776 12.7192 122.705 19.3644C133.634 26.0096 142.668 35.3568 148.938 46.5058C155.207 57.6548 158.5 70.2302 158.5 83.021" stroke="#2AAAC0"/>
<path d="M157.515 95.0977C154.76 111.865 146.357 127.187 133.698 138.522C121.039 149.857 104.886 156.525 87.917 157.418C70.9483 158.311 54.1842 153.377 40.4051 143.434C26.6259 133.491 16.6599 119.136 12.1599 102.751" stroke="#2AAAC0"/>
<path d="M10.3552 94.2766C8.19071 80.1146 10.1555 65.6289 16.0141 52.5552C21.8727 39.4814 31.3766 28.3742 43.3871 20.5643" stroke="#2AAAC0"/>
</g>
<g opacity="0.5">
<path d="M32.2285 53.696C37.2632 44.8074 44.5017 37.3648 53.2468 32.0849C61.992 26.8049 71.9493 23.8654 82.1598 23.5495C92.3704 23.2336 102.49 25.5518 111.545 30.281C120.6 35.0102 128.285 41.991 133.859 50.5513" stroke="#2AAAC0"/>
<path d="M138.463 59.0632C143.928 71.4853 144.982 85.4022 141.45 98.5055C137.918 111.609 130.013 123.111 119.046 131.104C108.079 139.098 94.7093 143.102 81.154 142.453C67.5986 141.804 54.6725 136.54 44.5195 127.536" stroke="#2AAAC0"/>
<path d="M39.6184 122.651C31.9976 114.116 26.9991 103.565 25.222 92.2623C23.4449 80.9592 24.9645 69.3835 29.5988 58.9221" stroke="#2AAAC0"/>
</g>
<g opacity="0.5">
<path d="M54.2038 24.5341C64.0736 19.4184 75.0943 16.93 86.2047 17.3085C97.3151 17.6871 108.141 20.9197 117.64 26.6953C127.138 32.4708 134.99 40.5947 140.439 50.2846C145.888 59.9746 148.75 70.9042 148.75 82.021" stroke="#2AAAC0" stroke-width="0.5" stroke-dasharray="2 2"/>
<path d="M147.894 92.5172C145.5 107.09 138.196 120.407 127.194 130.259C116.192 140.11 102.152 145.905 87.4043 146.681C72.6565 147.458 58.0863 143.17 46.1104 134.528C34.1346 125.886 25.4729 113.41 21.5618 99.1685" stroke="#2AAAC0" stroke-width="0.5" stroke-dasharray="2 2"/>
<path d="M19.9932 91.8035C18.1121 79.495 19.8197 66.9051 24.9116 55.5423C30.0034 44.1796 38.2636 34.526 48.7022 27.7382" stroke="#2AAAC0" stroke-width="0.5" stroke-dasharray="2 2"/>
</g>
<g clip-path="url(#clip0)">
<path d="M95.8125 103.536C89.3686 103.536 84.125 98.2929 84.125 91.849C84.125 85.4051 89.3686 80.1615 95.8125 80.1615C102.256 80.1615 107.5 85.4051 107.5 91.849C107.5 98.2929 102.256 103.536 95.8125 103.536ZM95.8125 81.0365C89.8494 81.0365 85 85.8879 85 91.849C85 97.8101 89.8494 102.661 95.8125 102.661C101.776 102.661 106.625 97.8101 106.625 91.849C106.625 85.8879 101.776 81.0365 95.8125 81.0365Z" fill="black" stroke="#2AAAC0"/>
<path d="M93.5371 94.5819L93.915 94.9599L94.2669 94.5576L100.169 87.8114L100.17 87.8105C100.328 87.6288 100.604 87.6098 100.788 87.7703C100.97 87.9297 100.988 88.2044 100.829 88.3866L94.2662 95.8866C94.1885 95.9755 94.0758 96.0302 93.9567 96.0365H93.9567H93.9567H93.9566H93.9565H93.9565H93.9564H93.9564H93.9563H93.9562H93.9562H93.9561H93.9561H93.956H93.9559H93.9559H93.9558H93.9558H93.9557H93.9556H93.9556H93.9555H93.9555H93.9554H93.9553H93.9553H93.9552H93.9552H93.9551H93.955H93.955H93.9549H93.9549H93.9548H93.9547H93.9547H93.9546H93.9546H93.9545H93.9544H93.9544H93.9543H93.9543H93.9542H93.9541H93.9541H93.954H93.954H93.9539H93.9538H93.9538H93.9537H93.9537H93.9536H93.9535H93.9535H93.9534H93.9534H93.9533H93.9532H93.9532H93.9531H93.953H93.953H93.9529H93.9529H93.9528H93.9527H93.9527H93.9526H93.9526H93.9525H93.9524H93.9524H93.9523H93.9523H93.9522H93.9521H93.9521H93.952H93.952H93.9519H93.9518H93.9518H93.9517H93.9517H93.9516H93.9515H93.9515H93.9514H93.9514H93.9513H93.9512H93.9512H93.9511H93.9511H93.951H93.9509H93.9509H93.9508H93.9508H93.9507H93.9506H93.9506H93.9505H93.9505H93.9504H93.9503H93.9503H93.9502H93.9502H93.9501H93.95H93.95H93.9499H93.9498H93.9498H93.9497H93.9497H93.9496H93.9495H93.9495H93.9494H93.9494H93.9493H93.9492H93.9492H93.9491H93.9491H93.949H93.9489H93.9489H93.9488H93.9488H93.9487H93.9486H93.9486H93.9485H93.9485H93.9484H93.9483H93.9483H93.9482H93.9482H93.9481H93.948H93.948H93.9479H93.9479H93.9478H93.9477H93.9477H93.9476H93.9476H93.9475H93.9474H93.9474H93.9473H93.9473H93.9472H93.9471H93.9471H93.947H93.947H93.9469H93.9468H93.9468H93.9467H93.9467H93.9466H93.9466H93.9465H93.9464H93.9464H93.9463H93.9463H93.9462H93.9461H93.9461H93.946H93.946H93.9459H93.9458H93.9458H93.9457H93.9457H93.9456H93.9455H93.9455H93.9454H93.9454H93.9453H93.9452H93.9452H93.9451H93.9451H93.945H93.9449H93.9449H93.9448H93.9448H93.9447H93.9447H93.9446H93.9445H93.9445H93.9444H93.9444H93.9443H93.9442H93.9442H93.9441H93.9441H93.944H93.9439H93.9439H93.9438H93.9438H93.9437H93.9437H93.9436H93.9435H93.9435H93.9434H93.9434H93.9433H93.9432H93.9432H93.9431H93.9431H93.943H93.943H93.9429H93.9428H93.9428H93.9427H93.9427H93.9426H93.9425H93.9425H93.9424H93.9424H93.9423H93.9423H93.9422H93.9421H93.9421H93.942H93.942H93.9419H93.9418H93.9418H93.9417H93.9417H93.9416H93.9416H93.9415H93.9414H93.9414H93.9413H93.9413H93.9412H93.9412H93.9411H93.941H93.941H93.9409H93.9409H93.9408H93.9408H93.9407H93.9406H93.9406H93.9405H93.9405H93.9404H93.9404H93.9403H93.9402H93.9402H93.9401H93.9401H93.94H93.94H93.9399H93.9398H93.9398H93.9397H93.9397H93.9396H93.9396H93.9395H93.9395H93.9394H93.9393H93.9393H93.9392H93.9392H93.9391H93.9391H93.939H93.9389H93.9389H93.9388H93.9388H93.9387H93.9387H93.9386H93.9386H93.9385H93.9384H93.9384H93.9383H93.9383H93.9382H93.9382H93.9381H93.9381H93.938H93.9379H93.9379H93.9378H93.9378H93.9377H93.9377H93.9376H93.9376H93.9375C93.8231 96.0365 93.7096 95.9901 93.6262 95.9081C93.6259 95.9078 93.6257 95.9076 93.6254 95.9073L89.8773 92.1592C89.7069 91.9888 89.7069 91.711 89.8773 91.5407C90.0477 91.3703 90.3255 91.3703 90.4958 91.5407L93.5371 94.5819Z" fill="black" stroke="#2AAAC0"/>
<path d="M80.8125 97.9115H67.6875C65.3798 97.9115 63.5 96.0334 63.5 93.724V69.349C63.5 67.0396 65.3798 65.1615 67.6875 65.1615H71.4375C71.6789 65.1615 71.875 65.3576 71.875 65.599C71.875 65.8404 71.6789 66.0365 71.4375 66.0365H67.6875C65.8607 66.0365 64.375 67.5222 64.375 69.349V93.724C64.375 95.5508 65.8607 97.0365 67.6875 97.0365H80.8125C81.0539 97.0365 81.25 97.2326 81.25 97.474C81.25 97.7154 81.0539 97.9115 80.8125 97.9115Z" fill="black" stroke="#2AAAC0"/>
<path d="M93.9375 75.4115C93.6961 75.4115 93.5 75.2154 93.5 74.974V69.349C93.5 67.5222 92.0143 66.0365 90.1875 66.0365H86.4375C86.1962 66.0365 86 65.8404 86 65.599C86 65.3576 86.1962 65.1615 86.4375 65.1615H90.1875C92.4952 65.1615 94.375 67.0396 94.375 69.349V74.974C94.375 75.2154 94.1789 75.4115 93.9375 75.4115Z" fill="black" stroke="#2AAAC0"/>
<path d="M74.3438 63.2865H74.7519L74.8336 62.8866C75.224 60.9765 76.9155 59.5365 78.9375 59.5365C80.9596 59.5365 82.651 60.9765 83.0414 62.8866L83.1231 63.2865H83.5313H86.4375C86.6789 63.2865 86.875 63.4826 86.875 63.724V67.474C86.875 68.7485 85.837 69.7865 84.5625 69.7865H73.3125C72.038 69.7865 71 68.7485 71 67.474V63.724C71 63.4826 71.1962 63.2865 71.4375 63.2865H74.3438ZM72.375 64.1615H71.875V64.6615V67.474C71.875 68.2651 72.5182 68.9115 73.3125 68.9115H84.5625C85.3568 68.9115 86 68.2651 86 67.474V64.6615V64.1615H85.5H82.6875C82.4462 64.1615 82.25 63.9654 82.25 63.724C82.25 61.8972 80.7643 60.4115 78.9375 60.4115C77.1107 60.4115 75.625 61.8972 75.625 63.724C75.625 63.9654 75.4289 64.1615 75.1875 64.1615H72.375Z" fill="black" stroke="#2AAAC0"/>
<path d="M88.3125 75.4115H69.5625C69.3211 75.4115 69.125 75.2154 69.125 74.974C69.125 74.7326 69.3211 74.5365 69.5625 74.5365H88.3125C88.5539 74.5365 88.75 74.7326 88.75 74.974C88.75 75.2154 88.5539 75.4115 88.3125 75.4115Z" fill="black" stroke="#2AAAC0"/>
<path d="M82.6875 81.0365H69.5625C69.3211 81.0365 69.125 80.8404 69.125 80.599C69.125 80.3576 69.3211 80.1615 69.5625 80.1615H82.6875C82.9289 80.1615 83.125 80.3576 83.125 80.599C83.125 80.8404 82.9289 81.0365 82.6875 81.0365Z" fill="black" stroke="#2AAAC0"/>
<path d="M78.9375 86.6615H69.5625C69.3211 86.6615 69.125 86.4654 69.125 86.224C69.125 85.9826 69.3211 85.7865 69.5625 85.7865H78.9375C79.1789 85.7865 79.375 85.9826 79.375 86.224C79.375 86.4654 79.1789 86.6615 78.9375 86.6615Z" fill="black" stroke="#2AAAC0"/>
</g>
<defs>
<clipPath id="clip0">
<rect width="45" height="45" fill="white" transform="translate(63 59.0365)"/>
</clipPath>
</defs>
</svg>
