<svg width="62" height="54" viewBox="0 0 62 54" fill="none" xmlns="http://www.w3.org/2000/svg">
<path d="M0 54H62L0 0V54Z" fill="#D2F1F1"/>
<path d="M10.2998 18.0809V48.3963C10.2998 48.7183 10.5608 48.9794 10.8829 48.9794H33.0365C33.3583 48.9794 33.6193 48.7183 33.6193 48.3963V23.9109C33.6193 23.898 33.6131 23.8869 33.6119 23.8742C33.609 23.823 33.5989 23.7726 33.5821 23.7243C33.5756 23.7056 33.5711 23.6876 33.5629 23.6693C33.5346 23.6059 33.4952 23.5481 33.4462 23.4986L27.6164 17.6688C27.5669 17.6196 27.5088 17.5802 27.4449 17.5521C27.4274 17.5446 27.4096 17.5384 27.3914 17.5329C27.3426 17.5161 27.2919 17.506 27.2403 17.5026C27.2305 17.5043 27.2189 17.498 27.2067 17.498H10.8829C10.5608 17.498 10.2998 17.7588 10.2998 18.0809ZM31.6291 23.3279H27.7895V19.4883L31.6291 23.3279ZM11.4657 18.6639H26.6236V23.9109C26.6236 24.2327 26.8847 24.4937 27.2065 24.4937H32.4535V47.8135H11.4657V18.6639Z" fill="#242E33"/>
<path d="M34.7852 44.3155V45.4813H36.5341C36.8562 45.4813 37.1172 45.2205 37.1172 44.8985V14.5831C37.1172 14.261 36.8562 14 36.5341 14H14.3805C14.0585 14 13.7974 14.261 13.7974 14.5831V16.332H14.9635V15.1659H35.9511V44.3155H34.7852Z" fill="#242E33"/>
<path d="M14.964 25.6599H28.9556V26.8258H14.964V25.6599Z" fill="#242E33"/>
<path d="M14.964 22.1619H19.628V23.328H14.964V22.1619Z" fill="#242E33"/>
<path d="M14.964 29.1577H24.2919V30.3238H14.964V29.1577Z" fill="#242E33"/>
<path d="M25.458 29.1577H28.9558V30.3238H25.458V29.1577Z" fill="#242E33"/>
<path d="M14.964 32.6555H28.9556V33.8216H14.964V32.6555Z" fill="#242E33"/>
<path d="M14.964 39.6516H28.9556V40.8177H14.964V39.6516Z" fill="#242E33"/>
<path d="M20.2115 36.1536H28.9564V37.3194H20.2115V36.1536Z" fill="#242E33"/>
<path d="M14.964 36.1536H19.0449V37.3194H14.964V36.1536Z" fill="#242E33"/>
<path d="M14.964 43.1497H17.296V44.3155H14.964V43.1497Z" fill="#242E33"/>
<path d="M18.4616 43.1497H28.9554V44.3155H18.4616V43.1497Z" fill="#242E33"/>
</svg>
