<svg width="20" height="20" viewBox="0 0 20 20" fill="none" xmlns="http://www.w3.org/2000/svg">
<path d="M19.8284 0.171647C19.6626 0.00586635 19.414 -0.0451101 19.1965 0.041921L0.36834 7.57308C0.152911 7.65925 0.00865305 7.86441 0.00037181 8.09632C-0.00787036 8.3282 0.121504 8.54308 0.330254 8.64433L7.75477 12.2451L11.3556 19.6697C11.4538 19.8722 11.6589 19.9999 11.8827 19.9999C11.8897 19.9999 11.8966 19.9998 11.9036 19.9995C12.1355 19.9913 12.3407 19.847 12.4268 19.6316L19.9581 0.803599C20.0451 0.585944 19.9941 0.337389 19.8284 0.171647ZM2.0349 8.16863L16.9812 2.19016L8.07384 11.0975L2.0349 8.16863ZM11.8313 17.9651L8.90247 11.926L17.8099 3.01875L11.8313 17.9651Z" fill="#200D8A"/>
</svg>
