<svg width="620" height="536" viewBox="0 0 620 536" fill="none" xmlns="http://www.w3.org/2000/svg">
<g clip-path="url(#clip0)">
<path d="M88.9072 490.62C207.449 551.126 399.645 551.127 518.185 490.621C636.728 430.115 636.728 332.016 518.185 271.511C399.644 211.004 207.448 211.004 88.9061 271.509C-29.6355 332.015 -29.6355 430.115 88.9072 490.62Z" fill="#F2F2F0"/>
<path d="M476.593 393.959C483.09 397.703 495.857 396.415 505.111 391.08L558.447 360.156C567.702 354.821 569.925 347.456 563.414 343.704C556.903 339.952 544.127 341.237 534.876 346.575L481.581 377.513C472.33 382.852 470.096 390.215 476.593 393.959Z" fill="#E7E7E5"/>
<path d="M155.494 422.477L101.243 391.207L155.494 359.937V422.477Z" fill="#E7E7E5"/>
<path d="M308.829 441.185L221.389 390.753L308.85 340.42L308.829 441.185Z" fill="#E7E7E5"/>
<path d="M82.105 349.365C82.2569 336.697 73.3946 310.347 60.4255 293.74C47.4552 277.133 26.8979 264.857 12.1309 269.704C-1.6224 274.216 -0.355171 292.173 16.1204 304.26C32.596 316.347 57.3959 331.58 64.4561 352.216L79.4865 377.613L82.105 349.365Z" fill="#5FC8AB"/>
<path d="M74.1223 368.549L64.4561 352.216C57.3958 331.58 32.596 316.347 16.1203 304.26C7.15846 297.685 2.6968 289.375 2.70411 282.435C2.71037 276.616 5.85836 271.761 12.1309 269.704C14.345 268.977 16.6869 268.635 19.1171 268.635C32.8902 268.635 49.4007 279.624 60.4255 293.74C65.8193 300.647 70.5028 309.239 74.1223 317.831V368.549Z" fill="#200D8A"/>
<path d="M82.8329 366.711C82.4286 366.673 82.0827 366.372 82.0066 365.956C74.0301 322.611 39.4116 287.04 18.5313 279.023C18.054 278.839 17.815 278.303 17.9987 277.827C18.1807 277.352 18.707 277.103 19.1964 277.295C40.4744 285.464 75.733 321.619 83.8299 365.621C83.9222 366.124 83.5893 366.605 83.0865 366.699L82.8329 366.711Z" fill="white"/>
<path d="M76.0392 394.315C74.0864 387.169 65.5152 375.313 51.5407 365.436C36.0809 354.511 16.4131 349.337 11.9666 340.925C6.62428 330.819 15.2153 321.435 31.2046 323.609C47.1929 325.784 75.084 347.932 79.1892 380.824L76.0392 394.315Z" fill="#200D8A"/>
<path d="M79.2279 386.879C78.8762 386.845 78.5601 386.613 78.4359 386.257C65.5987 349.051 37.4422 335.708 24.3494 333.851C23.8423 333.78 23.4896 333.311 23.5616 332.804C23.6325 332.296 24.0823 331.944 24.6092 332.017C39.0881 334.071 67.0862 347.677 80.1904 385.655C80.3563 386.137 80.0981 386.665 79.6149 386.831C79.4866 386.876 79.3546 386.891 79.2279 386.879Z" fill="white"/>
<path d="M555.651 313.308C555.651 313.308 557.431 286.599 573.196 266.772C588.963 246.947 587.993 238.781 577.123 234.78C566.253 230.777 541.002 254.672 546.621 286.669C552.24 318.668 555.651 313.308 555.651 313.308Z" fill="#5FC8AB"/>
<path d="M555.024 313.645C553.8 313.645 550.829 310.637 546.621 286.669C546.072 283.543 545.817 280.495 545.815 277.541C545.801 252.495 563.946 234.341 574.505 234.341C575.442 234.341 576.323 234.485 577.123 234.78C582.25 236.667 585.175 239.481 585.179 244.008C585.184 249.079 581.526 256.297 573.196 266.772C557.431 286.599 555.651 313.308 555.651 313.308C555.651 313.308 555.436 313.645 555.024 313.645Z" fill="#200D8A"/>
<path d="M550.835 298.052C550.508 298.052 550.235 297.799 550.214 297.471C548.373 268.059 569.18 243.925 576.968 238.464C577.246 238.268 577.636 238.335 577.832 238.616C578.031 238.896 577.963 239.281 577.681 239.48C570.046 244.835 549.646 268.508 551.455 297.393C551.477 297.733 551.215 298.028 550.874 298.051L550.835 298.052Z" fill="white"/>
<path d="M551.365 335.363C551.365 335.363 560.866 338.649 573.075 340.58C585.283 342.509 590.671 336.68 590.671 336.68C590.671 336.68 585.864 325.249 578.93 322.041C578.93 322.041 590.685 324.433 600.12 330.719C600.12 330.719 607.575 330.832 610.541 319.472C610.541 319.472 606.125 312.636 591.305 308.944C591.305 308.944 600.322 306.679 613.315 309.987C614.289 310.373 618.441 295.687 619.698 288.911C620.954 282.136 618.226 282.207 612.935 280.796C607.643 279.387 590.119 275.456 586.807 278.361C583.493 281.267 581.812 291.201 581.812 291.201C581.812 291.201 579.63 285.34 581.315 278.611C581.315 278.611 576.552 276.752 569.164 278.899C563.121 280.653 562.825 284.76 563.099 289.4C563.298 292.792 564.118 296.407 565.716 301.181C565.716 301.181 561.004 295.152 560.858 282.083C560.858 282.083 548.489 288.216 546.376 300.472C545.236 307.096 543.617 326.559 551.365 335.363Z" fill="#200D8A"/>
<path d="M553.698 332.98C553.952 332.98 554.198 332.836 554.316 332.592C564.168 312.157 600.796 288.413 613.916 285.867C614.288 285.793 614.532 285.433 614.46 285.063C614.387 284.689 614.023 284.452 613.653 284.52C600.318 287.109 563.087 311.236 553.08 331.997C552.914 332.339 553.057 332.748 553.399 332.911L553.698 332.98Z" fill="white"/>
<path d="M77.3235 403.761C75.8084 403.761 74.9038 402.512 74.9038 400.42V176.141L350.024 17.5667L350.026 240.943C350.026 244.371 347.606 248.553 344.633 250.268L79.5151 403.077C78.7389 403.525 77.9803 403.761 77.3235 403.761Z" fill="#FAF9F9"/>
<path d="M350.806 16.216L74.1223 175.691V400.42C74.1223 403.031 75.4256 404.541 77.3225 404.541C78.1009 404.541 78.9774 404.286 79.9055 403.753L345.024 250.943C348.218 249.101 350.807 244.624 350.807 240.943L350.806 16.216ZM349.243 18.916L349.245 240.943C349.245 244.068 346.954 248.029 344.243 249.592L79.1246 402.401C78.4672 402.781 77.8438 402.981 77.3225 402.981C75.8445 402.981 75.6855 401.189 75.6855 400.42V176.592L349.243 18.916Z" fill="#D9DAD7"/>
<path d="M74.1223 175.691V213.216L350.803 53.7427L350.806 16.216L74.1223 175.691Z" fill="#200D8A"/>
<path d="M95.8218 177.693L95.8223 183.075C95.8223 184.175 96.6039 184.624 97.5575 184.075L182.624 135.044V125.663L97.5564 174.693C96.6023 175.244 95.8218 176.593 95.8218 177.693Z" fill="#FAF9F9"/>
<path d="M191.74 120.408C192.698 119.856 193.475 120.304 193.475 121.408V126.789C193.475 127.895 192.698 129.237 191.74 129.789L182.624 135.044V125.663L191.74 120.408Z" fill="#3C515C"/>
<path d="M74.1228 163.595C74.1228 159.913 76.7115 155.436 79.906 153.595L345.021 0.78801C348.215 -1.05331 350.806 0.438675 350.806 4.12135V16.216L74.1228 175.691V163.595Z" fill="#3C515C"/>
<path d="M320.054 21.4574C318.557 22.3214 317.342 24.4214 317.342 26.1481C317.342 27.8748 318.557 28.5761 320.054 27.7121C321.553 26.8481 322.768 24.7494 322.768 23.0214C322.768 21.2934 321.553 20.5934 320.054 21.4574Z" fill="#200D8A"/>
<path d="M328.649 16.4974C327.15 17.3614 325.936 19.4614 325.936 21.188C325.936 22.916 327.15 23.616 328.649 22.752C330.146 21.8894 331.361 19.788 331.361 18.0614C331.361 16.3334 330.146 15.6334 328.649 16.4974Z" fill="#200D8A"/>
<path d="M337.242 11.5374C335.743 12.4001 334.529 14.5014 334.529 16.228C334.529 17.9547 335.743 18.6547 337.242 17.792C338.74 16.928 339.954 14.8281 339.954 13.1014C339.954 11.3734 338.74 10.6734 337.242 11.5374Z" fill="#200D8A"/>
<path d="M261.353 92.6573C259.409 92.6573 258.072 91.108 258.072 88.4294C258.072 84.6547 260.727 80.064 264.002 78.176C264.953 77.6267 265.853 77.3667 266.65 77.3667C268.595 77.3667 269.932 78.916 269.932 81.5947C269.932 85.3694 267.277 89.9614 264.002 91.848C263.049 92.3974 262.151 92.6573 261.353 92.6573Z" fill="#52C3A2"/>
<path d="M234.228 108.292C232.283 108.292 230.948 106.743 230.948 104.064C230.948 100.289 233.601 95.6973 236.876 93.8107C237.828 93.2613 238.727 93.0027 239.525 93.0027C241.469 93.0027 242.806 94.5507 242.806 97.2293C242.806 101.005 240.151 105.596 236.876 107.483C235.924 108.032 235.025 108.292 234.228 108.292Z" fill="#52C3A2"/>
<path d="M288.479 77.0214C286.534 77.0214 285.197 75.4734 285.197 72.7947C285.197 69.0187 287.852 64.428 291.127 62.54C292.079 61.992 292.978 61.732 293.774 61.732C295.72 61.732 297.057 63.2814 297.057 65.96C297.057 69.736 294.402 74.3267 291.127 76.2134C290.176 76.7614 289.276 77.0214 288.479 77.0214Z" fill="#52C3A2"/>
<path d="M315.605 61.3574C313.66 61.3574 312.324 59.8081 312.324 57.1294C312.324 53.3548 314.979 48.7628 318.254 46.8761C319.205 46.3268 320.105 46.0668 320.902 46.0668C322.847 46.0668 324.183 47.6161 324.183 50.2948C324.183 54.0694 321.529 58.6614 318.254 60.5481C317.302 61.0974 316.403 61.3574 315.605 61.3574Z" fill="#52C3A2"/>
<path d="M101.605 216.139L165.99 179.028C169.185 177.187 171.774 178.679 171.774 182.361V244.075C171.774 247.756 169.185 252.233 165.99 254.075L101.607 291.185C98.4135 293.027 95.8239 291.535 95.8239 287.853L95.8223 226.139C95.8223 222.456 98.4115 217.98 101.605 216.139Z" fill="#D9DAD7"/>
<path d="M193.839 162.98L328.746 85.2161C331.94 83.3761 334.529 84.8681 334.529 88.5494V150.264C334.529 153.945 331.941 158.423 328.746 160.264L193.84 238.027C190.645 239.868 188.057 238.376 188.057 234.693L188.056 172.98C188.056 169.297 190.644 164.82 193.839 162.98Z" fill="#D9DAD7"/>
<path d="M101.607 309.947L203.966 250.948C207.161 249.107 209.751 250.415 209.751 253.868C209.751 257.321 207.162 261.613 203.969 263.455L101.607 322.455C98.4122 324.295 95.8235 322.988 95.8235 319.535C95.8235 316.08 98.4122 311.788 101.607 309.947Z" fill="#D9DAD7"/>
<path d="M101.607 331.832L203.966 272.833C207.161 270.992 209.751 272.3 209.751 275.753C209.751 279.207 207.162 283.5 203.969 285.341L101.607 344.34C98.4122 346.181 95.8235 344.873 95.8235 341.42C95.8235 337.965 98.4122 333.673 101.607 331.832Z" fill="#D9DAD7"/>
<path d="M101.607 353.719L203.966 294.719C207.161 292.877 209.751 294.185 209.751 297.64C209.751 301.093 207.162 305.385 203.969 307.227L101.607 366.227C98.4122 368.067 95.8235 366.759 95.8235 363.305C95.8235 359.852 98.4122 355.56 101.607 353.719Z" fill="#D9DAD7"/>
<path d="M150.074 279.507C150.074 277.297 151.628 274.611 153.544 273.507L331.057 171.192C332.972 170.088 336.078 170.087 337.996 171.192L341.907 173.445C343.823 174.551 345.377 177.236 345.377 179.445V315.284C345.377 317.484 343.815 320.184 341.908 321.284L164.396 423.598C162.486 424.698 159.363 424.698 157.455 423.598L153.544 421.344C151.636 420.244 150.074 417.544 150.074 415.344V279.507Z" fill="#200D8A"/>
<path d="M151.088 276.096L151.087 276.095C151.544 275.301 152.133 274.58 152.796 274.031C152.137 274.577 151.549 275.3 151.088 276.096ZM342.768 174.067C342.493 173.827 342.203 173.617 341.907 173.445L340.541 172.659L341.912 173.443C342.206 173.616 342.495 173.827 342.768 174.067ZM332.907 170.521C333.43 170.415 333.978 170.363 334.525 170.363C334.973 170.363 335.421 170.397 335.855 170.468C335.421 170.399 334.974 170.363 334.527 170.363C333.979 170.363 333.43 170.416 332.907 170.521Z" fill="#FCFCFC"/>
<path d="M160.935 281.764L151.088 276.096C151.549 275.3 152.137 274.577 152.796 274.031C153.038 273.831 153.291 273.653 153.548 273.505L331.062 171.197C331.598 170.884 332.232 170.657 332.906 170.521C333.43 170.416 333.979 170.363 334.527 170.363C334.974 170.363 335.421 170.399 335.855 170.468C336.638 170.596 337.377 170.839 337.988 171.197L340.541 172.659L341.907 173.445C342.203 173.617 342.493 173.827 342.768 174.067C343.38 174.601 343.928 175.285 344.359 176.032L160.935 281.764Z" fill="#200D8A"/>
<path d="M152.012 420.047C150.861 418.735 150.069 416.916 150.069 415.34V363.312L150.074 363.308V415.344C150.074 416.912 150.866 418.732 152.012 420.047Z" fill="#CACBC9"/>
<path d="M150.069 361.511V338.293L150.074 338.289V361.507L150.069 361.511Z" fill="#DADBD8"/>
<path d="M150.069 363.312V361.511L150.074 361.507V363.308L150.069 363.312Z" fill="#BFC0BE"/>
<path d="M150.069 325.785V316.407L150.074 316.404V325.781L150.069 325.785ZM150.069 303.899V294.521L150.074 294.519V303.896L150.069 303.899ZM150.069 282.013V279.503C150.069 278.405 150.463 277.176 151.087 276.095L151.088 276.096C150.462 277.18 150.074 278.403 150.074 279.507V282.011L150.069 282.013Z" fill="#DADBD8"/>
<path d="M150.069 294.521V282.013L150.074 282.011V294.519L150.069 294.521Z" fill="#BFC0BE"/>
<path d="M150.069 316.407V303.899L150.074 303.896V316.404L150.069 316.407Z" fill="#BFC0BE"/>
<path d="M150.069 338.293V325.785L150.074 325.781V338.289L150.069 338.293Z" fill="#BFC0BE"/>
<path d="M160.906 424.419C160.545 424.419 160.187 424.397 159.836 424.352C159.327 424.286 158.851 424.172 158.408 424.025C158.063 423.91 157.751 423.763 157.456 423.598L153.548 421.337C152.997 421.023 152.476 420.576 152.012 420.047C150.866 418.732 150.074 416.912 150.074 415.344V363.308V361.507V338.289V325.781V316.404V303.896V294.519V282.011V279.507C150.074 278.403 150.462 277.18 151.088 276.096L160.935 281.764L162.741 282.813C161.658 283.256 160.935 284.337 160.935 285.763V421.598C160.935 422.747 161.345 423.533 162.002 423.877C162.248 424 162.523 424.067 162.824 424.067C163.084 424.067 163.363 424.016 163.66 423.91C163.529 423.976 163.398 424.025 163.25 424.073C163.036 424.14 162.806 424.205 162.577 424.255C162.036 424.364 161.47 424.419 160.906 424.419Z" fill="#200D8A"/>
<path d="M344.555 176.388C344.553 176.383 344.55 176.376 344.547 176.371L345.014 175.655L344.555 176.388Z" fill="#BDBFBD"/>
<path d="M162.002 423.877C161.345 423.533 160.935 422.747 160.935 421.598V419.339L231.304 312.772L160.935 281.764L243.143 312.425C244.672 312.995 246.25 313.267 247.809 313.267C252.223 313.267 256.476 311.077 258.998 307.215L272.201 287.024L344.547 176.371C344.55 176.376 344.553 176.383 344.555 176.388L274.832 287.783L345.375 315.343C345.359 316.457 344.949 317.703 344.292 318.8L274.635 288.096L259.295 312.605C256.78 316.611 252.441 318.877 247.956 318.877C246.146 318.877 244.314 318.508 242.568 317.735L231.645 312.923L162.002 423.877Z" fill="#828282"/>
<path d="M307.404 125.816V437.688C307.404 441.369 309.993 442.863 313.188 441.021L453.528 360.133C456.72 358.292 459.311 353.815 459.311 350.133V38.2614C459.311 34.58 456.72 33.088 453.528 34.928L313.188 115.816C309.993 117.657 307.404 122.135 307.404 125.816Z" fill="#FAF9F9"/>
<path d="M307.404 125.816H306.623V437.688C306.624 439.12 306.978 440.331 307.683 441.215C308.382 442.102 309.449 442.597 310.605 442.589C311.553 442.588 312.559 442.284 313.578 441.696L453.918 360.808C455.671 359.793 457.187 358.12 458.293 356.213C459.395 354.304 460.088 352.156 460.092 350.133V38.2614C460.092 36.8307 459.737 35.6188 459.032 34.7348C458.333 33.8481 457.266 33.3521 456.109 33.3601C455.161 33.3614 454.155 33.6667 453.136 34.2534L312.797 115.141C311.043 116.156 309.527 117.829 308.422 119.736C307.32 121.647 306.627 123.793 306.623 125.816H307.404H308.185C308.181 124.157 308.782 122.227 309.774 120.516C310.761 118.804 312.137 117.319 313.578 116.492L453.918 35.6041C454.755 35.1214 455.504 34.9188 456.109 34.9201C456.852 34.9281 457.385 35.1868 457.811 35.7081C458.233 36.2321 458.529 37.0828 458.529 38.2614V350.133C458.533 351.792 457.931 353.724 456.94 355.433C455.953 357.145 454.577 358.631 453.136 359.457L312.797 440.345C311.96 440.828 311.21 441.031 310.605 441.029C309.863 441.021 309.33 440.763 308.904 440.241C308.482 439.717 308.185 438.868 308.185 437.688V125.816H307.404Z" fill="#D9DAD7"/>
<path d="M315.537 131.628C315.537 130.764 316.209 129.676 317.04 129.197L333.027 119.987C333.857 119.508 334.531 119.82 334.531 120.683C334.529 121.547 333.856 122.635 333.025 123.113L317.04 132.325C316.209 132.804 315.537 132.491 315.537 131.628Z" fill="#3C515C"/>
<path d="M315.537 137.839C315.537 136.975 316.209 135.887 317.04 135.408L333.027 126.197C333.857 125.719 334.531 126.031 334.531 126.895C334.529 127.757 333.856 128.845 333.025 129.324L317.04 138.536C316.209 139.013 315.537 138.703 315.537 137.839Z" fill="#3C515C"/>
<path d="M315.537 144.049C315.537 143.185 316.209 142.097 317.04 141.619L333.027 132.408C333.857 131.929 334.531 132.241 334.531 133.105C334.529 133.968 333.856 135.056 333.025 135.535L317.04 144.747C316.209 145.225 315.537 144.913 315.537 144.049Z" fill="#3C515C"/>
<path d="M440.01 71.9093C437.994 73.072 436.359 72.1293 436.359 69.8053C436.359 67.4813 437.994 64.656 440.01 63.4946C442.026 62.332 443.659 63.2747 443.659 65.5973C443.659 67.9213 442.026 70.7467 440.01 71.9093ZM448.458 64.0773V61.5866C448.458 61.4386 448.348 61.3666 448.212 61.428L446.289 62.2933C446.153 62.3546 446.014 62.288 445.97 62.1453C445.857 61.7933 445.712 61.476 445.54 61.1933C445.462 61.0666 445.445 60.8613 445.512 60.728L446.792 58.148C446.859 58.0147 446.808 57.848 446.679 57.7733L445.289 56.9707C445.159 56.8973 444.987 56.9373 444.905 57.0613L443.307 59.46C443.225 59.5826 443.038 59.6707 442.89 59.6667C442.559 59.6573 442.211 59.692 441.849 59.772C441.704 59.804 441.577 59.716 441.561 59.5693L441.351 57.4733C441.335 57.3253 441.219 57.2653 441.09 57.34L438.929 58.5853C438.8 58.66 438.685 58.84 438.672 58.988L438.456 61.388C438.442 61.536 438.341 61.736 438.231 61.836C437.809 62.2227 437.409 62.648 437.031 63.104C436.936 63.2187 436.746 63.2733 436.606 63.224L435.22 62.7413C435.078 62.692 434.903 62.7573 434.83 62.8853L433.242 65.632C433.167 65.76 433.198 65.944 433.311 66.04L434.424 66.9973C434.537 67.0947 434.584 67.2853 434.532 67.424C434.326 67.98 434.157 68.54 434.032 69.096C434 69.2413 433.877 69.4293 433.756 69.5147L431.782 70.9027C431.66 70.9867 431.562 71.1773 431.562 71.3253V73.816C431.562 73.9653 431.672 74.036 431.807 73.9747L433.73 73.1093C433.865 73.048 434.006 73.116 434.051 73.2573C434.162 73.6106 434.306 73.928 434.478 74.2093C434.557 74.336 434.573 74.5413 434.509 74.6747L433.227 77.2546C433.16 77.388 433.211 77.556 433.341 77.6306L434.732 78.432C434.86 78.5053 435.031 78.4667 435.114 78.3427L436.711 75.944C436.794 75.82 436.98 75.7333 437.13 75.7373C437.461 75.7453 437.807 75.7107 438.17 75.632C438.314 75.6 438.444 75.6867 438.458 75.8333L438.669 77.9293C438.684 78.0773 438.8 78.1373 438.929 78.064L441.09 76.8173C441.219 76.7426 441.334 76.564 441.347 76.4147L441.564 74.0147C441.578 73.8667 441.68 73.6667 441.789 73.5667C442.209 73.1813 442.611 72.7547 442.989 72.2987C443.084 72.184 443.272 72.1293 443.413 72.1787L444.8 72.6626C444.94 72.7106 445.115 72.6466 445.19 72.5173L446.778 69.772C446.852 69.6427 446.82 69.46 446.708 69.3626L445.594 68.4053C445.482 68.3093 445.435 68.1173 445.486 67.9787C445.695 67.424 445.863 66.864 445.987 66.3067C446.02 66.1613 446.142 65.9733 446.264 65.888L448.237 64.5013C448.359 64.416 448.458 64.2267 448.458 64.0773Z" fill="#2E3E47"/>
<path d="M383.358 125.544C399.755 116.092 413.048 123.755 413.048 142.656C413.048 161.56 399.755 184.544 383.358 193.997C366.958 203.448 353.665 195.787 353.665 176.883C353.665 157.981 366.958 134.995 383.358 125.544Z" fill="#828282"/>
<path d="M383.15 140.42C388.468 137.353 392.78 139.84 392.78 145.972C392.78 152.104 388.468 159.561 383.15 162.628C377.829 165.693 373.516 163.208 373.516 157.076C373.516 150.943 377.829 143.485 383.15 140.42Z" fill="#200D8A"/>
<path d="M402.13 173.12C402.13 163.044 395.045 158.96 386.307 163.999L380.843 167.148C372.104 172.184 365.018 184.436 365.018 194.511V197.259C366.595 197.783 368.307 198.041 370.119 198.045C374.105 198.053 378.592 196.743 383.358 193.997C390.482 189.891 397.015 183.227 402.13 175.456V173.12Z" fill="#200D8A"/>
<path d="M356.557 222.121L410.156 191.229C411.753 190.308 413.048 190.961 413.048 192.689C413.048 194.416 411.753 196.563 410.156 197.483L356.557 228.376C354.961 229.296 353.665 228.643 353.665 226.916C353.665 225.188 354.961 223.043 356.557 222.121Z" fill="#200D8A"/>
<path d="M350.806 244.219L415.908 206.655C417.504 205.733 418.8 206.388 418.8 208.115C418.8 209.841 417.504 211.988 415.908 212.908L350.806 250.472C349.208 251.393 347.914 250.739 347.914 249.012C347.914 247.285 349.208 245.139 350.806 244.219Z" fill="#200D8A"/>
<path d="M417.644 236.936L435.872 226.427C436.831 225.875 437.607 226.127 437.607 226.991C437.607 227.855 436.831 229.003 435.872 229.555L417.644 240.063C416.686 240.615 415.908 240.363 415.908 239.499C415.908 238.636 416.686 237.488 417.644 236.936Z" fill="#2E3E47"/>
<path d="M326.572 283.183L353.34 267.755C354.937 266.833 356.231 267.58 356.231 269.421V287.769C356.231 289.611 354.938 291.849 353.34 292.769L326.572 308.199C324.976 309.119 323.68 308.372 323.68 306.532V288.183C323.68 286.341 324.976 284.103 326.572 283.183Z" fill="#200D8A"/>
<path d="M330.841 285.747L349.071 275.239C350.03 274.687 350.806 274.939 350.806 275.803C350.806 276.667 350.03 277.815 349.071 278.367L330.841 288.875C329.884 289.427 329.107 289.175 329.107 288.311C329.107 287.448 329.884 286.3 330.841 285.747Z" fill="#FAF9F9"/>
<path d="M329.107 295.001V300.381C329.107 301.485 329.884 301.933 330.841 301.381L349.071 290.873C350.03 290.321 350.806 288.979 350.806 287.873L350.807 282.493C350.807 281.388 350.03 280.94 349.072 281.493L330.841 292.001C329.884 292.553 329.107 293.897 329.107 295.001Z" fill="#FAF9F9"/>
<path d="M369.973 258.167L396.74 242.739C398.338 241.819 399.632 242.564 399.632 244.405V262.755C399.632 264.595 398.338 266.833 396.74 267.755L369.973 283.183C368.375 284.103 367.081 283.357 367.081 281.516V263.167C367.081 261.327 368.375 259.088 369.973 258.167Z" fill="#200D8A"/>
<path d="M374.243 260.732L392.472 250.224C393.43 249.672 394.207 249.924 394.207 250.787C394.207 251.651 393.43 252.799 392.472 253.352L374.243 263.859C373.284 264.412 372.508 264.159 372.508 263.296C372.508 262.432 373.284 261.285 374.243 260.732Z" fill="#FAF9F9"/>
<path d="M372.508 269.987V275.367C372.508 276.471 373.284 276.919 374.243 276.367L392.472 265.859C393.43 265.307 394.207 263.963 394.207 262.859V257.477C394.208 256.373 393.431 255.925 392.472 256.477L374.243 266.985C373.284 267.539 372.508 268.881 372.508 269.987Z" fill="#FAF9F9"/>
<path d="M413.373 233.151L440.141 217.723C441.738 216.801 443.033 217.548 443.033 219.389V237.737C443.033 239.579 441.74 241.817 440.141 242.737L413.373 258.167C411.777 259.087 410.482 258.341 410.482 256.5V238.151C410.482 236.309 411.777 234.071 413.373 233.151Z" fill="#200D8A"/>
<path d="M417.643 235.716L435.872 225.207C436.831 224.655 437.607 224.907 437.607 225.771C437.607 226.635 436.831 227.783 435.872 228.335L417.643 238.843C416.686 239.395 415.908 239.143 415.908 238.28C415.908 237.416 416.686 236.268 417.643 235.716Z" fill="#FAF9F9"/>
<path d="M415.908 244.969V250.349C415.908 251.455 416.686 251.903 417.643 251.349L435.872 240.843C436.831 240.289 437.607 238.947 437.607 237.843L437.609 232.461C437.609 231.356 436.831 230.909 435.874 231.461L417.643 241.969C416.686 242.521 415.908 243.865 415.908 244.969Z" fill="#FAF9F9"/>
<path d="M329.463 325.293L437.25 263.167C440.444 261.325 443.034 262.633 443.034 266.088C443.034 269.541 440.444 273.833 437.25 275.675L329.463 337.801C326.27 339.641 323.68 338.335 323.68 334.88C323.68 331.425 326.27 327.133 329.463 325.293Z" fill="#D9DAD7"/>
<path d="M329.463 350.309L437.25 288.183C440.444 286.341 443.034 287.649 443.034 291.103C443.034 294.557 440.444 298.849 437.25 300.691L329.463 362.816C326.27 364.657 323.68 363.349 323.68 359.896C323.68 356.443 326.27 352.149 329.463 350.309Z" fill="#D9DAD7"/>
<path d="M364.549 361.356L402.165 339.675C403.763 338.753 405.057 339.5 405.057 341.341L405.058 353.436C405.058 355.277 403.763 357.515 402.167 358.436L364.549 380.119C362.951 381.039 361.657 380.292 361.657 378.452V366.356C361.657 364.515 362.951 362.277 364.549 361.356Z" fill="#200D8A"/>
<path d="M331.818 327.131C330.321 327.993 329.105 330.093 329.105 331.821C329.105 333.548 330.321 334.248 331.818 333.385C333.317 332.521 334.531 330.421 334.531 328.695C334.531 326.967 333.317 326.267 331.818 327.131Z" fill="#FAF9F9"/>
<path d="M340.412 322.171C338.913 323.033 337.698 325.133 337.698 326.861C337.698 328.588 338.913 329.288 340.412 328.425C341.91 327.561 343.125 325.461 343.125 323.733C343.125 322.007 341.91 321.307 340.412 322.171Z" fill="#FAF9F9"/>
<path d="M349.006 317.209C347.507 318.073 346.293 320.173 346.293 321.9C346.293 323.628 347.507 324.328 349.006 323.465C350.503 322.601 351.717 320.501 351.717 318.773C351.717 317.047 350.503 316.347 349.006 317.209Z" fill="#FAF9F9"/>
<path d="M357.599 312.249C356.101 313.113 354.885 315.213 354.885 316.941C354.885 318.668 356.101 319.368 357.599 318.505C359.097 317.641 360.311 315.541 360.311 313.815C360.311 312.087 359.097 311.387 357.599 312.249Z" fill="#FAF9F9"/>
<path d="M366.192 307.289C364.693 308.153 363.479 310.253 363.479 311.981C363.479 313.708 364.693 314.408 366.192 313.544C367.689 312.681 368.905 310.581 368.905 308.853C368.905 307.127 367.689 306.425 366.192 307.289Z" fill="#FAF9F9"/>
<path d="M374.786 302.329C373.288 303.193 372.074 305.293 372.074 307.02C372.074 308.748 373.288 309.448 374.786 308.584C376.283 307.721 377.497 305.62 377.497 303.893C377.497 302.167 376.283 301.465 374.786 302.329Z" fill="#FAF9F9"/>
<path d="M383.378 297.369C381.881 298.232 380.667 300.333 380.667 302.06C380.667 303.787 381.881 304.487 383.378 303.624C384.876 302.76 386.092 300.66 386.092 298.933C386.092 297.205 384.876 296.505 383.378 297.369Z" fill="#FAF9F9"/>
<path d="M331.818 352.173C330.321 353.037 329.105 355.137 329.105 356.864C329.105 358.592 330.321 359.292 331.818 358.428C333.317 357.564 334.531 355.464 334.531 353.737C334.531 352.009 333.317 351.309 331.818 352.173Z" fill="#FAF9F9"/>
<path d="M340.412 347.213C338.913 348.076 337.698 350.176 337.698 351.904C337.698 353.631 338.913 354.332 340.412 353.468C341.91 352.604 343.125 350.504 343.125 348.777C343.125 347.049 341.91 346.349 340.412 347.213Z" fill="#FAF9F9"/>
<path d="M349.006 342.253C347.507 343.116 346.293 345.216 346.293 346.944C346.293 348.671 347.507 349.371 349.006 348.508C350.503 347.644 351.717 345.544 351.717 343.816C351.717 342.089 350.503 341.389 349.006 342.253Z" fill="#FAF9F9"/>
<path d="M357.599 337.292C356.101 338.156 354.885 340.256 354.885 341.983C354.885 343.711 356.101 344.411 357.599 343.548C359.097 342.684 360.311 340.584 360.311 338.856C360.311 337.129 359.097 336.429 357.599 337.292Z" fill="#FAF9F9"/>
<path d="M366.192 332.332C364.693 333.196 363.479 335.296 363.479 337.024C363.479 338.751 364.693 339.451 366.192 338.588C367.689 337.724 368.905 335.624 368.905 333.897C368.905 332.169 367.689 331.469 366.192 332.332Z" fill="#FAF9F9"/>
<path d="M374.786 327.372C373.288 328.236 372.074 330.336 372.074 332.064C372.074 333.791 373.288 334.491 374.786 333.627C376.283 332.764 377.497 330.664 377.497 328.936C377.497 327.209 376.283 326.509 374.786 327.372Z" fill="#FAF9F9"/>
<path d="M383.378 322.412C381.881 323.276 380.667 325.376 380.667 327.103C380.667 328.831 381.881 329.531 383.378 328.667C384.876 327.804 386.092 325.704 386.092 323.976C386.092 322.249 384.876 321.548 383.378 322.412Z" fill="#FAF9F9"/>
<path d="M531.506 288.937C528.137 288.937 524.577 290.627 522.388 291.888C507.136 300.68 494.248 324.295 494.248 343.456C494.248 351.211 496.427 357.097 500.076 359.201C504.231 361.595 510.002 358.981 513.073 357.213C528.326 348.421 541.212 324.807 541.212 305.647C541.212 297.891 539.034 292.004 535.385 289.9C534.191 289.213 532.863 288.937 531.506 288.937ZM503.911 378.783C499.227 378.783 494.783 377.629 490.759 375.311C481.135 369.763 475.615 358.152 475.615 343.456C475.615 317.613 492.068 287.884 513.073 275.779C524.382 269.261 535.613 268.553 544.7 273.791C554.327 279.339 559.846 290.949 559.846 305.647C559.846 331.489 543.393 361.217 522.388 373.323C516.087 376.955 509.809 378.783 503.911 378.783Z" fill="#200D8A"/>
<path d="M544.545 309.784C544.545 295.268 535.385 289.9 535.385 289.9C539.033 292.004 541.212 297.891 541.212 305.647C541.212 324.807 528.326 348.421 513.073 357.213C510.002 358.981 504.231 361.595 500.076 359.201C500.076 359.201 507.806 363.991 518.487 358.175C533.95 349.753 544.545 328.944 544.545 309.784Z" fill="#2E3E47"/>
<path d="M529.85 128.336C529.85 123.024 525.538 118.717 520.217 118.717C514.897 118.717 510.584 123.024 510.584 128.336V128.361V281.305C510.584 282.727 511.525 284.148 513.405 285.231C517.166 287.4 523.267 287.4 527.029 285.231C528.91 284.148 529.85 282.727 529.85 281.305V128.361H529.849L529.85 128.336Z" fill="#200D8A"/>
<path d="M522.156 162.512C522.156 158.969 519.664 154.663 516.593 152.892C515.031 151.991 513.623 151.928 512.612 152.541L512.607 152.533L488.836 166.205L488.262 166.547L488.029 166.684C487.618 166.957 487.235 167.272 486.891 167.613C485.453 169.036 484.563 171.017 484.563 173.192C484.563 176.173 486.221 178.771 488.66 180.111C489.782 180.712 491.054 181.053 492.425 181.053C493.782 181.053 495.068 180.712 496.176 180.111C496.329 180.028 496.478 179.932 496.629 179.851L520.551 166.096L520.548 166.091C521.54 165.505 522.156 164.269 522.156 162.512Z" fill="#200D8A"/>
<path d="M522.156 200.813C522.156 197.271 519.664 192.964 516.594 191.192C515.031 190.292 513.623 190.228 512.612 190.843L512.607 190.835L484.748 206.807L484.172 207.148L483.939 207.285C483.529 207.559 483.145 207.873 482.803 208.215C481.365 209.637 480.476 211.62 480.476 213.793C480.476 216.773 482.132 219.371 484.569 220.712C485.692 221.313 486.966 221.655 488.335 221.655C489.692 221.655 490.98 221.313 492.088 220.712C492.239 220.629 492.39 220.535 492.541 220.452L520.551 204.397L520.548 204.391C521.54 203.805 522.156 202.569 522.156 200.813Z" fill="#200D8A"/>
</g>
<defs>
<clipPath id="clip0">
<rect width="620" height="536" fill="white"/>
</clipPath>
</defs>
</svg>
