<svg width="62" height="54" viewBox="0 0 62 54" fill="none" xmlns="http://www.w3.org/2000/svg">
<path d="M0 54H62L0 0V54Z" fill="#D2F1F1"/>
<path d="M34.4403 43.7831C33.9053 43.7831 33.4717 43.3494 33.4717 42.8151C33.4717 35.7749 27.7447 30.0472 20.7038 30.0472C13.6636 30.0472 7.9359 35.7749 7.9359 42.8151C7.9359 43.3494 7.5029 43.7831 6.96795 43.7831C6.43364 43.7831 6 43.3494 6 42.8151C6 34.7076 12.5963 28.1113 20.7038 28.1113C28.812 28.1113 35.4082 34.7076 35.4082 42.8151C35.4082 43.3494 34.9746 43.7831 34.4403 43.7831Z" fill="#242E33"/>
<path d="M20.0588 28.9975C15.3849 28.9975 11.5821 25.1948 11.5821 20.5208C11.5821 15.8469 15.3849 12.0442 20.0588 12.0442C24.7333 12.0442 28.5361 15.8469 28.5361 20.5208C28.5361 25.1948 24.7333 28.9975 20.0588 28.9975ZM20.0588 13.9801C16.4522 13.9801 13.518 16.9143 13.518 20.5208C13.518 24.1274 16.4522 27.0616 20.0588 27.0616C23.666 27.0616 26.6002 24.1274 26.6002 20.5208C26.6002 16.9143 23.666 13.9801 20.0588 13.9801Z" fill="#242E33"/>
<path d="M32.6581 26.3943C32.5491 26.3943 32.4387 26.3756 32.3322 26.3381C31.947 26.1994 31.7805 25.8341 31.7812 25.425L31.8812 18.9533C31.8812 18.954 31.8812 18.9546 31.8812 18.9546C31.8812 18.9546 31.7863 18.5468 31.7812 10.2508C31.7812 9.00925 32.6917 8 33.9223 8H43.8489C45.1195 8 46.0778 8.91439 46.0778 10.1276V20.4523C46.0778 21.7475 45.0569 22.8419 43.8489 22.8419H36.0214L33.4073 26.0394C33.2202 26.2678 32.9433 26.3943 32.6581 26.3943ZM33.9223 9.9359C33.7648 9.9359 33.6261 10.083 33.6261 10.2508C33.6274 12.5952 33.6319 18.7255 33.6345 18.9359L33.6299 22.709L34.8134 21.2616C34.9973 21.0363 35.2722 20.906 35.5626 20.906H43.8489C43.9567 20.906 44.1419 20.6814 44.1419 20.4523V10.1276C44.1419 10.0746 44.1419 9.9359 43.8489 9.9359H33.9223Z" fill="#242E33"/>
<path d="M40.5914 16.7116C40.0564 16.7116 39.6234 16.278 39.6234 15.7437V13.8078C39.6234 13.2735 40.0564 12.8398 40.5914 12.8398C41.1257 12.8398 41.5593 13.2735 41.5593 13.8078V15.7437C41.5593 16.278 41.1257 16.7116 40.5914 16.7116Z" fill="#242E33"/>
<path d="M36.7201 16.7116C36.1851 16.7116 35.7521 16.278 35.7521 15.7437V13.8078C35.7521 13.2735 36.1851 12.8398 36.7201 12.8398C37.2544 12.8398 37.688 13.2735 37.688 13.8078V15.7437C37.688 16.278 37.2544 16.7116 36.7201 16.7116Z" fill="#242E33"/>
</svg>
