<svg width="168" height="167" viewBox="0 0 168 167" fill="none" xmlns="http://www.w3.org/2000/svg">
<circle cx="84.0001" cy="83.021" r="48.5" fill="white" stroke="#2AAAC0" stroke-width="3"/>
<g opacity="0.5">
<path d="M49.7171 16.8777C61.0731 10.9917 73.7533 8.12867 86.5367 8.5642C99.3201 8.99972 111.776 12.7192 122.705 19.3644C133.634 26.0096 142.668 35.3568 148.938 46.5058C155.207 57.6548 158.5 70.2302 158.5 83.021" stroke="#2AAAC0"/>
<path d="M157.515 95.0977C154.76 111.865 146.357 127.187 133.698 138.522C121.039 149.857 104.886 156.525 87.917 157.418C70.9483 158.311 54.1842 153.377 40.4051 143.434C26.6259 133.491 16.6599 119.136 12.1599 102.751" stroke="#2AAAC0"/>
<path d="M10.3552 94.2766C8.19071 80.1146 10.1555 65.6289 16.0141 52.5552C21.8727 39.4814 31.3766 28.3742 43.3871 20.5643" stroke="#2AAAC0"/>
</g>
<g opacity="0.5">
<path d="M32.2285 53.696C37.2633 44.8074 44.5017 37.3648 53.2469 32.0849C61.992 26.8049 71.9493 23.8654 82.1599 23.5495C92.3704 23.2336 102.49 25.5518 111.545 30.281C120.6 35.0102 128.285 41.991 133.86 50.5513" stroke="#2AAAC0"/>
<path d="M138.464 59.0632C143.928 71.4853 144.982 85.4022 141.45 98.5055C137.918 111.609 130.013 123.111 119.046 131.104C108.079 139.098 94.7093 143.102 81.154 142.453C67.5986 141.804 54.6725 136.54 44.5195 127.536" stroke="#2AAAC0"/>
<path d="M39.6184 122.651C31.9976 114.116 26.9992 103.565 25.2221 92.2623C23.445 80.9592 24.9646 69.3835 29.5988 58.9221" stroke="#2AAAC0"/>
</g>
<g opacity="0.5">
<path d="M54.2038 24.5341C64.0736 19.4184 75.0943 16.93 86.2047 17.3085C97.3151 17.6871 108.141 20.9197 117.64 26.6953C127.138 32.4708 134.99 40.5947 140.439 50.2846C145.888 59.9746 148.75 70.9042 148.75 82.021" stroke="#2AAAC0" stroke-width="0.5" stroke-dasharray="2 2"/>
<path d="M147.894 92.5172C145.5 107.09 138.196 120.407 127.194 130.259C116.192 140.11 102.152 145.905 87.4043 146.681C72.6565 147.458 58.0863 143.17 46.1104 134.528C34.1346 125.886 25.4729 113.41 21.5618 99.1685" stroke="#2AAAC0" stroke-width="0.5" stroke-dasharray="2 2"/>
<path d="M19.9932 91.8035C18.1121 79.495 19.8197 66.9051 24.9116 55.5423C30.0034 44.1796 38.2636 34.526 48.7022 27.7382" stroke="#2AAAC0" stroke-width="0.5" stroke-dasharray="2 2"/>
</g>
<g clip-path="url(#clip0)">
<path d="M105.34 74.3377L99.7145 68.7127C99.567 68.5653 99.3791 68.4648 99.1745 68.4241C98.9699 68.3834 98.7579 68.4043 98.5652 68.4841C98.3724 68.564 98.2077 68.6991 98.0918 68.8726C97.9759 69.046 97.9141 69.2499 97.9141 69.4585V71.2163H95.8047V65.2397C95.8036 64.2145 95.3958 63.2315 94.6708 62.5065C93.9458 61.7815 92.9628 61.3737 91.9375 61.3726H75.0625C74.0372 61.3737 73.0542 61.7815 72.3293 62.5065C71.6043 63.2315 71.1965 64.2145 71.1953 65.2397V88.0913H69.0859V86.3335C69.0859 86.1249 69.0241 85.921 68.9082 85.7476C68.7923 85.5741 68.6276 85.439 68.4349 85.3591C68.2422 85.2793 68.0301 85.2584 67.8255 85.2991C67.6209 85.3398 67.433 85.4403 67.2855 85.5877L61.6605 91.2127C61.4627 91.4105 61.3516 91.6788 61.3516 91.9585C61.3516 92.2382 61.4627 92.5065 61.6605 92.7042L67.2855 98.3292C67.9118 98.9962 69.1154 98.494 69.0859 97.5835V95.8257H71.1953V101.802C71.1965 102.828 71.6043 103.811 72.3293 104.536C73.0542 105.26 74.0372 105.668 75.0625 105.669H91.9375C92.9628 105.668 93.9458 105.26 94.6708 104.536C95.3958 103.811 95.8036 102.828 95.8047 101.802V78.9507H97.9141V80.7085C97.8847 81.6193 99.0882 82.121 99.7145 81.4542L105.34 75.8292C105.537 75.6315 105.648 75.3632 105.648 75.0835C105.648 74.8038 105.537 74.5355 105.34 74.3377ZM75.0625 63.4819H91.9375C92.4035 63.4825 92.8503 63.6678 93.1799 63.9974C93.5094 64.3269 93.6948 64.7737 93.6953 65.2397V66.9976H73.3047V65.2397C73.3052 64.7737 73.4906 64.3269 73.8201 63.9974C74.1497 63.6678 74.5965 63.4825 75.0625 63.4819ZM91.9375 103.56H75.0625C74.5965 103.56 74.1497 103.374 73.8201 103.045C73.4906 102.715 73.3052 102.268 73.3047 101.802V100.044H93.6953V101.802C93.6948 102.268 93.5094 102.715 93.1799 103.045C92.8503 103.374 92.4035 103.56 91.9375 103.56ZM100.023 78.1622V77.896C100.023 77.6163 99.9123 77.348 99.7145 77.1502C99.5167 76.9524 99.2485 76.8413 98.9688 76.8413H90.5313C90.2515 76.8413 89.9833 76.9524 89.7855 77.1502C89.5877 77.348 89.4766 77.6163 89.4766 77.896C89.4766 78.1757 89.5877 78.444 89.7855 78.6418C89.9833 78.8396 90.2515 78.9507 90.5313 78.9507H93.6953V97.9351H73.3047V95.8257H76.4688C76.7485 95.8257 77.0167 95.7146 77.2145 95.5168C77.4123 95.319 77.5234 95.0507 77.5234 94.771C77.5234 94.4913 77.4123 94.223 77.2145 94.0252C77.0167 93.8274 76.7485 93.7163 76.4688 93.7163H68.0313C67.7515 93.7163 67.4833 93.8274 67.2855 94.0252C67.0877 94.223 66.9766 94.4913 66.9766 94.771V95.0372L63.8979 91.9585L66.9766 88.8798V89.146C66.9766 89.4257 67.0877 89.694 67.2855 89.8918C67.4833 90.0896 67.7515 90.2007 68.0313 90.2007H76.4688C76.7485 90.2007 77.0167 90.0896 77.2145 89.8918C77.4123 89.694 77.5234 89.4257 77.5234 89.146C77.5234 88.8663 77.4123 88.598 77.2145 88.4002C77.0167 88.2024 76.7485 88.0913 76.4688 88.0913H73.3047V69.1069H93.6953V71.2163H90.5313C90.2515 71.2163 89.9833 71.3274 89.7855 71.5252C89.5877 71.723 89.4766 71.9913 89.4766 72.271C89.4766 72.5507 89.5877 72.819 89.7855 73.0168C89.9833 73.2146 90.2515 73.3257 90.5313 73.3257H98.9688C99.2485 73.3257 99.5167 73.2146 99.7145 73.0168C99.9123 72.819 100.023 72.5507 100.023 72.271V72.0048L103.102 75.0835L100.023 78.1622Z" fill="#2AAAC0"/>
<path d="M82.0938 78.9507H85.6094C85.889 78.951 86.1571 79.0622 86.3548 79.2599C86.5525 79.4577 86.6638 79.7257 86.6641 80.0054C86.6641 80.2851 86.7752 80.5534 86.973 80.7511C87.1708 80.9489 87.439 81.0601 87.7188 81.0601C87.9985 81.0601 88.2667 80.9489 88.4645 80.7511C88.6623 80.5534 88.7734 80.2851 88.7734 80.0054C88.7725 79.1665 88.4389 78.3622 87.8457 77.7691C87.2525 77.1759 86.4483 76.8422 85.6094 76.8413H84.5547V75.0835C84.5547 74.8038 84.4436 74.5355 84.2458 74.3377C84.048 74.1399 83.7797 74.0288 83.5 74.0288C83.2203 74.0288 82.952 74.1399 82.7542 74.3377C82.5564 74.5355 82.4453 74.8038 82.4453 75.0835V76.8413H82.0938C81.0681 76.8413 80.0845 77.2487 79.3592 77.974C78.634 78.6992 78.2266 79.6829 78.2266 80.7085C78.2266 81.7341 78.634 82.7178 79.3592 83.443C80.0845 84.1682 81.0681 84.5757 82.0938 84.5757H84.9062C85.3725 84.5757 85.8196 84.7609 86.1492 85.0905C86.4789 85.4202 86.6641 85.8673 86.6641 86.3335C86.6641 86.7997 86.4789 87.2468 86.1492 87.5765C85.8196 87.9061 85.3725 88.0913 84.9062 88.0913H81.3906C81.111 88.091 80.8429 87.9798 80.6452 87.7821C80.4475 87.5843 80.3362 87.3162 80.3359 87.0366C80.3359 86.7569 80.2248 86.4886 80.027 86.2908C79.8292 86.0931 79.561 85.9819 79.2812 85.9819C79.0015 85.9819 78.7333 86.0931 78.5355 86.2908C78.3377 86.4886 78.2266 86.7569 78.2266 87.0366C78.2275 87.8755 78.5611 88.6797 79.1543 89.2729C79.7475 89.8661 80.5517 90.1998 81.3906 90.2007H82.4453V91.9585C82.4453 92.2382 82.5564 92.5065 82.7542 92.7043C82.952 92.9021 83.2203 93.0132 83.5 93.0132C83.7797 93.0132 84.048 92.9021 84.2458 92.7043C84.4436 92.5065 84.5547 92.2382 84.5547 91.9585V90.2007H84.9062C85.9319 90.2007 86.9155 89.7932 87.6408 89.068C88.366 88.3428 88.7734 87.3591 88.7734 86.3335C88.7734 85.3079 88.366 84.3242 87.6408 83.599C86.9155 82.8737 85.9319 82.4663 84.9062 82.4663H82.0938C81.6275 82.4663 81.1804 82.2811 80.8508 81.9515C80.5211 81.6218 80.3359 81.1747 80.3359 80.7085C80.3359 80.2423 80.5211 79.7952 80.8508 79.4655C81.1804 79.1359 81.6275 78.9507 82.0938 78.9507Z" fill="#2AAAC0"/>
</g>
<defs>
<clipPath id="clip0">
<rect width="45" height="45" fill="white" transform="translate(61 61.021)"/>
</clipPath>
</defs>
</svg>
