<svg width="287" height="106" viewBox="0 0 287 106" fill="none" xmlns="http://www.w3.org/2000/svg">
<path opacity="0.25" d="M28.3014 26.5C20.7278 26.5 15.9444 70.225 0 70.225V102C0 104.209 1.79086 106 4 106H283C285.209 106 287 104.209 287 102V56.975C260.293 56.975 259.097 26.5 250.328 26.5C241.558 26.5 239.167 70.225 228.803 70.225C218.439 70.225 212.858 34.45 206.481 34.45C200.103 34.45 196.914 56.975 191.333 56.975C185.753 56.975 179.774 19.875 175.787 19.875C171.801 19.875 169.41 34.45 161.438 34.45C153.465 34.45 150.276 0 142.703 0C135.129 0 129.15 45.05 120.381 45.05C111.611 45.05 108.821 70.225 100.45 70.225C92.0792 70.225 78.1278 45.05 72.1486 45.05C66.1694 45.05 59.7917 56.975 52.2181 56.975C44.6444 56.975 35.875 26.5 28.3014 26.5Z" fill="#2AAAC0"/>
</svg>
